<svg width="160" height="160" viewBox="0 0 160 160" fill="none" xmlns="http://www.w3.org/2000/svg">
<path d="M38.4686 118.308H13.275C11.1837 118.308 9.48828 116.613 9.48828 114.521V54.0639C9.48828 51.9725 11.1837 50.2771 13.275 50.2771H146.726C148.818 50.2771 150.513 51.9725 150.513 54.0639V114.521C150.513 116.613 148.818 118.308 146.726 118.308H121.801M38.6552 92.1322H35.272C33.1806 92.1322 31.4853 90.4368 31.4853 88.3454V74.3187C31.4853 72.2274 33.1806 70.532 35.272 70.532H124.731C126.823 70.532 128.518 72.2274 128.518 74.3187V88.3454C128.518 90.4368 126.823 92.1322 124.731 92.1322H121.72M113.125 50.2772V14.6976C113.125 12.6063 111.429 10.9109 109.338 10.9109H50.6643C48.573 10.9109 46.8776 12.6063 46.8776 14.6977V50.2772M133.074 50.2773V34.3809C133.074 32.2895 131.379 30.5941 129.287 30.5941H113.28M26.9268 50.2773V34.3809C26.9268 32.2895 28.6222 30.5941 30.7136 30.5941H46.8206M38.4149 122.88L62.9935 100.051C64.4568 98.6923 66.7242 98.7033 68.1743 100.077L95.7122 126.156C96.8637 127.246 98.5729 127.504 99.9945 126.801L108.845 122.424C110.257 121.726 111.954 121.975 113.106 123.049L121.588 130.957M42.2021 149.089H117.802C119.894 149.089 121.589 147.394 121.589 145.303V82.7286C121.589 80.6373 119.894 78.9419 117.802 78.9419H42.2021C40.1107 78.9419 38.4153 80.6373 38.4153 82.7286V145.303C38.4153 147.394 40.1107 149.089 42.2021 149.089ZM110.724 97.6348C110.724 103.691 105.814 108.601 99.7574 108.601C93.7007 108.601 88.7908 103.691 88.7908 97.6348C88.7908 91.5781 93.7007 86.6682 99.7574 86.6682C105.814 86.6682 110.724 91.5781 110.724 97.6348Z" stroke="white" stroke-width="2" stroke-linecap="round" stroke-linejoin="round"/>
</svg>
