<svg width="160" height="160" viewBox="0 0 160 160" fill="none" xmlns="http://www.w3.org/2000/svg">
<path d="M73.0151 46.919H9.84806C8.55989 46.919 7.51562 47.9633 7.51562 49.2515V88.9286C7.51562 90.2168 8.55989 91.2611 9.84806 91.2611H23.0439C24.3321 91.2611 25.3764 92.3054 25.3764 93.5935V113.395C25.3764 114.683 26.4207 115.728 27.7088 115.728H73.0151M120.351 29.6317L116.558 22.5146C116.153 21.7542 115.362 21.2791 114.5 21.2791M114.5 21.2791H100.965M114.5 21.2791H114.774M100.965 21.2791H100.691M100.965 21.2791C100.103 21.2791 99.3119 21.7542 98.9067 22.5146L95.1143 29.6317M95.1143 130.369L98.9067 137.486C99.3119 138.246 100.103 138.721 100.965 138.721M100.965 138.721H114.5M100.965 138.721H100.691M114.5 138.721H114.774M114.5 138.721C115.362 138.721 116.153 138.246 116.558 137.486L120.351 130.369M130.822 47.2182V59.0361M130.822 65.2021V111.189M147.072 40.4584H68.3926C65.4029 40.4584 62.9793 38.0347 62.9793 35.045C62.9793 32.0553 65.4029 29.6316 68.3926 29.6316H147.072C150.062 29.6316 152.486 32.0553 152.486 35.045C152.486 38.0347 150.062 40.4584 147.072 40.4584ZM68.3926 119.542L147.072 119.542C150.062 119.542 152.486 121.966 152.486 124.955C152.486 127.945 150.062 130.369 147.072 130.369L68.3926 130.369C65.4029 130.369 62.9793 127.945 62.9793 124.955C62.9793 121.966 65.4029 119.542 68.3926 119.542ZM142.449 40.4584H73.0151V119.542H142.449V40.4584ZM65.1648 59.0416C66.3718 59.0416 67.3503 58.0632 67.3503 56.8561V53.3193C67.3503 52.1122 66.3718 51.1338 65.1648 51.1338C63.9578 51.1338 62.9793 52.1122 62.9793 53.3193V56.8561C62.9793 58.0632 63.9578 59.0416 65.1648 59.0416ZM65.1648 111.64C66.3718 111.64 67.3503 110.661 67.3503 109.454V105.917C67.3503 104.71 66.3718 103.732 65.1648 103.732C63.9578 103.732 62.9793 104.71 62.9793 105.917V109.454C62.9793 110.661 63.9578 111.64 65.1648 111.64ZM50.1384 59.0416C51.3454 59.0416 52.3239 58.0632 52.3239 56.8561V53.3193C52.3239 52.1122 51.3454 51.1338 50.1384 51.1338C48.9313 51.1338 47.9528 52.1122 47.9528 53.3193V56.8561C47.9528 58.0632 48.9313 59.0416 50.1384 59.0416ZM50.1384 111.64C51.3454 111.64 52.3239 110.661 52.3239 109.454V105.917C52.3239 104.71 51.3454 103.732 50.1384 103.732C48.9313 103.732 47.9528 104.71 47.9528 105.917V109.454C47.9528 110.661 48.9313 111.64 50.1384 111.64ZM35.1119 59.0416C36.3189 59.0416 37.2974 58.0632 37.2974 56.8561V53.3193C37.2974 52.1122 36.3189 51.1338 35.1119 51.1338C33.9049 51.1338 32.9264 52.1122 32.9264 53.3193V56.8561C32.9264 58.0632 33.9049 59.0416 35.1119 59.0416ZM35.1119 111.64C36.3189 111.64 37.2974 110.661 37.2974 109.454V105.917C37.2974 104.71 36.3189 103.732 35.1119 103.732C33.9049 103.732 32.9264 104.71 32.9264 105.917V109.454C32.9264 110.661 33.9049 111.64 35.1119 111.64ZM20.0855 59.0416C21.2925 59.0416 22.271 58.0632 22.271 56.8561V53.3193C22.271 52.1122 21.2925 51.1338 20.0855 51.1338C18.8785 51.1338 17.9 52.1122 17.9 53.3193V56.8561C17.9 58.0632 18.8785 59.0416 20.0855 59.0416Z" stroke="white" stroke-width="2" stroke-linecap="round" stroke-linejoin="round"/>
</svg>
