<svg width="160" height="160" viewBox="0 0 160 160" fill="none" xmlns="http://www.w3.org/2000/svg">
<path d="M129.145 84.7574L146.446 89.3932C151.634 70.0322 140.144 50.1314 120.783 44.9437L116.045 62.6274M101.137 39.3819C104.418 38.5564 107.852 38.118 111.389 38.118C134.52 38.118 153.271 56.8691 153.271 79.9998C153.271 103.13 134.52 121.882 111.389 121.882C107.852 121.882 104.418 121.443 101.137 120.618M96.9768 97.2496C89.1351 95.4274 83.2919 88.3959 83.2919 79.9997C83.2919 71.6035 89.1351 64.5721 96.9768 62.7499C99.1598 62.2426 101.001 60.4739 101.001 58.2327L101.001 37.9362C101.001 35.1348 98.7298 32.8638 95.9284 32.8638H11.8009C8.99951 32.8638 6.72852 35.1348 6.72852 37.9362V122.064C6.72852 124.865 8.99951 127.136 11.8009 127.136H95.9284C98.7298 127.136 101.001 124.865 101.001 122.064L101.001 101.767C101.001 99.5256 99.1598 97.7568 96.9768 97.2496ZM71.5738 80.6493C71.5738 90.4298 63.6452 98.3584 53.8648 98.3584C44.0843 98.3584 36.1557 90.4298 36.1557 80.6493C36.1557 70.8689 44.0843 62.9403 53.8648 62.9403C63.6452 62.9403 71.5738 70.8689 71.5738 80.6493ZM31.0101 111.298H76.7194C78.1998 111.298 79.3999 110.098 79.3999 108.618C79.3999 107.138 78.1998 105.938 76.7194 105.938H31.0101C29.5298 105.938 28.3297 107.138 28.3297 108.618C28.3297 110.098 29.5298 111.298 31.0101 111.298ZM40.9023 120.815H66.8268C68.3071 120.815 69.5072 119.615 69.5072 118.134C69.5072 116.654 68.3071 115.454 66.8268 115.454H40.9023C39.4219 115.454 38.2218 116.654 38.2218 118.134C38.2218 119.615 39.4219 120.815 40.9023 120.815ZM124.683 79.9998C124.683 87.342 118.731 93.294 111.389 93.294C104.047 93.294 98.0946 87.342 98.0946 79.9998C98.0946 72.6576 104.047 66.7056 111.389 66.7056C118.731 66.7056 124.683 72.6576 124.683 79.9998ZM115.46 79.9997C115.46 82.2481 113.637 84.0708 111.389 84.0708C109.14 84.0708 107.318 82.2481 107.318 79.9997C107.318 77.7512 109.14 75.9285 111.389 75.9285C113.637 75.9285 115.46 77.7512 115.46 79.9997Z" stroke="white" stroke-width="2" stroke-linecap="round" stroke-linejoin="round"/>
</svg>
