<svg width="160" height="160" viewBox="0 0 160 160" fill="none" xmlns="http://www.w3.org/2000/svg">
<path d="M84.5098 28.2459L100.488 66.6625M84.5098 28.2459L68.5315 66.6625M84.5098 28.2459V82.6408M100.488 66.6625L84.5098 82.6408M100.488 66.6625L103.431 66.8984M120.017 137.526L84.5098 115.839M120.017 137.526L84.5098 82.6408M120.017 137.526L113.459 110.031M84.5098 115.839L49.0024 137.526M84.5098 115.839V82.6408M49.0024 137.526L58.6564 97.055M49.0024 137.526L84.5098 82.6408M58.6564 97.055L27.0577 69.9874M58.6564 97.055L84.5098 82.6408M27.0577 69.9874L68.5315 66.6625M27.0577 69.9874L84.5098 82.6408M68.5315 66.6625L84.5098 82.6408M84.5098 82.6408L101.549 78.888M84.5098 82.6408L101.133 91.9086M117.353 68.0145L141.962 69.9874M141.962 69.9874L116.192 75.7339M141.962 69.9874L132.84 77.8015M157.37 88.1729C155.622 89.1443 144.548 89.6136 114.241 84.4848C105.867 83.0676 102.316 80.7286 101.761 77.7189M157.37 88.1729V96.3175M157.37 88.1729V81.3842C157.37 80.4072 156.579 79.6142 155.602 79.6018C150.895 79.5418 137.099 79.0811 117.949 75.9541C117.346 75.8557 116.738 75.7546 116.125 75.6508C115.124 75.4814 114.194 75.2985 113.332 75.1025M157.37 96.3175C155.622 97.2889 144.548 97.9494 114.241 92.8205C105.71 91.3767 101.705 89.1434 101.248 86.0526M157.37 96.3175V104.473M157.37 104.473C155.622 105.444 144.548 106.105 114.241 100.976C110.238 100.658 101.978 97.5933 101.348 94.2384M157.37 104.473V112.458C157.37 113.093 157.021 113.669 156.399 113.798C152.859 114.534 141.106 114.537 114.241 109.99C105.595 108.527 102.235 106.05 101.852 102.9C101.695 100.999 101.449 96.975 101.348 94.2384M2.62988 32.6691V25.8905C2.62988 24.6452 3.8972 23.7964 5.06943 24.2166C41.2865 37.2003 89.0123 13.2804 112.628 26.7251C119.006 30.3568 120.961 34.4292 120.514 38.6434M2.62988 32.6691V41.1987M2.62988 32.6691C27.8879 43.0695 58.415 33.8658 82.823 31.7782M2.62988 41.1987V49.3394M2.62988 41.1987C26.6817 51.1024 55.5112 43.1455 79.2853 40.5111M2.62988 49.3394V57.1356C2.62988 57.8675 3.08552 58.5248 3.77719 58.7643C25.0057 66.1157 50.0952 61.0123 71.9459 58.2577M2.62988 49.3394C24.9726 58.7175 52.2062 52.5349 75.5245 49.7356M113.332 75.1025C111.255 74.6307 109.568 74.0832 108.221 73.4675C107.176 72.9903 106.336 72.472 105.677 71.9162M113.332 75.1025C117.476 70.6116 119.515 63.9021 120.253 48.2854C120.828 42.0607 120.714 40.4809 120.514 38.6434M104.004 65.9595C103.537 67.5584 103.572 69.0341 104.333 70.3532C104.65 70.9021 105.092 71.4239 105.677 71.9162M104.004 65.9595C104.579 63.9876 105.916 61.8281 107.596 59.5432M104.004 65.9595C101.342 72.9776 100.995 84.6614 101.348 94.2384M107.596 59.5432C109.1 57.497 110.878 55.3502 112.628 53.1475M107.596 59.5432C104.288 58.2005 100.604 57.4285 96.6189 57.067M116.274 48.2854C115.15 49.9241 113.896 51.5505 112.628 53.1475M116.274 48.2854C115.013 46.7676 113.209 45.2984 110.744 43.8949C104.812 40.518 97.4734 39.5436 89.2356 39.7726M116.274 48.2854C116.72 47.6348 117.146 46.9823 117.543 46.3289M112.628 53.1475C107.192 49.9042 100.506 48.6843 92.9931 48.5742M120.514 38.6434C120.305 40.6046 119.577 42.5965 118.532 44.589M118.532 44.589C117.941 41.4089 115.652 38.3536 110.744 35.5591C103.983 31.7103 95.3948 30.9672 85.7308 31.563M118.532 44.589C118.227 45.1692 117.896 45.7494 117.543 46.3289M105.677 71.9162C105.807 69.7147 106.812 65.5877 110.744 61.5531C115.667 56.5013 116.836 49.6139 117.543 46.3289M109.246 73.8347C109.515 73.4992 111.031 68.5413 113.609 64.8417C117.77 58.8685 118.709 48.3984 119.381 44.5728" stroke="white" stroke-width="2" stroke-linecap="round" stroke-linejoin="round"/>
</svg>
