<svg width="20" height="18" viewBox="0 0 20 18" fill="none" xmlns="http://www.w3.org/2000/svg">
<path d="M15.3097 5.59089C15.3097 8.67865 12.8066 11.1818 9.71882 11.1818C6.63106 11.1818 4.12793 8.67865 4.12793 5.59089C4.12793 2.50313 6.63106 0 9.71882 0C12.8066 0 15.3097 2.50313 15.3097 5.59089Z" fill="#FF1C8A" style="mix-blend-mode:multiply"/>
<path d="M11.1818 11.5774C11.1818 14.6652 8.67865 17.1683 5.59089 17.1683C2.50313 17.1683 0 14.6652 0 11.5774C0 8.48962 2.50313 5.9865 5.59089 5.9865C8.67865 5.9865 11.1818 8.48962 11.1818 11.5774Z" fill="#00D9FF" style="mix-blend-mode:multiply"/>
<path d="M19.1027 11.5774C19.1027 14.6652 16.5996 17.1683 13.5118 17.1683C10.424 17.1683 7.9209 14.6652 7.9209 11.5774C7.9209 8.48962 10.424 5.9865 13.5118 5.9865C16.5996 5.9865 19.1027 8.48962 19.1027 11.5774Z" fill="#FFF826" style="mix-blend-mode:multiply"/>
</svg>
