<svg width="28" height="29" viewBox="0 0 28 29" fill="none" xmlns="http://www.w3.org/2000/svg">
<path d="M5.98137 10.6929L9.23985 1.81167C9.62267 0.768267 10.7828 0.237109 11.8228 0.629052L25.3121 5.71269C26.3455 6.10214 26.8676 7.25544 26.4785 8.28894L24.4756 13.6085M7.93633 10.6931L10.5519 3.33569C10.7019 2.91383 11.1688 2.69716 11.5878 2.85505L24.0025 7.5337C24.4159 7.68952 24.6248 8.15103 24.4689 8.56449L22.4862 13.8242M2.11046 10.9118L2.11023 7.36238C2.11015 6.25775 3.00561 5.36225 4.11023 5.36225H7.63304M16.2798 11.4813L14.2831 7.45313L9.08757 10.6544M20.2739 13.5955L18.5621 10.8439L13.4601 12.6565M2.2009 26.175C1.82729 23.1728 1.07736 17.3804 0.517093 13.0813C0.361043 11.8839 1.29335 10.8232 2.50091 10.8232H10.8138C11.3635 10.8232 11.889 11.0495 12.2668 11.4489L13.9309 13.2083C14.3086 13.6076 14.8341 13.8339 15.3839 13.8339H24.5934C25.8229 13.8339 26.7613 14.9328 26.5688 16.1472L24.9318 26.4705C24.7778 27.442 23.9401 28.1572 22.9565 28.1572H4.43175C3.32758 28.1572 2.33726 27.2707 2.2009 26.175ZM19.2483 8.19574C19.2483 8.83001 18.7341 9.34418 18.0998 9.34418C17.4656 9.34418 16.9514 8.83001 16.9514 8.19574C16.9514 7.56148 17.4656 7.0473 18.0998 7.0473C18.7341 7.0473 19.2483 7.56148 19.2483 8.19574Z" stroke="#7B7B7B" stroke-linecap="round" stroke-linejoin="round"/>
</svg>
