<svg width="15" height="15" viewBox="0 0 15 15" fill="none" xmlns="http://www.w3.org/2000/svg">
<path d="M4.0021 9.87661C3.72873 10.15 3.72873 10.5932 4.0021 10.8666C4.27546 11.1399 4.71868 11.1399 4.99204 10.8666L4.49707 10.3716L4.0021 9.87661ZM11.0716 4.49709C11.0716 4.11049 10.7582 3.79709 10.3716 3.79709L4.07156 3.79709C3.68496 3.79709 3.37156 4.11049 3.37156 4.49709C3.37156 4.88369 3.68496 5.19709 4.07156 5.19709L9.67156 5.19709V10.7971C9.67156 11.1837 9.98496 11.4971 10.3716 11.4971C10.7582 11.4971 11.0716 11.1837 11.0716 10.7971V4.49709ZM2.7002 0.699951V1.39995H12.1687V0.699951V-4.88162e-05H2.7002V0.699951ZM14.1687 2.69995H13.4687V12.1685H14.1687H14.8687V2.69995H14.1687ZM12.1687 14.1685V13.4685H2.70019V14.1685V14.8685H12.1687V14.1685ZM0.700195 12.1685H1.4002V2.69995H0.700195H0.000195324V12.1685H0.700195ZM2.70019 14.1685V13.4685C1.98223 13.4685 1.4002 12.8864 1.4002 12.1685H0.700195H0.000195324C0.000195324 13.6596 1.20903 14.8685 2.70019 14.8685V14.1685ZM14.1687 12.1685H13.4687C13.4687 12.8864 12.8867 13.4685 12.1687 13.4685V14.1685V14.8685C13.6599 14.8685 14.8687 13.6596 14.8687 12.1685H14.1687ZM12.1687 0.699951V1.39995C12.8867 1.39995 13.4687 1.98198 13.4687 2.69995H14.1687H14.8687C14.8687 1.20878 13.6599 -4.88162e-05 12.1687 -4.88162e-05V0.699951ZM2.7002 0.699951V-4.88162e-05C1.20903 -4.88162e-05 0.000195324 1.20878 0.000195324 2.69995H0.700195H1.4002C1.4002 1.98198 1.98223 1.39995 2.7002 1.39995V0.699951ZM4.49707 10.3716L4.99204 10.8666L10.8665 4.99206L10.3716 4.49709L9.87659 4.00211L4.0021 9.87661L4.49707 10.3716Z" fill="#C2C2C2"/>
</svg>
