<svg width="78" height="78" viewBox="0 0 78 78" fill="none" xmlns="http://www.w3.org/2000/svg">
<path d="M70.5789 16.4272C82.9652 33.9481 78.8027 58.1927 61.2818 70.5789C43.7609 82.9652 19.5163 78.8027 7.13006 61.2818C-5.25621 43.7609 -1.09375 19.5163 16.4272 7.13006C33.9481 -5.25621 58.1927 -1.09375 70.5789 16.4272Z" fill="#0093D2"/>
<path d="M11.0585 58.4401C21.8755 73.7411 43.0483 77.3762 58.3493 66.5592C68.5091 59.3769 73.5255 47.6287 72.5829 36.0653C46.1349 55.3486 35.2308 15.9667 5.01367 42.3937C5.59538 47.99 7.57944 53.5187 11.0585 58.4401Z" fill="#34B2E8"/>
<path d="M61.9657 31.0773C60.3591 31.0388 58.9293 30.3931 57.6763 29.1401C56.4233 27.8871 55.7776 26.4573 55.7392 24.8507C55.7084 23.2364 56.2888 21.8335 57.4803 20.642C58.6718 19.4505 60.0709 18.874 61.6775 18.9125C63.2917 18.9432 64.7254 19.5851 65.9784 20.8381C67.2314 22.0911 67.8771 23.5209 67.9155 25.1275C67.954 26.7341 67.3736 28.1369 66.1744 29.3361C64.9752 30.5353 63.5723 31.1157 61.9657 31.0773ZM57.757 25.0006C57.7647 26.0691 58.176 27.0108 58.9908 27.8256C59.8057 28.6405 60.7473 29.0517 61.8158 29.0594C62.892 29.0594 63.8414 28.6481 64.6639 27.8256C65.4864 27.0031 65.8938 26.0576 65.8861 24.9891C65.8861 23.9129 65.4787 22.9674 64.6639 22.1526C63.8491 21.3377 62.9035 20.9303 61.8274 20.9303C60.7589 20.9226 59.8133 21.33 58.9908 22.1526C58.1683 22.9751 57.757 23.9244 57.757 25.0006Z" fill="white"/>
<path d="M55.7072 14.4221L57.5731 15.3934L52.3024 25.5184L50.7547 24.7127L48.7405 14.9502L45.1715 21.8063L43.3056 20.835L48.5763 10.71L50.124 11.5157L52.1382 21.2782L55.7072 14.4221Z" fill="white"/>
<path d="M38.8464 20.512L40.3877 9.20178L42.4881 9.48801L40.9469 20.7982L38.8464 20.512Z" fill="white"/>
<path d="M32.7709 21.4107L31.472 11.8778L27.7235 12.3886L27.4813 10.6112L37.0788 9.30356L37.321 11.0809L33.5725 11.5916L34.8713 21.1245L32.7709 21.4107Z" fill="white"/>
<path d="M27.9737 23.2738L22.7028 13.1489L24.5832 12.17L29.854 22.2949L27.9737 23.2738Z" fill="white"/>
<path d="M26.6957 23.6842L25.2774 25.1024L19.9157 19.7637L21.6914 26.8435L21.0226 27.5123L14.012 25.8058L19.293 31.0868L17.8632 32.5166L9.79179 24.4452L11.0256 23.2114L19.5813 25.3561L17.3789 16.858L18.6127 15.6242L26.6957 23.6842Z" fill="white"/>
<path d="M58.5689 55.7534V45.8804H54.6867V44.0397H64.6266V45.8804H60.7443V55.7534H58.5689Z" fill="white"/>
<path d="M50.8954 44.0397H53.054V55.7534H51.2635L44.8043 47.8216V55.7534H42.6456V44.0397H44.4361L50.8954 51.9715V44.0397Z" fill="white"/>
<path d="M37.3017 55.7534V44.0397H39.4771V55.7534H37.3017Z" fill="white"/>
<path d="M35.0683 55.7534H32.7256L30.3326 52.323C30.2322 52.3341 30.0816 52.3397 29.8808 52.3397H27.2368V55.7534H25.0614V44.0397H29.8808C31.4203 44.0397 32.6363 44.4134 33.5288 45.1609C34.4212 45.8972 34.8675 46.9123 34.8675 48.2064C34.8675 49.0877 34.6499 49.8463 34.2149 50.4822C33.7909 51.1181 33.1774 51.5922 32.3741 51.9046L35.0683 55.7534ZM31.9391 49.9468C32.4299 49.534 32.6754 48.9539 32.6754 48.2064C32.6754 47.459 32.4299 46.8845 31.9391 46.4828C31.4482 46.0812 30.7286 45.8804 29.7804 45.8804H27.2368V50.5492H29.7804C30.7286 50.5492 31.4482 50.3484 31.9391 49.9468Z" fill="white"/>
<path d="M17.9022 44.0397C19.4417 44.0397 20.6577 44.4134 21.5502 45.1609C22.4426 45.8972 22.8889 46.9123 22.8889 48.2064C22.8889 49.4894 22.4426 50.5045 21.5502 51.252C20.6577 51.9994 19.4417 52.3732 17.9022 52.3732H15.2582V55.7534H13.0828V44.0397H17.9022ZM17.8018 50.5324C18.75 50.5324 19.4696 50.3316 19.9604 49.93C20.4513 49.5284 20.6967 48.9539 20.6967 48.2064C20.6967 47.459 20.4513 46.8845 19.9604 46.4828C19.4696 46.0812 18.75 45.8804 17.8018 45.8804H15.2582V50.5324H17.8018Z" fill="white"/>
</svg>
