<svg width="30" height="30" viewBox="0 0 30 30" fill="none" xmlns="http://www.w3.org/2000/svg">
<path fill-rule="evenodd" clip-rule="evenodd" d="M15.0612 29.2774C12.1672 29.2774 10.8223 28.8549 8.48468 27.165C7.00601 29.0661 2.32362 30.5518 2.1194 28.0099C2.1194 26.1018 1.69693 24.4894 1.21812 22.729C0.647797 20.5603 0 18.1452 0 14.6457C0 6.2878 6.85816 0 14.9837 0C23.1163 0 29.4886 6.59762 29.4886 14.7232C29.5159 22.7231 23.061 29.2347 15.0612 29.2774ZM15.1809 7.22427C11.2237 7.02009 8.13964 9.75913 7.45665 14.0543C6.89335 17.6101 7.89321 21.9404 8.74519 22.1657C9.15358 22.2643 10.1816 21.4334 10.8223 20.7927C11.8819 21.5247 13.1157 21.9642 14.3993 22.0672C18.4996 22.2644 22.0031 19.1429 22.2784 15.0471C22.4387 10.9426 19.2817 7.46622 15.1809 7.23133V7.22427Z" fill="#6BA0E5"/>
</svg>
