<svg width="20" height="15" viewBox="0 0 20 15" fill="none" xmlns="http://www.w3.org/2000/svg">
<path d="M4.06845 13.2676L4.41845 12.6614L4.06845 13.2676ZM1.60354 4.06845L2.20976 4.41845L1.60354 4.06845ZM13.8738 11.1527C14.0671 10.8179 13.9524 10.3898 13.6176 10.1965C13.2828 10.0032 12.8547 10.1179 12.6614 10.4527L13.2676 10.8027L13.8738 11.1527ZM10.4527 2.20976C10.7875 2.40306 11.2156 2.28834 11.4089 1.95354C11.6022 1.61873 11.4875 1.19062 11.1527 0.997321L10.8027 1.60354L10.4527 2.20976ZM14.6648 3.66454C14.3914 3.39117 13.9482 3.39117 13.6748 3.66454L9.22008 8.11931C8.94671 8.39268 8.94671 8.8359 9.22008 9.10926C9.49344 9.38263 9.93666 9.38263 10.21 9.10926L14.1698 5.14947L18.1296 9.10926C18.403 9.38263 18.8462 9.38263 19.1196 9.10926C19.3929 8.8359 19.3929 8.39268 19.1196 8.11931L14.6648 3.66454ZM7.43557 14.1699V13.4699C4.10294 13.4699 1.40132 10.7683 1.40132 7.43563H0.701317H0.00131685C0.00131685 11.5415 3.32975 14.8699 7.43557 14.8699V14.1699ZM14.1698 7.43563H13.4698C13.4698 10.7683 10.7682 13.4699 7.43557 13.4699V14.1699V14.8699C11.5414 14.8699 14.8698 11.5415 14.8698 7.43563H14.1698ZM7.43557 0.701378V0.00137794C3.32975 0.00137794 0.00131685 3.32981 0.00131685 7.43563H0.701317H1.40132C1.40132 4.103 4.10294 1.40138 7.43557 1.40138V0.701378ZM4.06845 13.2676L4.41845 12.6614C1.53231 10.9951 0.543443 7.30458 2.20976 4.41845L1.60354 4.06845L0.997321 3.71845C-1.05559 7.27419 0.162698 11.8209 3.71845 13.8738L4.06845 13.2676ZM13.2676 10.8027L12.6614 10.4527C10.9951 13.3388 7.30458 14.3277 4.41845 12.6614L4.06845 13.2676L3.71845 13.8738C7.27419 15.9267 11.8209 14.7084 13.8738 11.1527L13.2676 10.8027ZM10.8027 1.60354L11.1527 0.997321C7.59695 -1.05559 3.05023 0.162698 0.997321 3.71845L1.60354 4.06845L2.20976 4.41845C3.87607 1.53231 7.56656 0.543443 10.4527 2.20976L10.8027 1.60354ZM14.1698 7.43563H14.8698V4.15952H14.1698H13.4698V7.43563H14.1698Z" fill="#C2C2C2"/>
</svg>
