<svg width="36" height="30" viewBox="0 0 36 30" fill="none" xmlns="http://www.w3.org/2000/svg">
<path d="M12.9575 27.4769L13.7217 19.8802C13.7502 19.5972 13.8792 19.3338 14.0854 19.1379L28.1253 5.79332C28.3337 5.59526 28.0769 5.26633 27.8342 5.42041L9.61016 16.9894C9.30664 17.1821 8.93221 17.227 8.59173 17.1116L0.80678 14.4722C-0.250249 14.1139 -0.274821 12.6278 0.769782 12.2347L32.9897 0.109257C34.2205 -0.353934 35.4767 0.726661 35.2028 2.01288L29.6985 27.8546C29.409 29.214 27.8063 29.8134 26.6957 28.9777L18.9592 23.156C18.8661 23.0859 18.7359 23.0937 18.6518 23.1744L13.7595 27.8675C13.4405 28.1734 12.9132 27.9166 12.9575 27.4769Z" fill="#6BA0E5"/>
</svg>
