<svg width="24" height="24" viewBox="0 0 24 24" fill="none" xmlns="http://www.w3.org/2000/svg">
<path d="M0.599609 7.22294V22.1677C0.599609 22.795 1.10814 23.3036 1.73545 23.3036H21.6789C22.3062 23.3036 22.8148 22.795 22.8148 22.1677V7.22294M0.599609 7.22294V2.65586C0.599609 2.02855 1.10814 1.52001 1.73545 1.52001H21.6789C22.3062 1.52001 22.8148 2.02855 22.8148 2.65586V7.22294M0.599609 7.22294H22.8148M4.31772 0.600098V4.33138M14.1704 0.600098V4.33138M19.0966 0.600098V4.33138M9.24415 0.600098V4.33138M6.3831 12.4378L8.11105 10.7098C8.34957 10.4713 8.75739 10.6403 8.75739 10.9776V18.69M16.0501 16.5204V11.1161C16.0501 10.7484 15.5788 10.5965 15.3641 10.895L11.7498 15.9208C11.5697 16.1712 11.7487 16.5204 12.0572 16.5204H16.0501ZM16.0501 16.5204V18.5676M16.0501 16.5204H17.559M6.33189 18.69H11.1827M5.32249 4.45113C5.32249 5.00605 4.87264 5.4559 4.31772 5.4559C3.7628 5.4559 3.31295 5.00605 3.31295 4.45113C3.31295 3.89621 3.7628 3.44636 4.31772 3.44636C4.87264 3.44636 5.32249 3.89621 5.32249 4.45113ZM15.1752 4.45113C15.1752 5.00605 14.7253 5.4559 14.1704 5.4559C13.6155 5.4559 13.1656 5.00605 13.1656 4.45113C13.1656 3.89621 13.6155 3.44636 14.1704 3.44636C14.7253 3.44636 15.1752 3.89621 15.1752 4.45113ZM20.1014 4.45113C20.1014 5.00605 19.6516 5.4559 19.0966 5.4559C18.5417 5.4559 18.0919 5.00605 18.0919 4.45113C18.0919 3.89621 18.5417 3.44636 19.0966 3.44636C19.6516 3.44636 20.1014 3.89621 20.1014 4.45113ZM10.2489 4.45113C10.2489 5.00605 9.79907 5.4559 9.24415 5.4559C8.68923 5.4559 8.23938 5.00605 8.23938 4.45113C8.23938 3.89621 8.68923 3.44636 9.24415 3.44636C9.79907 3.44636 10.2489 3.89621 10.2489 4.45113Z" stroke="#C2C2C2" stroke-width="1.2" stroke-linecap="round"/>
</svg>
