<svg width="123" height="45" viewBox="0 0 123 45" fill="none" xmlns="http://www.w3.org/2000/svg">
<path d="M101.791 39.3413V30.8613H103.327V34.4613H108.159V30.8613H109.695V39.3413H108.159V35.7893H103.327V39.3413H101.791Z" fill="#45AA82"/>
<path d="M90.6816 39.3413V30.8613H92.2176V37.0373L97.4176 30.8613H98.8096V39.3413H97.2736V33.1653L92.0896 39.3413H90.6816ZM94.6496 29.7573C93.871 29.7573 93.2576 29.5706 92.8096 29.1973C92.3723 28.8133 92.1483 28.264 92.1376 27.5493H93.1776C93.1883 27.9546 93.3216 28.2746 93.5776 28.5093C93.8443 28.744 94.1963 28.8613 94.6336 28.8613C95.071 28.8613 95.423 28.744 95.6896 28.5093C95.9563 28.2746 96.095 27.9546 96.1056 27.5493H97.1776C97.167 28.264 96.9376 28.8133 96.4896 29.1973C96.0416 29.5706 95.4283 29.7573 94.6496 29.7573Z" fill="#45AA82"/>
<path d="M86.4591 39.3413V37.5493L86.3791 37.2132V34.1572C86.3791 33.5066 86.1871 33.0053 85.8031 32.6533C85.4297 32.2906 84.8644 32.1093 84.1071 32.1093C83.6057 32.1093 83.1151 32.1946 82.6351 32.3652C82.1551 32.5252 81.7497 32.7439 81.4191 33.0213L80.7791 31.8693C81.2164 31.5173 81.7391 31.2506 82.3471 31.0693C82.9657 30.8773 83.6111 30.7812 84.2831 30.7812C85.4457 30.7812 86.3417 31.0639 86.9711 31.6293C87.6004 32.1946 87.9151 33.0586 87.9151 34.2213V39.3413H86.4591ZM83.6751 39.4373C83.0457 39.4373 82.4911 39.3306 82.0111 39.1172C81.5417 38.9039 81.1791 38.6106 80.9231 38.2373C80.6671 37.8533 80.5391 37.4213 80.5391 36.9413C80.5391 36.4826 80.6457 36.0666 80.8591 35.6933C81.0831 35.3199 81.4404 35.0212 81.9311 34.7972C82.4324 34.5732 83.1044 34.4613 83.9471 34.4613H86.6351V35.5653H84.0111C83.2431 35.5653 82.7257 35.6932 82.4591 35.9492C82.1924 36.2052 82.0591 36.5146 82.0591 36.8773C82.0591 37.2933 82.2244 37.6293 82.5551 37.8853C82.8857 38.1306 83.3444 38.2533 83.9311 38.2533C84.5071 38.2533 85.0084 38.1253 85.4351 37.8693C85.8724 37.6133 86.1871 37.2399 86.3791 36.7493L86.6831 37.8053C86.4804 38.3066 86.1231 38.7066 85.6111 39.0052C85.0991 39.2932 84.4537 39.4373 83.6751 39.4373Z" fill="#45AA82"/>
<path d="M75.0366 39.4533C74.3966 39.4533 73.7673 39.3733 73.1486 39.2133C72.5406 39.0426 71.9966 38.8026 71.5166 38.4933L71.9806 37.3253C72.3859 37.5813 72.8499 37.784 73.3726 37.9333C73.8953 38.072 74.4233 38.1413 74.9566 38.1413C75.4473 38.1413 75.8686 38.0826 76.2206 37.9653C76.5833 37.848 76.8606 37.688 77.0526 37.4853C77.2446 37.272 77.3406 37.0266 77.3406 36.7493C77.3406 36.3546 77.1646 36.0506 76.8126 35.8373C76.4606 35.624 75.9699 35.5173 75.3406 35.5173H73.5166V34.4133H75.2446C75.6179 34.4133 75.9433 34.3706 76.2206 34.2853C76.4979 34.2 76.7113 34.072 76.8606 33.9013C77.0206 33.72 77.1006 33.512 77.1006 33.2773C77.1006 33.0213 77.0099 32.8026 76.8286 32.6213C76.6473 32.44 76.3913 32.3013 76.0606 32.2053C75.7406 32.1093 75.3619 32.0613 74.9246 32.0613C74.4979 32.072 74.0606 32.1306 73.6126 32.2373C73.1753 32.344 72.7273 32.5093 72.2686 32.7333L71.8526 31.5333C72.3646 31.288 72.8659 31.1013 73.3566 30.9733C73.8579 30.8346 74.3539 30.76 74.8446 30.7493C75.5806 30.728 76.2366 30.8133 76.8126 31.0053C77.3886 31.1866 77.8419 31.4533 78.1726 31.8053C78.5139 32.1573 78.6846 32.5733 78.6846 33.0533C78.6846 33.4586 78.5566 33.8213 78.3006 34.1413C78.0446 34.4506 77.7033 34.696 77.2766 34.8773C76.8499 35.0586 76.3593 35.1493 75.8046 35.1493L75.8686 34.7813C76.8179 34.7813 77.5646 34.968 78.1086 35.3413C78.6526 35.7146 78.9246 36.2213 78.9246 36.8613C78.9246 37.3733 78.7539 37.8266 78.4126 38.2213C78.0713 38.6053 77.6073 38.9093 77.0206 39.1333C76.4446 39.3466 75.7833 39.4533 75.0366 39.4533Z" fill="#45AA82"/>
<path d="M61.4473 39.3413V30.8613H62.9833V37.0373L68.1833 30.8613H69.5753V39.3413H68.0393V33.1653L62.8553 39.3413H61.4473Z" fill="#45AA82"/>
<path d="M51.3179 38.2693L49.7979 37.9973C50.1286 38.008 50.3952 37.9013 50.5979 37.6773C50.8006 37.4427 50.9552 37.1227 51.0619 36.7173C51.1792 36.312 51.2646 35.8533 51.3179 35.3413C51.3712 34.8187 51.4139 34.28 51.4459 33.7253L51.5739 30.8613H58.1499V38.6213H56.6139V32.2053H52.9339L52.8539 33.8373C52.8326 34.3707 52.7952 34.888 52.7419 35.3893C52.6992 35.88 52.6246 36.3333 52.5179 36.7493C52.4219 37.1653 52.2779 37.5067 52.0859 37.7733C51.8939 38.04 51.6379 38.2053 51.3179 38.2693ZM49.4619 41.3093V37.9973H59.4459V41.3093H58.0059V39.3413H50.9179V41.3093H49.4619Z" fill="#45AA82"/>
<path d="M118.893 22.3573L115.213 22.3413V13.8613H116.749V16.7253L119.133 16.7413C120.21 16.752 121.032 16.9973 121.597 17.4773C122.162 17.9573 122.445 18.6347 122.445 19.5093C122.445 20.4267 122.136 21.136 121.517 21.6373C120.898 22.128 120.024 22.368 118.893 22.3573ZM118.765 21.1893C119.458 21.2 119.981 21.0613 120.333 20.7733C120.696 20.4853 120.877 20.0587 120.877 19.4933C120.877 18.9387 120.701 18.5333 120.349 18.2773C119.997 18.0213 119.469 17.888 118.765 17.8773L116.749 17.8453V21.1733L118.765 21.1893Z" fill="#45AA82"/>
<path d="M109.002 22.3413V14.8053L109.386 15.2053H105.898V13.8613H113.642V15.2053H110.17L110.538 14.8053V22.3413H109.002Z" fill="#45AA82"/>
<path d="M103.1 22.3413V20.5493L103.02 20.2132V17.1572C103.02 16.5066 102.828 16.0052 102.444 15.6532C102.07 15.2906 101.505 15.1093 100.748 15.1093C100.246 15.1093 99.7557 15.1946 99.2757 15.3652C98.7957 15.5252 98.3904 15.7439 98.0597 16.0212L97.4197 14.8693C97.857 14.5173 98.3797 14.2506 98.9877 14.0693C99.6064 13.8773 100.252 13.7812 100.924 13.7812C102.086 13.7812 102.982 14.0639 103.612 14.6292C104.241 15.1946 104.556 16.0586 104.556 17.2212V22.3413H103.1ZM100.316 22.4373C99.6864 22.4373 99.1317 22.3306 98.6517 22.1173C98.1824 21.9039 97.8197 21.6106 97.5637 21.2373C97.3077 20.8533 97.1797 20.4212 97.1797 19.9412C97.1797 19.4826 97.2864 19.0666 97.4997 18.6932C97.7237 18.3199 98.081 18.0212 98.5717 17.7972C99.073 17.5732 99.745 17.4613 100.588 17.4613H103.276V18.5653H100.652C99.8837 18.5653 99.3664 18.6932 99.0997 18.9492C98.833 19.2052 98.6997 19.5146 98.6997 19.8773C98.6997 20.2933 98.865 20.6293 99.1957 20.8853C99.5264 21.1306 99.985 21.2533 100.572 21.2533C101.148 21.2533 101.649 21.1253 102.076 20.8693C102.513 20.6133 102.828 20.2399 103.02 19.7493L103.324 20.8053C103.121 21.3066 102.764 21.7066 102.252 22.0052C101.74 22.2932 101.094 22.4373 100.316 22.4373Z" fill="#45AA82"/>
<path d="M91.6772 22.4533C91.0372 22.4533 90.4079 22.3733 89.7892 22.2133C89.1812 22.0426 88.6372 21.8026 88.1572 21.4933L88.6212 20.3253C89.0266 20.5813 89.4906 20.784 90.0132 20.9333C90.5359 21.072 91.0639 21.1413 91.5972 21.1413C92.0879 21.1413 92.5092 21.0826 92.8612 20.9653C93.2239 20.848 93.5012 20.688 93.6932 20.4853C93.8852 20.272 93.9812 20.0266 93.9812 19.7493C93.9812 19.3546 93.8052 19.0506 93.4532 18.8373C93.1012 18.624 92.6106 18.5173 91.9812 18.5173H90.1572V17.4133H91.8852C92.2586 17.4133 92.5839 17.3706 92.8612 17.2853C93.1386 17.2 93.3519 17.072 93.5012 16.9013C93.6612 16.72 93.7412 16.512 93.7412 16.2773C93.7412 16.0213 93.6506 15.8026 93.4692 15.6213C93.2879 15.44 93.0319 15.3013 92.7012 15.2053C92.3812 15.1093 92.0026 15.0613 91.5652 15.0613C91.1386 15.072 90.7012 15.1306 90.2532 15.2373C89.8159 15.344 89.3679 15.5093 88.9092 15.7333L88.4932 14.5333C89.0052 14.288 89.5066 14.1013 89.9972 13.9733C90.4986 13.8346 90.9946 13.76 91.4852 13.7493C92.2212 13.728 92.8772 13.8133 93.4532 14.0053C94.0292 14.1866 94.4826 14.4533 94.8132 14.8053C95.1546 15.1573 95.3252 15.5733 95.3252 16.0533C95.3252 16.4586 95.1972 16.8213 94.9412 17.1413C94.6852 17.4506 94.3439 17.696 93.9172 17.8773C93.4906 18.0586 92.9999 18.1493 92.4452 18.1493L92.5092 17.7813C93.4586 17.7813 94.2052 17.968 94.7492 18.3413C95.2932 18.7146 95.5652 19.2213 95.5652 19.8613C95.5652 20.3733 95.3946 20.8266 95.0532 21.2213C94.7119 21.6053 94.2479 21.9093 93.6612 22.1333C93.0852 22.3466 92.4239 22.4533 91.6772 22.4533Z" fill="#45AA82"/>
<path d="M84.9747 22.3413V20.5493L84.8947 20.2132V17.1572C84.8947 16.5066 84.7027 16.0052 84.3187 15.6532C83.9454 15.2906 83.38 15.1093 82.6227 15.1093C82.1214 15.1093 81.6307 15.1946 81.1507 15.3652C80.6707 15.5252 80.2654 15.7439 79.9347 16.0212L79.2947 14.8693C79.732 14.5173 80.2547 14.2506 80.8627 14.0693C81.4814 13.8773 82.1267 13.7812 82.7987 13.7812C83.9614 13.7812 84.8574 14.0639 85.4867 14.6292C86.116 15.1946 86.4307 16.0586 86.4307 17.2212V22.3413H84.9747ZM82.1907 22.4373C81.5614 22.4373 81.0067 22.3306 80.5267 22.1173C80.0574 21.9039 79.6947 21.6106 79.4387 21.2373C79.1827 20.8533 79.0547 20.4212 79.0547 19.9412C79.0547 19.4826 79.1614 19.0666 79.3747 18.6932C79.5987 18.3199 79.956 18.0212 80.4467 17.7972C80.948 17.5732 81.62 17.4613 82.4627 17.4613H85.1507V18.5653H82.5267C81.7587 18.5653 81.2414 18.6932 80.9747 18.9492C80.708 19.2052 80.5747 19.5146 80.5747 19.8773C80.5747 20.2933 80.74 20.6293 81.0707 20.8853C81.4014 21.1306 81.86 21.2533 82.4467 21.2533C83.0227 21.2533 83.524 21.1253 83.9507 20.8693C84.388 20.6133 84.7027 20.2399 84.8947 19.7493L85.1987 20.8053C84.996 21.3066 84.6387 21.7066 84.1267 22.0052C83.6147 22.2932 82.9694 22.4373 82.1907 22.4373Z" fill="#45AA82"/>
<path d="M76.5131 22.3413L73.2331 18.2133L74.4971 17.4453L78.3211 22.3413H76.5131ZM70.3691 22.3413V13.8613H71.9051V22.3413H70.3691ZM71.4411 18.7573V17.4453H74.2411V18.7573H71.4411ZM74.6251 18.2773L73.2011 18.0853L76.4491 13.8613H78.0971L74.6251 18.2773Z" fill="#45AA82"/>
<path d="M66.1466 22.3413V20.5493L66.0666 20.2132V17.1572C66.0666 16.5066 65.8746 16.0052 65.4906 15.6532C65.1172 15.2906 64.5519 15.1093 63.7946 15.1093C63.2932 15.1093 62.8026 15.1946 62.3226 15.3652C61.8426 15.5252 61.4372 15.7439 61.1066 16.0212L60.4666 14.8693C60.9039 14.5173 61.4266 14.2506 62.0346 14.0693C62.6532 13.8773 63.2986 13.7812 63.9706 13.7812C65.1332 13.7812 66.0292 14.0639 66.6586 14.6292C67.2879 15.1946 67.6026 16.0586 67.6026 17.2212V22.3413H66.1466ZM63.3626 22.4373C62.7332 22.4373 62.1786 22.3306 61.6986 22.1173C61.2292 21.9039 60.8666 21.6106 60.6106 21.2373C60.3546 20.8533 60.2266 20.4212 60.2266 19.9412C60.2266 19.4826 60.3332 19.0666 60.5466 18.6932C60.7706 18.3199 61.1279 18.0212 61.6186 17.7972C62.1199 17.5732 62.7919 17.4613 63.6346 17.4613H66.3226V18.5653H63.6986C62.9306 18.5653 62.4132 18.6932 62.1466 18.9492C61.8799 19.2052 61.7466 19.5146 61.7466 19.8773C61.7466 20.2933 61.9119 20.6293 62.2426 20.8853C62.5732 21.1306 63.0319 21.2533 63.6186 21.2533C64.1946 21.2533 64.6959 21.1253 65.1226 20.8693C65.5599 20.6133 65.8746 20.2399 66.0666 19.7493L66.3706 20.8053C66.1679 21.3066 65.8106 21.7066 65.2986 22.0052C64.7866 22.2932 64.1412 22.4373 63.3626 22.4373Z" fill="#45AA82"/>
<path d="M53.7496 22.4693C52.8323 22.4693 51.9896 22.3573 51.2216 22.1333C50.4643 21.8986 49.8403 21.5786 49.3496 21.1733L49.8936 19.9253C50.3416 20.2986 50.8963 20.5866 51.5576 20.7893C52.2296 20.992 52.9656 21.0933 53.7656 21.0933C54.8429 21.0933 55.6429 20.9173 56.1656 20.5653C56.6883 20.2026 56.9496 19.712 56.9496 19.0933C56.9496 18.6666 56.8376 18.3146 56.6136 18.0373C56.3896 17.7493 56.0749 17.5413 55.6696 17.4133C55.2749 17.2746 54.8056 17.2053 54.2616 17.2053H51.6216V15.9093H54.1816C54.9069 15.9093 55.4669 15.776 55.8616 15.5093C56.2669 15.232 56.4696 14.8213 56.4696 14.2773C56.4696 13.8293 56.3469 13.472 56.1016 13.2053C55.8563 12.928 55.5309 12.7253 55.1256 12.5973C54.7309 12.4693 54.2936 12.4053 53.8136 12.4053C53.4296 12.4053 53.0296 12.4426 52.6136 12.5173C52.2083 12.592 51.8136 12.6986 51.4296 12.8373C51.0456 12.9653 50.6883 13.1146 50.3576 13.2853L49.8936 12.0053C50.4696 11.6853 51.0936 11.4453 51.7656 11.2853C52.4483 11.1146 53.1256 11.0293 53.7976 11.0293C54.3629 11.0293 54.9016 11.0933 55.4136 11.2213C55.9256 11.3386 56.3789 11.52 56.7736 11.7653C57.1789 12.0106 57.4936 12.3253 57.7176 12.7093C57.9523 13.0933 58.0696 13.5413 58.0696 14.0533C58.0696 14.5653 57.9523 15.0293 57.7176 15.4453C57.4936 15.8613 57.1683 16.192 56.7416 16.4373C56.3149 16.6826 55.8189 16.8053 55.2536 16.8053L55.3336 16.3413C55.9096 16.3413 56.4429 16.4533 56.9336 16.6773C57.4243 16.9013 57.8136 17.2266 58.1016 17.6533C58.4003 18.0693 58.5496 18.5813 58.5496 19.1893C58.5496 19.8186 58.3629 20.384 57.9896 20.8853C57.6269 21.376 57.0883 21.7653 56.3736 22.0533C55.6696 22.3306 54.7949 22.4693 53.7496 22.4693Z" fill="#45AA82"/>
<path d="M21.918 3.35352C21.918 2.05387 20.864 1.00026 19.5645 1C18.2646 1 17.2109 2.05371 17.2109 3.35352V7.95898H21.918V3.35352ZM6.7959 38.5928C8.30584 40.0241 10.0554 41.2043 11.9785 42.0664C12.1406 42.1389 12.3032 42.2097 12.4668 42.2773C14.0007 42.9111 15.6026 43.3302 17.2266 43.5352C17.3635 43.5524 17.5008 43.5688 17.6387 43.583C17.6614 43.5854 17.6843 43.5866 17.707 43.5889C17.833 43.6014 17.9592 43.6131 18.0859 43.623C18.0918 43.6235 18.0976 43.6245 18.1035 43.625C18.4216 43.6497 18.742 43.6663 19.0645 43.6748V36.6504C19.0095 36.648 18.9544 36.6477 18.8994 36.6445C18.7928 36.6385 18.6869 36.6281 18.5811 36.6191C18.5042 36.6126 18.4273 36.6077 18.3506 36.5996C17.8022 36.5423 17.2652 36.4468 16.7422 36.3154C16.7376 36.3143 16.7331 36.3127 16.7285 36.3115C16.1872 36.1748 15.6604 36.0012 15.1523 35.791C15.0466 35.7473 14.943 35.6991 14.8389 35.6523C14.7716 35.6222 14.7035 35.594 14.6367 35.5625C14.5838 35.5375 14.532 35.5102 14.4795 35.4844C14.1918 35.3433 13.9083 35.1909 13.6309 35.0244C13.6088 35.0112 13.5874 34.9968 13.5654 34.9834C13.1095 34.7057 12.6679 34.3953 12.2461 34.0488C12.1541 33.9734 12.0651 33.8946 11.9756 33.8164C11.904 33.7539 11.8321 33.6915 11.7617 33.627L6.7959 38.5928ZM27.3477 33.6436C27.304 33.6834 27.2599 33.7226 27.2158 33.7617C27.1303 33.8375 27.0438 33.9121 26.9561 33.9854C26.9041 34.0287 26.8523 34.0719 26.7998 34.1143C26.6994 34.1952 26.5973 34.274 26.4941 34.3516C26.4257 34.4031 26.3564 34.4531 26.2871 34.5029C26.2066 34.5607 26.1259 34.6181 26.0439 34.6738C25.9723 34.7225 25.8997 34.7695 25.8271 34.8164C25.7451 34.8695 25.6625 34.9216 25.5791 34.9727C25.5271 35.0045 25.4753 35.0365 25.4229 35.0674C25.2847 35.1489 25.1447 35.2278 25.0029 35.3037C24.9612 35.326 24.9189 35.3474 24.877 35.3691C24.7653 35.4271 24.6528 35.4837 24.5391 35.5381C24.492 35.5606 24.4448 35.5827 24.3975 35.6045C24.285 35.6564 24.1711 35.7055 24.0566 35.7539C24.0123 35.7726 23.9684 35.7924 23.9238 35.8105C23.7666 35.8747 23.6079 35.9358 23.4473 35.9932C23.4372 35.9968 23.4271 36.0003 23.417 36.0039C23.2675 36.0568 23.1162 36.1055 22.9639 36.1523C22.9271 36.1636 22.8903 36.1746 22.8535 36.1855C22.7018 36.2306 22.5488 36.2726 22.3945 36.3115C22.3896 36.3128 22.3848 36.3142 22.3799 36.3154C22.0376 36.4012 21.6896 36.4719 21.3359 36.5264C21.305 36.5311 21.2741 36.5355 21.2432 36.54C21.1043 36.5603 20.9647 36.5785 20.8242 36.5938C20.7858 36.5979 20.7474 36.6017 20.709 36.6055C20.569 36.6192 20.4285 36.6309 20.2871 36.6396C20.2549 36.6417 20.2227 36.6438 20.1904 36.6455C20.1485 36.6478 20.1065 36.6505 20.0645 36.6523V43.6748C20.2317 43.6704 20.3984 43.6641 20.5645 43.6553C20.5733 43.6548 20.582 43.6538 20.5908 43.6533C20.7083 43.6469 20.8255 43.6385 20.9424 43.6299C22.4673 43.517 23.9806 43.2174 25.4453 42.7295C25.5375 42.6987 25.6292 42.6669 25.7207 42.6348C25.7686 42.618 25.8165 42.6012 25.8643 42.584C25.9531 42.5519 26.0417 42.5197 26.1299 42.4863C26.1905 42.4635 26.2511 42.4405 26.3115 42.417C26.3795 42.3905 26.4471 42.3632 26.5146 42.3359C26.595 42.3035 26.6749 42.2699 26.7549 42.2363C26.8172 42.2101 26.8795 42.1841 26.9414 42.1572C27.0105 42.1273 27.0796 42.0972 27.1484 42.0664C27.2119 42.038 27.2748 42.0086 27.3379 41.9795C27.4362 41.9342 27.5342 41.8879 27.6318 41.8408C29.3656 41.0028 30.9486 39.9031 32.3311 38.5928L27.3662 33.6279C27.3603 33.6334 27.3536 33.6381 27.3477 33.6436ZM1.00781 25.6182C1.068 27.8685 1.53381 30.1096 2.40723 32.2217L2.58887 32.6445C3.39615 34.4626 4.487 36.1273 5.80566 37.582C5.89847 37.6843 5.99239 37.786 6.08789 37.8867L11.0547 32.9199C10.9126 32.765 10.7742 32.6068 10.6406 32.4443C10.5427 32.3254 10.4489 32.2039 10.3564 32.082C10.3346 32.0532 10.3116 32.0252 10.29 31.9961C9.71619 31.2242 9.25002 30.3973 8.89355 29.5352C8.75047 29.1898 8.62422 28.8358 8.51465 28.4746C8.49779 28.4189 8.48377 28.3625 8.46777 28.3066C8.22514 27.4606 8.07366 26.576 8.03125 25.6631C8.03055 25.6481 8.03092 25.6331 8.03027 25.6182H1.00781ZM31.0977 25.6182C31.089 25.8202 31.0759 26.0221 31.0566 26.2236C30.9462 27.3861 30.6641 28.4992 30.2344 29.5361L30.0654 29.9219C30.0569 29.9404 30.0467 29.9581 30.0381 29.9766C30.0085 30.0403 29.9781 30.1037 29.9473 30.167C29.9101 30.2432 29.8727 30.3192 29.834 30.3945C29.7953 30.4697 29.7562 30.5447 29.7158 30.6191C29.6748 30.6946 29.6325 30.7693 29.5898 30.8438C29.5292 30.9498 29.4666 31.0547 29.4023 31.1592C29.3438 31.2543 29.2848 31.3491 29.2236 31.4424C29.1844 31.5023 29.143 31.5608 29.1025 31.6201C29.0498 31.6974 28.996 31.7737 28.9414 31.8496C28.9002 31.9069 28.8598 31.9648 28.8174 32.0215C28.7191 32.153 28.6193 32.2831 28.5156 32.4102C28.5013 32.4277 28.4861 32.4445 28.4717 32.4619C28.3733 32.5811 28.2719 32.6974 28.1689 32.8125C28.1404 32.8444 28.112 32.8765 28.083 32.9082C28.0794 32.9121 28.0758 32.916 28.0723 32.9199L33.0391 37.8867C33.1344 37.7862 33.2276 37.6841 33.3203 37.582C34.7414 36.0145 35.8994 34.2041 36.7217 32.2197C37.5946 30.1082 38.0609 27.8678 38.1211 25.6182H31.0977ZM20.0156 26.5225C19.868 26.5424 19.7175 26.5547 19.5645 26.5547C19.4112 26.5547 19.2601 26.5424 19.1123 26.5225V28.2324C19.1125 28.4818 19.3141 28.6843 19.5635 28.6846C19.813 28.6846 20.0154 28.4819 20.0156 28.2324V26.5225ZM28.0732 17.3154C29.9765 19.3879 30.9832 21.9879 31.0967 24.6182H38.1211C38.0608 22.3664 37.5933 20.124 36.7188 18.0107C35.8428 15.8993 34.587 13.9846 33.0381 12.3506L28.0732 17.3154ZM6.08887 12.3506C5.96322 12.4831 5.83974 12.6167 5.71875 12.752C4.83665 13.7388 4.0583 14.8203 3.40137 15.9795C3.34372 16.0813 3.28702 16.1835 3.23145 16.2861C3.07672 16.5716 2.92998 16.862 2.79004 17.1562C2.74384 17.2536 2.6987 17.3513 2.6543 17.4492C2.63231 17.4976 2.61045 17.5461 2.58887 17.5947C2.5559 17.6691 2.52315 17.7436 2.49121 17.8184C2.45471 17.9036 2.41905 17.9893 2.38379 18.0752C2.36021 18.1328 2.33646 18.1903 2.31348 18.248C2.28052 18.3307 2.24859 18.4138 2.2168 18.4971C2.19643 18.5505 2.17513 18.6036 2.15527 18.6572C2.12737 18.7324 2.10117 18.8082 2.07422 18.8838C2.04933 18.9538 2.02402 19.0235 2 19.0938C1.969 19.1841 1.93979 19.2752 1.91016 19.3662C1.48547 20.6732 1.20927 22.0178 1.08203 23.374C1.07132 23.489 1.06134 23.6042 1.05273 23.7197C1.04714 23.7942 1.04279 23.8688 1.03809 23.9434C1.0241 24.1673 1.01282 24.3922 1.00684 24.6182H8.03125C8.03204 24.6 8.03038 24.5817 8.03125 24.5635C8.03947 24.3899 8.05352 24.2174 8.06934 24.0459C8.07048 24.0336 8.07011 24.0211 8.07129 24.0088C8.08438 23.8715 8.10323 23.7354 8.12109 23.5996C8.12805 23.5469 8.13294 23.494 8.14062 23.4414C8.15951 23.3117 8.18192 23.183 8.20508 23.0547C8.21437 23.0033 8.22243 22.9517 8.23242 22.9004C8.2604 22.7567 8.29292 22.6144 8.32617 22.4727C8.33517 22.4343 8.34315 22.3957 8.35254 22.3574C8.38792 22.2133 8.42704 22.0706 8.46777 21.9287C8.47867 21.8907 8.4887 21.8524 8.5 21.8145C8.53308 21.7035 8.56918 21.5939 8.60547 21.4844C8.63164 21.4053 8.65664 21.3257 8.68457 21.2471C8.71154 21.1713 8.74103 21.0965 8.76953 21.0215C8.80653 20.9238 8.84405 20.8263 8.88379 20.7295C8.91633 20.6504 8.95111 20.5724 8.98535 20.4941C9.02614 20.4008 9.06697 20.3073 9.11035 20.2148C9.14227 20.1469 9.17579 20.0799 9.20898 20.0127C9.26075 19.9077 9.31302 19.8029 9.36816 19.6992C9.39736 19.6444 9.42796 19.5904 9.45801 19.5361C9.51695 19.4295 9.5761 19.3228 9.63867 19.2178C9.66508 19.1734 9.69274 19.1299 9.71973 19.0859C9.79175 18.9686 9.8648 18.8516 9.94141 18.7363C9.9607 18.7073 9.98143 18.6792 10.001 18.6504C10.0843 18.5275 10.1693 18.4054 10.2578 18.2852C10.2852 18.2479 10.314 18.2117 10.3418 18.1748C10.4232 18.067 10.5051 17.9591 10.5908 17.8535C10.6586 17.7699 10.7297 17.6891 10.7998 17.6074C10.8497 17.5494 10.897 17.4889 10.9482 17.4316C10.9831 17.3926 11.0203 17.3559 11.0557 17.3174L6.08887 12.3506ZM17.2109 17.0566H21.918V12.0889H17.2109V17.0566ZM16.2109 6.85645C12.6002 7.51501 9.35381 9.21901 6.7959 11.6436L11.7607 16.6084C11.8399 16.5358 11.9198 16.464 12.001 16.3936C12.0604 16.3419 12.1214 16.2924 12.1816 16.2422C12.214 16.2153 12.2457 16.1877 12.2783 16.1611C13.3203 15.3114 14.4764 14.6707 15.6904 14.2393C15.71 14.2323 15.7294 14.2246 15.749 14.2178C15.902 14.1643 16.0562 14.1152 16.2109 14.0684V12.0889H15.3877C14.2476 12.0887 13.3235 11.1645 13.3232 10.0244C13.3232 8.88412 14.2474 7.95915 15.3877 7.95898H16.2109V6.85645ZM21.918 18.0566H17.2109V23.2012C17.2109 24.501 18.2646 25.5547 19.5645 25.5547C20.864 25.5544 21.918 24.5008 21.918 23.2012V18.0566ZM22.918 23.2012C22.918 24.533 22.1405 25.6824 21.0156 26.2236V28.2324C21.0154 29.0342 20.3653 29.6846 19.5635 29.6846C18.7618 29.6843 18.1125 29.0341 18.1123 28.2324V26.2236C16.9874 25.6824 16.2109 24.533 16.2109 23.2012V15.1182C14.6749 15.6329 13.2958 16.4912 12.166 17.6035L12.0479 17.7217C11.9341 17.8372 11.8241 17.9559 11.7168 18.0752C11.5979 18.2076 11.4813 18.3422 11.3691 18.4805C11.313 18.5496 11.2602 18.6212 11.2061 18.6914C11.1569 18.7552 11.1063 18.8179 11.0586 18.8828C10.9968 18.9669 10.9389 19.0532 10.8799 19.1387C10.8444 19.1901 10.808 19.2409 10.7734 19.293C10.7121 19.3853 10.6528 19.4785 10.5947 19.5723C10.5603 19.6278 10.5256 19.6831 10.4922 19.7393C10.4435 19.8213 10.3969 19.9043 10.3506 19.9873C10.3123 20.056 10.2741 20.1247 10.2373 20.1943C10.1925 20.279 10.1497 20.3645 10.1074 20.4502C10.0768 20.5121 10.0461 20.5741 10.0166 20.6367C9.97425 20.727 9.93419 20.818 9.89453 20.9092C9.86495 20.977 9.83483 21.0447 9.80664 21.1133C9.78132 21.175 9.75847 21.2377 9.73438 21.2998C9.69419 21.4032 9.6532 21.5064 9.61621 21.6113C9.59916 21.6598 9.58468 21.7091 9.56836 21.7578C9.53277 21.8637 9.49713 21.9698 9.46484 22.0771C9.44305 22.1497 9.42352 22.2229 9.40332 22.2959C9.37637 22.3931 9.34941 22.4905 9.3252 22.5889C9.31195 22.6427 9.30048 22.697 9.28809 22.751C9.26274 22.8615 9.23767 22.9722 9.21582 23.084C9.20821 23.1229 9.20249 23.1622 9.19531 23.2012C9.17217 23.3272 9.14948 23.4535 9.13086 23.5811C9.12448 23.6246 9.12009 23.6683 9.11426 23.7119C9.09772 23.836 9.08152 23.9605 9.06934 24.0859C9.0606 24.1753 9.05529 24.2649 9.04883 24.3545C9.04325 24.4325 9.03513 24.5104 9.03125 24.5889C9.02256 24.7629 9.01867 24.9371 9.01855 25.1113V25.127C9.01869 25.3028 9.02261 25.4777 9.03125 25.6514C9.09126 26.8455 9.35384 28.031 9.81738 29.1523L10.0293 29.6299C10.4011 30.4142 10.867 31.1451 11.4121 31.8086C11.5927 32.0281 11.7852 32.2405 11.9863 32.4482C12.8664 33.3579 13.9067 34.1111 15.0645 34.6582C15.2199 34.7315 15.377 34.8019 15.5352 34.8672C15.6889 34.9308 15.8446 34.9904 16.002 35.0469C16.3259 35.1629 16.6545 35.2624 16.9863 35.3457C17.1435 35.3852 17.302 35.4208 17.4619 35.4531C17.4924 35.4593 17.5232 35.4638 17.5537 35.4697C17.688 35.4956 17.8229 35.5202 17.959 35.541C18.4581 35.6174 18.9619 35.6594 19.4658 35.6641H19.6621C19.8571 35.6623 20.0524 35.6522 20.2471 35.6396C20.3655 35.6321 20.4833 35.6228 20.6006 35.6113C20.6429 35.6072 20.6853 35.6033 20.7275 35.5986C20.8519 35.585 20.9756 35.5687 21.0986 35.5508C21.4585 35.4981 21.816 35.4268 22.1699 35.3369C22.3035 35.303 22.4359 35.2665 22.5674 35.2275C22.6019 35.2173 22.6364 35.2069 22.6709 35.1963C22.7933 35.1586 22.9147 35.1191 23.0352 35.0771C23.0669 35.0661 23.0992 35.0563 23.1309 35.0449C23.2714 34.9944 23.4101 34.94 23.5479 34.8838C23.5828 34.8695 23.6175 34.8545 23.6523 34.8398C23.7656 34.7921 23.878 34.7429 23.9893 34.6914C24.0259 34.6745 24.0622 34.657 24.0986 34.6396C24.5053 34.4456 24.8976 34.2269 25.2734 33.9844C25.3416 33.9404 25.4092 33.8953 25.4766 33.8496C25.5623 33.7915 25.6466 33.7315 25.7305 33.6709C25.7626 33.6476 25.7962 33.6262 25.8281 33.6025C25.9528 33.5103 26.0749 33.4149 26.1953 33.3174C26.2303 33.289 26.2642 33.2593 26.2988 33.2305C26.3866 33.1575 26.4733 33.0835 26.5586 33.0078C26.5947 32.9757 26.6312 32.9438 26.667 32.9111C26.7871 32.8016 26.9055 32.6902 27.0205 32.5752C27.1623 32.4334 27.2977 32.2873 27.4297 32.1396C27.631 31.9142 27.8233 31.6807 28.0049 31.4385C28.0534 31.3739 28.1006 31.3086 28.1475 31.2432C28.1881 31.1863 28.228 31.129 28.2676 31.0713C28.3112 31.0077 28.3545 30.9442 28.3965 30.8799C28.5565 30.635 28.707 30.3834 28.8467 30.125C28.8801 30.0632 28.9123 30.0008 28.9443 29.9385C28.9861 29.8574 29.0267 29.7757 29.0664 29.6934C29.0886 29.6473 29.1104 29.601 29.1318 29.5547C29.1934 29.4221 29.2544 29.2889 29.3105 29.1533L29.3525 29.0439C29.6938 28.1917 29.9184 27.304 30.0283 26.4043C30.0385 26.3205 30.0504 26.2367 30.0586 26.1523C30.0704 26.0314 30.0783 25.9102 30.0859 25.7891C30.089 25.7396 30.0933 25.6902 30.0957 25.6406C30.1043 25.4667 30.1094 25.2922 30.1094 25.1182C30.1093 22.4187 29.0796 19.7212 27.0205 17.6621C25.8259 16.4675 24.4171 15.6198 22.918 15.1182V23.2012ZM14.3232 10.0244C14.3235 10.6122 14.7999 11.0887 15.3877 11.0889H23.7393C24.3272 11.0889 24.8045 10.6123 24.8047 10.0244C24.8047 9.4363 24.3274 8.95898 23.7393 8.95898H15.3877C14.7997 8.95915 14.3232 9.4364 14.3232 10.0244ZM25.8047 10.0244C25.8045 11.1646 24.8795 12.0889 23.7393 12.0889H22.918V14.0684C24.5285 14.5559 26.0524 15.4041 27.3652 16.6094L32.3311 11.6436C29.7735 9.21953 26.5281 7.5161 22.918 6.85742V7.95898H23.7393C24.8797 7.95898 25.8047 8.88402 25.8047 10.0244ZM22.918 5.8418C26.8055 6.51356 30.2985 8.33293 33.0381 10.9365L33.0439 10.9316L33.4824 11.3701C33.5957 11.4848 33.7079 11.6013 33.8184 11.7188C35.485 13.4897 36.7604 15.4959 37.6426 17.627L37.8154 18.0596C38.5487 19.9543 38.9953 21.9913 39.1025 24.1172C39.1187 24.4337 39.1271 24.7505 39.1279 25.0674V25.1719C39.1275 25.3425 39.124 25.513 39.1191 25.6836C39.0544 27.9646 38.6001 30.1488 37.8184 32.1709L37.6455 32.6025C36.8668 34.4861 35.7801 36.2712 34.3887 37.8838C34.3781 37.896 34.368 37.9087 34.3574 37.9209C34.052 38.2732 33.7322 38.6174 33.3975 38.9521C33.3133 39.0363 33.2282 39.1195 33.1426 39.2021C32.8101 39.523 32.468 39.8285 32.1191 40.1211C32.0745 40.1585 32.0303 40.1964 31.9854 40.2334C31.7752 40.4065 31.5622 40.5743 31.3467 40.7373C31.3166 40.76 31.2861 40.7821 31.2559 40.8047C30.6455 41.2608 30.0151 41.6771 29.3672 42.0527C29.3517 42.0617 29.3358 42.0701 29.3203 42.0791C29.2038 42.1462 29.0873 42.2128 28.9697 42.2773C28.9506 42.2879 28.9313 42.2981 28.9121 42.3086C28.531 42.5161 28.1442 42.7094 27.7529 42.8896C27.6822 42.9223 27.6112 42.9545 27.54 42.9863C27.4789 43.0136 27.4178 43.0408 27.3564 43.0674C27.2728 43.1038 27.1888 43.1396 27.1045 43.1748C27.0376 43.2027 26.9704 43.2297 26.9033 43.2568C26.8297 43.2867 26.7557 43.3158 26.6816 43.3447C26.6139 43.3711 26.5465 43.3982 26.4785 43.4238C26.3703 43.4647 26.2614 43.504 26.1523 43.543C26.1334 43.5497 26.1146 43.5568 26.0957 43.5635C25.9819 43.6038 25.8677 43.6434 25.7529 43.6816C25.7042 43.6979 25.6553 43.7137 25.6064 43.7295C25.5059 43.7621 25.405 43.7942 25.3037 43.8252C25.2647 43.8371 25.2256 43.8487 25.1865 43.8604C25.065 43.8968 24.9429 43.9317 24.8203 43.9658C24.7916 43.9738 24.7631 43.9824 24.7344 43.9902C24.3039 44.1079 23.8676 44.2113 23.4258 44.2998C23.4154 44.3019 23.4049 44.3036 23.3945 44.3057C23.0983 44.3645 22.7999 44.4166 22.499 44.4619C22.4935 44.4627 22.4879 44.463 22.4824 44.4639C22.3467 44.4842 22.2108 44.504 22.0742 44.5215C22.0336 44.5267 21.9928 44.5312 21.9521 44.5361C21.6745 44.5699 21.3953 44.5991 21.1143 44.6211C21.0869 44.6233 21.0596 44.6249 21.0322 44.627C20.9169 44.6355 20.8014 44.6438 20.6855 44.6504C20.5801 44.6564 20.4746 44.6597 20.3691 44.6641C20.3106 44.6664 20.252 44.67 20.1934 44.6719C20.0345 44.677 19.8757 44.6804 19.7168 44.6816C19.6664 44.682 19.6149 44.6826 19.5645 44.6826L19.4121 44.6816C17.0391 44.6635 14.7655 44.221 12.6641 43.4287C12.4702 43.3558 12.2759 43.2815 12.084 43.2021C11.9745 43.1568 11.8663 43.1088 11.7578 43.0615C11.7212 43.0456 11.684 43.0308 11.6475 43.0146C11.602 42.9945 11.557 42.9736 11.5117 42.9531C9.64368 42.1101 7.8816 40.9589 6.30176 39.5C6.1078 39.321 5.91704 39.1387 5.73047 38.9521C3.85466 37.0763 2.43842 34.9137 1.4834 32.6045C0.527409 30.2979 0 27.7687 0 25.1182C3.50029e-06 24.9782 0.00189216 24.8382 0.00488281 24.6982C0.0112839 24.3947 0.0258185 24.093 0.0458984 23.793C0.0492392 23.7435 0.0519489 23.694 0.0556641 23.6445C0.0623972 23.5542 0.0701683 23.464 0.078125 23.374C0.0841247 23.3066 0.0899832 23.2392 0.0966797 23.1719C0.108227 23.055 0.12117 22.9385 0.134766 22.8223C0.137716 22.7972 0.141484 22.7722 0.144531 22.7471C0.311687 21.3642 0.621316 20.0256 1.06152 18.7471C1.07858 18.6974 1.09679 18.6482 1.11426 18.5986C1.15307 18.4888 1.19269 18.3794 1.2334 18.2705C1.2466 18.2351 1.25905 18.1994 1.27246 18.1641C1.30903 18.0679 1.34673 17.9723 1.38477 17.877C1.41788 17.7937 1.45202 17.7108 1.48633 17.6279C1.50496 17.583 1.52304 17.5379 1.54199 17.4932C2.30723 15.6829 3.35747 13.9645 4.69238 12.4062C4.72493 12.3682 4.75818 12.3308 4.79102 12.293C4.85798 12.216 4.92479 12.1387 4.99316 12.0625C5.06053 11.9874 5.12974 11.9139 5.19824 11.8398C5.34552 11.6807 5.4949 11.5225 5.64844 11.3672L6.08398 10.9316L6.08887 10.9365C8.82876 8.33243 12.3227 6.51248 16.2109 5.84082V3.35352C16.2109 1.50142 17.7124 0 19.5645 0C21.4163 0.000263859 22.918 1.50158 22.918 3.35352V5.8418Z" fill="#45AA82"/>
</svg>
