<svg width="104" height="48" viewBox="0 0 104 48" fill="none" xmlns="http://www.w3.org/2000/svg">
<path d="M99.618 45.609V39.957L99.906 40.257H97.29V39.249H103.098V40.257H100.494L100.77 39.957V45.609H99.618Z" fill="#8C8C8C"/>
<path d="M93.9249 45.681C93.2449 45.681 92.6449 45.541 92.1249 45.261C91.6129 44.981 91.2129 44.597 90.9249 44.109C90.6449 43.621 90.5049 43.061 90.5049 42.429C90.5049 41.797 90.6409 41.237 90.9129 40.749C91.1929 40.261 91.5729 39.881 92.0529 39.609C92.5409 39.329 93.0889 39.189 93.6969 39.189C94.3129 39.189 94.8569 39.325 95.3289 39.597C95.8009 39.869 96.1689 40.253 96.4329 40.749C96.7049 41.237 96.8409 41.809 96.8409 42.465C96.8409 42.513 96.8369 42.569 96.8289 42.633C96.8289 42.697 96.8249 42.757 96.8169 42.813H91.4049V41.985H96.2169L95.7489 42.273C95.7569 41.865 95.6729 41.501 95.4969 41.181C95.3209 40.861 95.0769 40.613 94.7649 40.437C94.4609 40.253 94.1049 40.161 93.6969 40.161C93.2969 40.161 92.9409 40.253 92.6289 40.437C92.3169 40.613 92.0729 40.865 91.8969 41.193C91.7209 41.513 91.6329 41.881 91.6329 42.297V42.489C91.6329 42.913 91.7289 43.293 91.9209 43.629C92.1209 43.957 92.3969 44.213 92.7489 44.397C93.1009 44.581 93.5049 44.673 93.9609 44.673C94.3369 44.673 94.6769 44.609 94.9809 44.481C95.2929 44.353 95.5649 44.161 95.7969 43.905L96.4329 44.649C96.1449 44.985 95.7849 45.241 95.3529 45.417C94.9289 45.593 94.4529 45.681 93.9249 45.681Z" fill="#8C8C8C"/>
<path d="M88.7164 45.609L86.2564 42.513L87.2044 41.937L90.0724 45.609H88.7164ZM84.1084 45.609V39.249H85.2604V45.609H84.1084ZM84.9124 42.921V41.937H87.0124V42.921H84.9124ZM87.3004 42.561L86.2324 42.417L88.6684 39.249H89.9044L87.3004 42.561Z" fill="#8C8C8C"/>
<path d="M80.942 45.609V44.265L80.882 44.013V41.721C80.882 41.233 80.738 40.857 80.45 40.593C80.17 40.321 79.746 40.185 79.178 40.185C78.802 40.185 78.434 40.249 78.074 40.377C77.714 40.497 77.41 40.661 77.162 40.869L76.682 40.005C77.01 39.741 77.402 39.541 77.858 39.405C78.322 39.261 78.806 39.189 79.31 39.189C80.182 39.189 80.854 39.401 81.326 39.825C81.798 40.249 82.034 40.897 82.034 41.769V45.609H80.942ZM78.854 45.681C78.382 45.681 77.966 45.601 77.606 45.441C77.254 45.281 76.982 45.061 76.79 44.781C76.598 44.493 76.502 44.169 76.502 43.809C76.502 43.465 76.582 43.153 76.742 42.873C76.91 42.593 77.178 42.369 77.546 42.201C77.922 42.033 78.426 41.949 79.058 41.949H81.074V42.777H79.106C78.53 42.777 78.142 42.873 77.942 43.065C77.742 43.257 77.642 43.489 77.642 43.761C77.642 44.073 77.766 44.325 78.014 44.517C78.262 44.701 78.606 44.793 79.046 44.793C79.478 44.793 79.854 44.697 80.174 44.505C80.502 44.313 80.738 44.033 80.882 43.665L81.11 44.457C80.958 44.833 80.69 45.133 80.306 45.357C79.922 45.573 79.438 45.681 78.854 45.681Z" fill="#8C8C8C"/>
<path d="M67.4678 45.609V39.249H68.6558L71.3918 43.953H70.9118L73.7198 39.249H74.7998V45.609H73.7558V40.545L73.9478 40.653L71.3798 44.889H70.8758L68.2958 40.569L68.5238 40.521V45.609H67.4678Z" fill="#8C8C8C"/>
<path d="M60.1028 45.621L57.3428 45.609V39.249H58.4948V41.397L60.2828 41.409C61.0908 41.417 61.7068 41.601 62.1308 41.961C62.5548 42.321 62.7668 42.829 62.7668 43.485C62.7668 44.173 62.5348 44.705 62.0708 45.081C61.6068 45.449 60.9508 45.629 60.1028 45.621ZM60.0068 44.745C60.5268 44.753 60.9188 44.649 61.1828 44.433C61.4548 44.217 61.5908 43.897 61.5908 43.473C61.5908 43.057 61.4588 42.753 61.1948 42.561C60.9308 42.369 60.5348 42.269 60.0068 42.261L58.4948 42.237V44.733L60.0068 44.745Z" fill="#8C8C8C"/>
<path d="M52.6844 45.609V39.957L52.9724 40.257H50.3564V39.249H56.1644V40.257H53.5604L53.8364 39.957V45.609H52.6844Z" fill="#8C8C8C"/>
<path d="M43.0928 45.609V39.249H44.2448V43.881L48.1448 39.249H49.1888V45.609H48.0368V40.977L44.1488 45.609H43.0928Z" fill="#8C8C8C"/>
<path d="M38.4252 45.693C37.9452 45.693 37.4732 45.633 37.0092 45.513C36.5532 45.385 36.1452 45.205 35.7852 44.973L36.1332 44.097C36.4372 44.289 36.7852 44.441 37.1772 44.553C37.5692 44.657 37.9652 44.709 38.3652 44.709C38.7332 44.709 39.0492 44.665 39.3132 44.577C39.5852 44.489 39.7932 44.369 39.9372 44.217C40.0812 44.057 40.1532 43.873 40.1532 43.665C40.1532 43.369 40.0212 43.141 39.7572 42.981C39.4932 42.821 39.1252 42.741 38.6532 42.741H37.2852V41.913H38.5812C38.8612 41.913 39.1052 41.881 39.3132 41.817C39.5212 41.753 39.6812 41.657 39.7932 41.529C39.9132 41.393 39.9732 41.237 39.9732 41.061C39.9732 40.869 39.9052 40.705 39.7692 40.569C39.6332 40.433 39.4412 40.329 39.1932 40.257C38.9532 40.185 38.6692 40.149 38.3412 40.149C38.0212 40.157 37.6932 40.201 37.3572 40.281C37.0292 40.361 36.6932 40.485 36.3492 40.653L36.0372 39.753C36.4212 39.569 36.7972 39.429 37.1652 39.333C37.5412 39.229 37.9132 39.173 38.2812 39.165C38.8332 39.149 39.3252 39.213 39.7572 39.357C40.1892 39.493 40.5292 39.693 40.7772 39.957C41.0332 40.221 41.1612 40.533 41.1612 40.893C41.1612 41.197 41.0652 41.469 40.8732 41.709C40.6812 41.941 40.4252 42.125 40.1052 42.261C39.7852 42.397 39.4172 42.465 39.0012 42.465L39.0492 42.189C39.7612 42.189 40.3212 42.329 40.7292 42.609C41.1372 42.889 41.3412 43.269 41.3412 43.749C41.3412 44.133 41.2132 44.473 40.9572 44.769C40.7012 45.057 40.3532 45.285 39.9132 45.453C39.4812 45.613 38.9852 45.693 38.4252 45.693Z" fill="#8C8C8C"/>
<path d="M30.0334 48.009C29.7294 48.009 29.4334 47.957 29.1454 47.853C28.8574 47.757 28.6094 47.613 28.4014 47.421L28.8934 46.557C29.0534 46.709 29.2294 46.825 29.4214 46.905C29.6134 46.985 29.8174 47.025 30.0334 47.025C30.3134 47.025 30.5454 46.953 30.7294 46.809C30.9134 46.665 31.0854 46.409 31.2454 46.041L31.6414 45.165L31.7614 45.021L34.2574 39.249H35.3854L32.3014 46.245C32.1174 46.693 31.9094 47.045 31.6774 47.301C31.4534 47.557 31.2054 47.737 30.9334 47.841C30.6614 47.953 30.3614 48.009 30.0334 48.009ZM31.5454 45.813L28.6414 39.249H29.8414L32.3134 44.913L31.5454 45.813Z" fill="#8C8C8C"/>
<path d="M24.996 45.681C24.468 45.681 23.984 45.561 23.544 45.321C23.112 45.073 22.764 44.709 22.5 44.229C22.244 43.749 22.116 43.149 22.116 42.429C22.116 41.709 22.24 41.109 22.488 40.629C22.744 40.149 23.088 39.789 23.52 39.549C23.96 39.309 24.452 39.189 24.996 39.189C25.62 39.189 26.172 39.325 26.652 39.597C27.132 39.869 27.512 40.249 27.792 40.737C28.072 41.217 28.212 41.781 28.212 42.429C28.212 43.077 28.072 43.645 27.792 44.133C27.512 44.621 27.132 45.001 26.652 45.273C26.172 45.545 25.62 45.681 24.996 45.681ZM21.624 47.937V39.249H22.728V40.965L22.656 42.441L22.776 43.917V47.937H21.624ZM24.9 44.673C25.308 44.673 25.672 44.581 25.992 44.397C26.32 44.213 26.576 43.953 26.76 43.617C26.952 43.273 27.048 42.877 27.048 42.429C27.048 41.973 26.952 41.581 26.76 41.253C26.576 40.917 26.32 40.657 25.992 40.473C25.672 40.289 25.308 40.197 24.9 40.197C24.5 40.197 24.136 40.289 23.808 40.473C23.488 40.657 23.232 40.917 23.04 41.253C22.856 41.581 22.764 41.973 22.764 42.429C22.764 42.877 22.856 43.273 23.04 43.617C23.232 43.953 23.488 44.213 23.808 44.397C24.136 44.581 24.5 44.673 24.9 44.673Z" fill="#8C8C8C"/>
<path d="M15.7646 45.609V39.249H20.4446V40.257H16.6406L16.9166 39.993V45.609H15.7646Z" fill="#8C8C8C"/>
<path d="M12.5982 45.609V44.265L12.5382 44.013V41.721C12.5382 41.233 12.3942 40.857 12.1062 40.593C11.8262 40.321 11.4022 40.185 10.8342 40.185C10.4582 40.185 10.0902 40.249 9.7302 40.377C9.3702 40.497 9.0662 40.661 8.8182 40.869L8.3382 40.005C8.6662 39.741 9.0582 39.541 9.5142 39.405C9.9782 39.261 10.4622 39.189 10.9662 39.189C11.8382 39.189 12.5102 39.401 12.9822 39.825C13.4542 40.249 13.6902 40.897 13.6902 41.769V45.609H12.5982ZM10.5102 45.681C10.0382 45.681 9.6222 45.601 9.2622 45.441C8.9102 45.281 8.6382 45.061 8.4462 44.781C8.2542 44.493 8.1582 44.169 8.1582 43.809C8.1582 43.465 8.2382 43.153 8.3982 42.873C8.5662 42.593 8.8342 42.369 9.2022 42.201C9.5782 42.033 10.0822 41.949 10.7142 41.949H12.7302V42.777H10.7622C10.1862 42.777 9.7982 42.873 9.5982 43.065C9.3982 43.257 9.2982 43.489 9.2982 43.761C9.2982 44.073 9.4222 44.325 9.6702 44.517C9.9182 44.701 10.2622 44.793 10.7022 44.793C11.1342 44.793 11.5102 44.697 11.8302 44.505C12.1582 44.313 12.3942 44.033 12.5382 43.665L12.7662 44.457C12.6142 44.833 12.3462 45.133 11.9622 45.357C11.5782 45.573 11.0942 45.681 10.5102 45.681Z" fill="#8C8C8C"/>
<path d="M3.3 45.705C2.612 45.705 1.98 45.621 1.404 45.453C0.836 45.277 0.368 45.037 0 44.733L0.408 43.797C0.744 44.077 1.16 44.293 1.656 44.445C2.16 44.597 2.712 44.673 3.312 44.673C4.12 44.673 4.72 44.541 5.112 44.277C5.504 44.005 5.7 43.637 5.7 43.173C5.7 42.853 5.616 42.589 5.448 42.381C5.28 42.165 5.044 42.009 4.74 41.913C4.444 41.809 4.092 41.757 3.684 41.757H1.704V40.785H3.624C4.168 40.785 4.588 40.685 4.884 40.485C5.188 40.277 5.34 39.969 5.34 39.561C5.34 39.225 5.248 38.957 5.064 38.757C4.88 38.549 4.636 38.397 4.332 38.301C4.036 38.205 3.708 38.157 3.348 38.157C3.06 38.157 2.76 38.185 2.448 38.241C2.144 38.297 1.848 38.377 1.56 38.481C1.272 38.577 1.004 38.689 0.756 38.817L0.408 37.857C0.84 37.617 1.308 37.437 1.812 37.317C2.324 37.189 2.832 37.125 3.336 37.125C3.76 37.125 4.164 37.173 4.548 37.269C4.932 37.357 5.272 37.493 5.568 37.677C5.872 37.861 6.108 38.097 6.276 38.385C6.452 38.673 6.54 39.009 6.54 39.393C6.54 39.777 6.452 40.125 6.276 40.437C6.108 40.749 5.864 40.997 5.544 41.181C5.224 41.365 4.852 41.457 4.428 41.457L4.488 41.109C4.92 41.109 5.32 41.193 5.688 41.361C6.056 41.529 6.348 41.773 6.564 42.093C6.788 42.405 6.9 42.789 6.9 43.245C6.9 43.717 6.76 44.141 6.48 44.517C6.208 44.885 5.804 45.177 5.268 45.393C4.74 45.601 4.084 45.705 3.3 45.705Z" fill="#8C8C8C"/>
<path d="M45.7471 1.17578C46.6342 -0.391295 48.8648 -0.391291 49.752 1.17578L56.5889 13.252L60.4141 6.6084C61.3087 5.0542 63.5278 5.0627 64.4111 6.62305L71.4131 18.9922C72.2835 20.5298 71.2105 22.4959 69.4111 22.4961H61.8223L62.9336 24.459C63.8041 25.9966 62.7302 27.9629 60.9307 27.9629H34.5684C32.769 27.9627 31.696 25.9966 32.5664 24.459L45.7471 1.17578ZM48.4473 1.91406C48.1346 1.36178 47.3655 1.36189 47.0527 1.91406L33.8711 25.1982C33.542 25.7799 33.9684 26.4627 34.5684 26.4629H60.9307C61.5308 26.4629 61.9573 25.78 61.6279 25.1982L48.4473 1.91406ZM63.1055 7.36133C62.7939 6.81142 62.0289 6.8091 61.7139 7.35645L57.4473 14.7676L60.9727 20.9961H69.4111C70.011 20.9959 70.4373 20.3131 70.1084 19.7314L63.1055 7.36133ZM33.5088 5.32031C33.5088 3.21084 31.7989 1.50026 29.6895 1.5C27.5798 1.5 25.8691 3.21068 25.8691 5.32031C25.8694 7.42972 27.58 9.13965 29.6895 9.13965C31.7987 9.13938 33.5085 7.42956 33.5088 5.32031ZM35.0088 5.32031C35.0085 8.25798 32.6271 10.6394 29.6895 10.6396C26.7516 10.6396 24.3694 8.25815 24.3691 5.32031C24.3691 2.38225 26.7514 0 29.6895 0C32.6273 0.00026387 35.0088 2.38242 35.0088 5.32031Z" fill="#8C8C8C"/>
</svg>
