<svg width="160" height="160" viewBox="0 0 160 160" fill="none" xmlns="http://www.w3.org/2000/svg">
<path d="M49.4913 15.4348L111.654 15.4346C113.311 15.4346 114.654 16.7777 114.654 18.4346V128.549C114.654 130.206 113.311 131.549 111.654 131.549H32.4053C30.7484 131.549 29.4053 130.206 29.4053 128.549V33.667M49.4913 15.4348V30.667C49.4913 32.3239 48.1482 33.667 46.4913 33.667H29.4053M49.4913 15.4348L29.4053 33.667M114.781 28.4512H127.595C129.252 28.4512 130.595 29.7943 130.595 31.4512V141.566C130.595 143.222 129.252 144.566 127.595 144.566H48.3467C46.6898 144.566 45.3467 143.222 45.3467 141.566V131.922M45.3467 48.5854H98.7119M45.3467 62.269H98.7119M45.3467 76.6367H98.7119M45.3467 90.6621H98.7119M69.2925 106.398H98.7119" stroke="#6BA0E5" stroke-width="2" stroke-linecap="round"/>
</svg>
