<svg width="160" height="160" viewBox="0 0 160 160" fill="none" xmlns="http://www.w3.org/2000/svg">
<path d="M127.245 110.264L143.168 124.399C144.273 125.38 144.018 126.52 142.595 126.955L77.5482 146.842C76.1139 147.28 74.0337 146.839 72.8999 145.855L2.5214 84.8113C1.39689 83.836 1.62356 82.6912 3.03005 82.2424L17.0888 77.7571M11.5561 52.4171L21.9723 61.4718C23.1053 62.4567 22.86 63.6109 21.4243 64.0498L6.61944 68.5761M11.5561 52.4171L6.61944 68.5761M11.5561 52.4171L69.0759 38.2224C70.5199 37.866 72.4855 38.3257 73.5616 39.2713L145.398 102.401C146.517 103.384 146.267 104.531 144.838 104.968L76.1532 125.966C74.7175 126.405 72.6352 125.963 71.5022 124.978L6.61944 68.5761M39.9866 81.3537L87.7068 67.4149M49.8119 89.8946L95.8645 74.298M59.4018 98.2316L104.787 82.7107M88.2586 103.145L156.934 82.1487C158.37 81.7098 158.615 80.5555 157.482 79.5706L82.2211 14.1472C81.0734 13.1494 78.9557 12.7106 77.5227 13.1735L9.56904 35.126C8.1699 35.578 7.94978 36.7216 9.07466 37.6945L83.6138 102.162C84.7486 103.143 86.826 103.583 88.2586 103.145Z" stroke="#6BA0E5" stroke-width="2" stroke-linecap="round" stroke-linejoin="round"/>
</svg>
