<svg width="160" height="160" viewBox="0 0 160 160" fill="none" xmlns="http://www.w3.org/2000/svg">
<path d="M40.972 91.5675C49.1243 87.0303 50.9523 74.7623 45.0549 64.1661C39.1575 53.5699 27.7681 48.6581 19.6158 53.1952M40.972 91.5675C32.8198 96.1047 21.4303 91.1928 15.5329 80.5967C9.63556 70.0005 11.4635 57.7324 19.6158 53.1952M40.972 91.5675C73.4333 74.4272 138.593 40.7775 140.494 39.7195C148.646 35.1823 150.311 23.3416 144.414 12.7454C140.494 5.70332 128.41 0.103295 120.258 4.64048L19.6158 53.1952M40.972 138.154C49.1243 133.617 50.9523 121.349 45.0549 110.753C39.1575 100.157 27.7681 95.2448 19.6158 99.782M40.972 138.154C32.8198 142.691 21.4303 137.78 15.5329 127.183C9.63556 116.587 11.4635 104.319 19.6158 99.782M40.972 138.154C50.2876 133.235 62.2961 126.957 74.7297 120.479M19.6158 99.782L32.7717 92.9735M127.065 46.7377C133.546 47.3374 140.31 51.9584 144.414 59.3322C150.311 69.9284 148.646 81.7691 140.494 86.3063C139.984 86.5903 134.917 89.222 127.148 93.2522M58.169 82.5188C62.4507 80.9325 74.8426 92.6003 74.8426 103.544C74.8426 114.487 74.8954 136.322 74.8426 146.208C74.7368 149.222 76.2382 155.597 83.0899 156.993L133.199 131.069C133.268 131.034 133.267 130.935 133.197 130.901C130.983 129.807 126.9 126.535 127.023 121.466C127.15 116.264 127.076 92.2296 127.023 80.863C126.994 74.4559 125.564 60.8471 110.211 55.6449M85.5882 101.157L103.054 93.2575M87.0345 107.544L120.446 91.023M86.3482 114.58L119.76 98.0584M86.3482 121.51L119.76 104.989M86.3482 128.171L119.76 111.65M86.3482 135.013L100.014 128.466M86.3482 141.213L100.014 134.666M34.9925 70.1504C37.2161 74.1457 36.5269 78.7715 33.453 80.4822C30.3792 82.193 26.0847 80.341 23.8611 76.3456C21.6375 72.3503 22.3267 67.7246 25.4005 66.0138C28.4744 64.303 32.7689 66.155 34.9925 70.1504ZM34.9925 116.737C37.2161 120.733 36.5269 125.358 33.453 127.069C30.3792 128.78 26.0847 126.928 23.8611 122.932C21.6375 118.937 22.3267 114.311 25.4005 112.601C28.4744 110.89 32.7689 112.742 34.9925 116.737ZM78.2383 84.5732L95.8085 76.4802C99.2351 78.74 101.641 82.3854 102.077 86.1545L84.5721 95.2517C83.9976 90.989 82.175 87.2707 78.2383 84.5732ZM104.784 124.958L119.365 117.575C118.353 121.394 118.098 123.39 118.555 126.576L105.325 133.327C104.419 129.748 104.118 127.834 104.784 124.958ZM99.7778 74.6032L114.969 67.2935C118.395 69.5534 120.394 72.3917 120.83 76.1609L105.769 84.5282C105.195 80.2655 103.714 77.3007 99.7778 74.6032Z" stroke="#6BA0E5" stroke-width="2" stroke-linecap="round" stroke-linejoin="round"/>
</svg>
