<svg width="160" height="160" viewBox="0 0 160 160" fill="none" xmlns="http://www.w3.org/2000/svg">
<path d="M35.3037 44.9898L35.3039 31.225C35.3039 27.046 38.6917 23.6583 42.8707 23.6583H116.356C120.535 23.6583 123.923 27.0461 123.923 31.2251V44.9898M35.3037 44.9898H123.923M35.3037 44.9898L35.3039 100.396M123.923 44.9898V100.396M123.923 100.396H35.3039M123.923 100.396V123.536M35.3039 100.396L35.3039 123.536M35.3039 123.536L35.304 139.108C35.304 143.287 38.6917 146.675 42.8708 146.675H116.356C120.535 146.675 123.923 143.287 123.923 139.108V123.536M35.3039 123.536H123.923M65.9199 114.092H93.3074M46.0089 35.0092H73.3964M14.0226 67.4995H35.3037M14.0226 59.6561H35.3037M37.5985 25.7334L46.8654 14.8465C47.6869 13.8813 48.8906 13.3252 50.158 13.3252H109.059C110.333 13.3252 111.542 13.887 112.364 14.8607L121.16 25.2859M65.9198 136.662H93.3073M125.373 96.0617H151.486C152.68 96.0617 153.648 95.0937 153.648 93.8997V71.4162M125.373 89.6937H146.547M125.373 83.2078H146.547M125.373 76.722H146.547M125.373 70.2361H146.547M125.373 63.7503H146.547M35.3037 74.9649H8.51742C7.32341 74.9649 6.35547 75.9328 6.35547 77.1268V85.1761C6.35547 86.3701 7.32341 87.338 8.51742 87.338H35.3037M90.4457 35.0091C90.4457 36.5707 89.1797 37.8366 87.6181 37.8366C86.0565 37.8366 84.7906 36.5707 84.7906 35.0091C84.7906 33.4475 86.0565 32.1815 87.6181 32.1815C89.1797 32.1815 90.4457 33.4475 90.4457 35.0091ZM101.476 35.0091C101.476 36.5707 100.21 37.8366 98.648 37.8366C97.0864 37.8366 95.8204 36.5707 95.8204 35.0091C95.8204 33.4475 97.0864 32.1815 98.648 32.1815C100.21 32.1815 101.476 33.4475 101.476 35.0091ZM112.505 35.0091C112.505 36.5707 111.239 37.8366 109.678 37.8366C108.116 37.8366 106.85 36.5707 106.85 35.0091C106.85 33.4475 108.116 32.1815 109.678 32.1815C111.239 32.1815 112.505 33.4475 112.505 35.0091Z" stroke="#6BA0E5" stroke-width="2" stroke-linecap="round"/>
</svg>
