<svg width="160" height="160" viewBox="0 0 160 160" fill="none" xmlns="http://www.w3.org/2000/svg">
<g clip-path="url(#clip0_45_3226)">
<path d="M111.984 23.794V20.0264C111.984 19.4741 111.537 19.0264 110.984 19.0264H106.103M100.222 23.794V20.0264C100.222 19.4741 100.67 19.0264 101.222 19.0264H106.103M106.103 19.0264V0M60.1508 23.794V20.0264C60.1508 19.4741 59.7031 19.0264 59.1508 19.0264H54.2696M48.3884 23.794V20.0264C48.3884 19.4741 48.8361 19.0264 49.3884 19.0264H54.2696M54.2696 19.0264V0M53.3346 98.4883H107.615M53.3346 105.527H107.615M80.5481 112.566H107.615M80.5481 126.645H107.615M80.5481 119.605H107.615M80.5481 133.684H107.615M86.8156 70.9091L91.6369 63.4937C92.0437 62.8679 92.968 62.8923 93.3413 63.5388L107.558 88.1621C107.942 88.8288 107.464 89.6621 106.695 89.6621L97.4549 89.662M86.8156 70.9091L75.8266 52.1769C75.4387 51.5156 74.4814 51.5189 74.0981 52.1829L53.3256 88.1619C52.9407 88.8286 53.4133 89.6619 54.1831 89.6619C64.0301 89.6618 97.4549 89.662 97.4549 89.662M86.8156 70.9091L97.4549 89.662M39.7139 152.539H120.287C121.944 152.539 123.287 151.196 123.287 149.539V26.7949C123.287 25.1381 121.944 23.7949 120.287 23.7949H39.7139C38.057 23.7949 36.7139 25.1381 36.7139 26.7949V149.539C36.7139 151.196 38.057 152.539 39.7139 152.539ZM54.3346 134.314H73.1941C73.7464 134.314 74.1941 133.867 74.1941 133.314V113.566C74.1941 113.014 73.7464 112.566 73.1941 112.566H54.3346C53.7823 112.566 53.3346 113.014 53.3346 113.566V133.314C53.3346 133.867 53.7823 134.314 54.3346 134.314ZM114.352 31.5215V144.812C114.352 145.917 113.456 146.812 112.352 146.812H47.6489C46.5444 146.812 45.6489 145.917 45.6489 144.812V31.5215C45.6489 30.4169 46.5444 29.5215 47.6489 29.5215H112.352C113.457 29.5215 114.352 30.4169 114.352 31.5215ZM111.455 49.3545C111.455 53.5845 108.026 57.0137 103.796 57.0137C99.5656 57.0137 96.1365 53.5845 96.1365 49.3545C96.1365 45.1244 99.5656 41.6953 103.796 41.6953C108.026 41.6953 111.455 45.1244 111.455 49.3545Z" stroke="#6BA0E5" stroke-width="2" stroke-linecap="round"/>
</g>
<defs>
<clipPath id="clip0_45_3226">
<rect width="160" height="160" fill="white"/>
</clipPath>
</defs>
</svg>
