<svg width="160" height="160" viewBox="0 0 160 160" fill="none" xmlns="http://www.w3.org/2000/svg">
<path d="M70.578 100.083L92.7818 74.1969C93.3993 73.477 94.5224 73.5063 95.1015 74.2574L105.508 87.7546M105.508 87.7546L115.553 100.083M105.508 87.7546L112.644 81.6103C113.25 81.0885 114.159 81.1357 114.708 81.7173L130.85 98.8272M70.578 112.258L131.771 112.258M70.9163 125.005H130.85M70.9163 137.75H130.85M54.8818 44.1977L97.9099 19.3554C99.2351 18.5903 98.6923 16.5645 97.1621 16.5645H20.1129C17.6348 16.5645 15.626 18.5733 15.626 21.0514V113.83C15.626 116.309 17.6348 118.317 20.1129 118.317H54.8818M54.8818 44.1977V118.317M54.8818 44.1977H98.8321M54.8818 118.317V147.321C54.8818 149.799 56.8906 151.808 59.3687 151.808H139.887C142.365 151.808 144.374 149.799 144.374 147.321V48.6846C144.374 46.2066 142.365 44.1977 139.887 44.1977H98.8321M98.8321 44.1977V17.6631M70.367 100.016H130.275C131.101 100.016 131.771 99.346 131.771 98.52V58.605C131.771 57.7789 131.101 57.1093 130.275 57.1093H70.367C69.5409 57.1093 68.8713 57.7789 68.8713 58.605V98.52C68.8713 99.346 69.5409 100.016 70.367 100.016ZM112.587 70.2327C112.587 73.2908 110.108 75.7698 107.05 75.7698C103.992 75.7698 101.513 73.2908 101.513 70.2327C101.513 67.1747 103.992 64.6956 107.05 64.6956C110.108 64.6956 112.587 67.1747 112.587 70.2327Z" stroke="#6BA0E5" stroke-width="2" stroke-linecap="round" stroke-linejoin="round"/>
</svg>
