<svg width="160" height="160" viewBox="0 0 160 160" fill="none" xmlns="http://www.w3.org/2000/svg">
<path d="M70.2126 72.8709H112.676M70.2126 82.4332H112.676M127.906 74.0302L155.579 84.4179C156.962 84.9369 157.662 86.4786 157.143 87.8612L137.16 141.097C136.641 142.48 135.099 143.18 133.716 142.661L33.8449 105.172M127.865 95.5268L138.616 99.5627C139.999 100.082 141.541 99.3815 142.06 97.9989L142.776 96.0901C143.295 94.7074 142.595 93.1658 141.212 92.6468L127.865 87.6365M113.508 105.451L133.863 113.089M94.5531 107.646L130.799 121.252M49.1093 87.1831C46.7055 81.2029 40.8517 76.9809 34.0117 76.9809C27.1717 76.9809 21.3179 81.2029 18.9141 87.1831M5.36065 105.402H125.17C126.647 105.402 127.844 104.204 127.844 102.728V39.8421C127.844 38.3652 126.647 37.168 125.17 37.168H5.36065C3.88377 37.168 2.68652 38.3652 2.68652 39.8421V102.728C2.68652 104.204 3.88377 105.402 5.36065 105.402ZM62.2494 59.2558H113.591C115.068 59.2558 116.265 58.0585 116.265 56.5816V53.8277C116.265 52.3509 115.068 51.1536 113.591 51.1536H62.2494C60.7726 51.1536 59.5753 52.3509 59.5753 53.8277V56.5816C59.5753 58.0585 60.7726 59.2558 62.2494 59.2558ZM55.9716 71.2858C55.9716 83.4146 46.1393 93.2469 34.0105 93.2469C21.8818 93.2469 12.0495 83.4146 12.0495 71.2858C12.0495 59.157 21.8818 49.3247 34.0105 49.3247C46.1393 49.3247 55.9716 59.157 55.9716 71.2858ZM41.7334 65.1495C41.7334 69.4139 38.2764 72.8709 34.012 72.8709C29.7476 72.8709 26.2906 69.4139 26.2906 65.1495C26.2906 60.8851 29.7476 57.4281 34.012 57.4281C38.2764 57.4281 41.7334 60.8851 41.7334 65.1495Z" stroke="#6BA0E5" stroke-width="2" stroke-linecap="round"/>
</svg>
