<svg width="160" height="160" viewBox="0 0 160 160" fill="none" xmlns="http://www.w3.org/2000/svg">
<path d="M17.1797 135.591C17.1797 142.298 22.1328 147.735 28.2427 147.735H140.288C141.686 147.735 142.82 146.491 142.82 144.956L141.989 122.548M17.1797 135.591C17.1797 135.176 17.1986 134.765 17.2357 134.361M17.1797 135.591L17.2357 134.361M17.2357 134.361C17.797 128.232 22.5108 123.446 28.2426 123.446H140.125C141.585 123.446 142.743 122.094 142.652 120.494L135.299 13.5682C135.258 12.8359 134.705 12.2654 134.036 12.2654L44.5929 12.2664M17.2357 134.361L29.0517 24.4117C29.0517 17.7047 34.0047 12.2675 40.1146 12.2675L44.5929 12.2664M44.5929 12.2664L37.7839 115.808M141.163 131.735H30.3214C28.3182 131.735 26.6943 133.964 26.6943 136.163C26.6943 138.362 28.3182 139.698 30.3214 139.698H141.851M52.6356 90.5662H127.566C128.292 90.5662 128.869 89.8976 128.83 89.102L125.742 26.1474C125.706 25.4101 125.151 24.8326 124.478 24.8326H56.3086C55.6409 24.8326 55.0881 25.4019 55.0454 26.1333L51.3725 89.0879C51.3257 89.8886 51.9047 90.5662 52.6356 90.5662ZM50.667 110.488H129.556C130.331 110.488 130.924 109.731 130.808 108.89L129.872 102.13C129.778 101.451 129.247 100.949 128.621 100.949H51.7487C51.1341 100.949 50.6083 101.434 50.502 102.098L49.4203 108.858C49.2842 109.709 49.8803 110.488 50.667 110.488Z" stroke="#6BA0E5" stroke-width="2" stroke-linecap="round"/>
</svg>
