<svg width="160" height="160" viewBox="0 0 160 160" fill="none" xmlns="http://www.w3.org/2000/svg">
<path d="M114.948 86.7873L81.7801 104.725M82.9342 79.5355L98.2734 61.338C100.955 58.1568 99.3658 53.2659 95.3265 52.2684L72.2206 46.5625C70.7994 46.2116 69.5715 45.3194 68.7985 44.0762L56.2318 23.8645C54.0349 20.3311 48.8923 20.3311 46.6954 23.8645L34.1287 44.0762C33.3558 45.3194 32.1278 46.2116 30.7066 46.5625L7.60073 52.2684C3.56139 53.2659 1.97226 58.1568 4.65383 61.338L19.9931 79.5355C20.9365 80.6548 21.4056 82.0983 21.3002 83.5584L19.5867 107.297C19.2871 111.447 23.4476 114.469 27.3018 112.902L49.3486 103.937M82.9342 79.5355C81.9907 80.6548 67.6793 100.496 49.3486 103.937M82.9342 79.5355C77.2261 86.3071 68.7985 82.3768 67.6793 81.7073C66.5602 81.0378 52.4139 74.3424 56.2318 86.9297C59.2861 96.9995 52.9156 102.464 49.3486 103.937M127.198 55.9506C129.436 54.1517 129.536 52.9213 129.275 51.6271L128.048 48.2335C127.603 47.0027 128.123 45.6312 129.272 45.0052L132.441 43.2791C133.181 42.8764 133.685 42.1462 133.799 41.312L134.289 37.7367C134.467 36.4399 135.565 35.4673 136.874 35.4471L140.482 35.3916C141.324 35.3786 142.109 34.9663 142.598 34.2808L144.694 31.3427C145.454 30.2772 146.878 29.9261 148.046 30.5165L151.267 32.1442C153.05 32.4945 153.815 32.8561 154.673 32.2185M127.198 55.9506C126.03 56.5409 123.594 55.9412 122.834 54.8757L120.739 51.9376C120.25 51.2521 119.464 50.8398 118.622 50.8268L115.014 50.7713C113.705 50.7511 112.607 49.7784 112.43 48.4817L111.939 44.9064C111.825 44.0722 111.321 43.342 110.582 42.9393L107.412 41.2132C106.263 40.5872 105.743 39.2157 106.188 37.9849L107.416 34.5913C107.702 33.7996 107.595 32.9188 107.128 32.2185L105.124 29.2174C104.397 28.1289 104.573 26.6728 105.54 25.7899L108.204 23.3555C108.825 22.7876 109.14 21.958 109.051 21.1207L108.672 17.5319C108.534 16.2303 109.367 15.0232 110.633 14.6904L114.123 13.773C114.937 13.5589 115.602 12.9705 115.912 12.188L117.244 8.83377C117.727 7.61727 119.025 6.93562 120.301 7.22925L123.818 8.03886C124.638 8.22776 125.5 8.01543 126.138 7.46685L128.876 5.11563C129.869 4.26289 131.336 4.26289 132.329 5.11563L135.066 7.46685C135.705 8.01543 136.567 8.22776 137.387 8.03886L140.904 7.22925C142.18 6.93562 143.478 7.61727 143.961 8.83377L145.293 12.188C145.603 12.9705 146.267 13.5589 147.082 13.773L150.572 14.6904C151.838 15.0232 152.671 16.2303 152.533 17.5319L152.154 21.1207C152.065 21.958 152.38 22.7876 153.001 23.3555L155.665 25.7899C156.631 26.6728 156.868 28.5453 156.523 29.5233C156.144 30.5965 155.281 31.7664 154.673 32.2185M127.198 55.9506C132.874 52.2932 137.264 46.9441 142.04 42.9393C147.018 38.7657 152.311 35.9377 154.673 32.2185M149.106 89.1473L149.105 152.709C149.105 154.264 147.844 155.524 146.29 155.524L83.1774 155.524C81.6225 155.524 80.3621 154.264 80.3621 152.709L80.3633 106.975C80.3633 105.34 81.9096 104.146 83.4921 104.559L93.6786 107.222C94.5648 107.454 95.5067 107.182 96.1329 106.513L113.995 87.4404C114.467 86.9363 115.127 86.6502 115.817 86.6502H146.609C147.988 86.6502 149.106 87.7682 149.106 89.1473ZM97.4539 113.294C101.475 109.273 107.995 109.273 112.016 113.294L113.962 115.109L116.041 113.294C120.062 109.273 126.582 109.273 130.603 113.294C134.625 117.315 134.625 123.835 130.603 127.856C128.601 129.858 113.962 142.293 113.962 142.293C113.962 142.293 99.9063 129.967 97.4539 127.856C93.4327 123.835 93.4327 117.315 97.4539 113.294Z" stroke="#6BA0E5" stroke-width="2" stroke-linecap="round"/>
</svg>
