<svg width="160" height="160" viewBox="0 0 160 160" fill="none" xmlns="http://www.w3.org/2000/svg">
<path d="M87.7891 44.888L153.518 29.4293C154.281 29.2497 155.013 29.8289 155.013 30.6131V135.831C155.013 136.395 154.624 136.886 154.074 137.015L87.5984 152.605M88.1008 44.4776L140.404 21.91C141.206 21.5636 142.102 22.1523 142.102 23.0267V31.9452M87.7154 44.284L126.62 16.0278C127.424 15.4439 128.551 16.0182 128.551 17.0118V26.6073M72.2109 44.889L6.48191 29.4302C5.71854 29.2507 4.9873 29.8299 4.9873 30.6141V135.832C4.9873 136.396 5.37602 136.887 5.92579 137.016L72.4016 152.606M71.8992 44.4785L19.5965 21.911C18.7936 21.5646 17.8985 22.1533 17.8985 23.0277V31.9462M72.2846 44.285L33.3804 16.0287C32.5764 15.4448 31.4495 16.0192 31.4495 17.0128V26.6083M112.594 93.8734L134.046 89.4038M72.4016 45.851V151.995C72.4016 152.667 72.9461 153.211 73.6178 153.211H86.6224C87.2941 153.211 87.8386 152.667 87.8386 151.995V45.851C87.8386 45.1793 87.2941 44.6348 86.6224 44.6348H73.6178C72.9461 44.6348 72.4016 45.1793 72.4016 45.851ZM108.578 83.3145L138.941 77.3805C140.619 77.0526 141.844 75.604 141.889 73.8952L142.293 58.4458C142.354 56.1393 140.285 54.3566 138.012 54.7573L107.245 60.1829C105.501 60.4904 104.23 62.0054 104.23 63.776V79.7337C104.23 82.0296 106.325 83.7549 108.578 83.3145Z" stroke="#6BA0E5" stroke-width="2" stroke-linecap="round"/>
</svg>
