<svg width="160" height="160" viewBox="0 0 160 160" fill="none" xmlns="http://www.w3.org/2000/svg">
<path d="M103.683 50.8088V63.1355M103.683 72.3606V84.6873M103.683 93.9124V106.239M103.683 115.464V127.791M103.683 137.017V149.088M103.683 29.2571V41.5837M56.877 32.4495V44.7761M56.877 54.0012V66.3279M56.877 75.553V87.8796M56.877 97.1047V109.431M56.877 118.657V130.984M56.877 10.8977V23.2244M11.79 29.8963V147.693C11.79 148.403 12.5096 148.887 13.1673 148.619L56.4036 131.004C56.6412 130.908 56.907 130.906 57.1459 131L103.148 149.033C103.388 149.127 103.654 149.125 103.892 149.028L147.59 131.108C147.965 130.954 148.211 130.589 148.211 130.183V12.3886C148.211 11.6774 147.489 11.1935 146.831 11.4634L103.892 29.0717C103.654 29.1694 103.388 29.1714 103.148 29.0775L57.1458 11.0436C56.907 10.9499 56.6412 10.9517 56.4036 11.0485L12.4128 28.9702C12.0362 29.1236 11.79 29.4897 11.79 29.8963Z" stroke="#6BA0E5" stroke-width="2" stroke-linecap="round" stroke-linejoin="round"/>
</svg>
