<svg width="160" height="160" viewBox="0 0 160 160" fill="none" xmlns="http://www.w3.org/2000/svg">
<path d="M79.5035 113.34C92.7832 113.34 103.637 102.744 103.956 89.4683L104.095 83.6701C112.197 85.8707 116.511 81.342 117.462 76.0346C118.346 71.0944 117.085 66.3067 112.646 65.2769M48.2009 65.1503C42.919 65.6348 41.5463 70.7271 42.4969 76.0346C43.4474 81.342 47.7616 85.8707 55.8631 83.6701L56.0025 89.4683C56.3215 102.744 67.1753 113.34 80.455 113.34M112.646 65.2769C113.265 60.6253 113.414 54.1787 112.122 46.3607C109.864 32.7029 94.5675 31.9042 87.2017 33.212C82.6307 24.7861 71.3456 25.8462 66.2744 27.4295C48.4449 34.6577 50.992 48.2191 50.5105 48.77C42.8005 58.7379 49.0419 68.481 53.1263 72.1066C53.7321 69.0777 59.2071 63.364 61.8689 60.8857C76.0223 69.5871 90.2536 59.7842 95.6001 53.7951C102.14 55.5849 110.814 69.4219 110.882 72.5198C111.461 71.2246 112.185 68.7515 112.646 65.2769ZM85.2468 144.158L84.4391 136.12C84.3707 135.509 83.8541 135.047 83.2394 135.047H76.7048C76.0901 135.047 75.5735 135.509 75.5051 136.12L74.5765 144.158M25.0234 154.555L25.9107 150.051C29.0125 132.4 43.0783 118.725 60.8094 116.121L77.7305 150.582C78.6128 152.378 81.1729 152.383 82.0614 150.589L99.1348 116.121C116.866 118.725 130.932 132.4 134.034 150.051L134.977 155.123M53.2086 4.87788H69.9341M89.9235 4.87788H106.649M136.239 34.4079V51.1334M136.239 71.4999V88.2254M136.239 108.459V125.184M23.7626 108.459L23.7626 125.184M69.9343 154.847H53.2088M106.65 154.847H89.9243M23.7624 71.4999L23.7624 88.2254M23.7624 34.4079L23.7624 51.1334M33.2358 4.87787L23.7617 4.87834L23.7617 13.2411M136.239 14.3515L136.239 4.87744L127.876 4.87744M126.765 154.847L136.239 154.847V146.484M23.7626 145.373L23.763 154.847H32.1258M76.7048 130.261H83.2394C83.8541 130.261 84.3707 129.799 84.4391 129.188L85.3759 120.827C85.4561 120.111 84.8961 119.485 84.1761 119.485H75.7681C75.0481 119.485 74.4882 120.111 74.5683 120.827L75.5051 129.188C75.5735 129.799 76.0901 130.261 76.7048 130.261Z" stroke="#EA6067" stroke-width="2" stroke-linecap="round" stroke-linejoin="round"/>
</svg>
