<svg width="160" height="160" viewBox="0 0 160 160" fill="none" xmlns="http://www.w3.org/2000/svg">
<path d="M38.4686 118.308H13.275C11.1837 118.308 9.48828 116.612 9.48828 114.521V54.0636C9.48828 51.9722 11.1837 50.2768 13.275 50.2768H146.726C148.818 50.2768 150.513 51.9722 150.513 54.0636V114.521C150.513 116.612 148.818 118.308 146.726 118.308H121.801M38.6552 92.1319H35.272C33.1806 92.1319 31.4853 90.4365 31.4853 88.3452V74.3185C31.4853 72.2271 33.1806 70.5317 35.272 70.5317H124.731C126.823 70.5317 128.518 72.2271 128.518 74.3185V88.3452C128.518 90.4365 126.823 92.1319 124.731 92.1319H121.72M113.125 50.277V14.6974C113.125 12.606 111.429 10.9106 109.338 10.9106H50.6643C48.573 10.9106 46.8776 12.606 46.8776 14.6974V50.277M133.074 50.2771V34.3807C133.074 32.2893 131.379 30.5939 129.287 30.5939H113.28M26.9268 50.2771V34.3807C26.9268 32.2893 28.6222 30.5939 30.7136 30.5939H46.8206M38.4149 122.879L62.9935 100.051C64.4568 98.6921 66.7242 98.7031 68.1743 100.076L95.7122 126.156C96.8637 127.246 98.5729 127.504 99.9945 126.801L108.845 122.424C110.257 121.726 111.954 121.975 113.106 123.049L121.588 130.957M42.2021 149.089H117.802C119.894 149.089 121.589 147.394 121.589 145.302V82.7284C121.589 80.637 119.894 78.9416 117.802 78.9416H42.2021C40.1107 78.9416 38.4153 80.637 38.4153 82.7284V145.302C38.4153 147.394 40.1107 149.089 42.2021 149.089ZM110.724 97.6345C110.724 103.691 105.814 108.601 99.7574 108.601C93.7007 108.601 88.7908 103.691 88.7908 97.6345C88.7908 91.5779 93.7007 86.668 99.7574 86.668C105.814 86.668 110.724 91.5779 110.724 97.6345Z" stroke="#EA6067" stroke-width="2" stroke-linecap="round" stroke-linejoin="round"/>
</svg>
