<svg width="160" height="160" viewBox="0 0 160 160" fill="none" xmlns="http://www.w3.org/2000/svg">
<path d="M73.0151 46.9193H9.84806C8.55989 46.9193 7.51562 47.9635 7.51562 49.2517V88.9289C7.51562 90.2171 8.55989 91.2613 9.84806 91.2613H23.0439C24.3321 91.2613 25.3764 92.3056 25.3764 93.5938V113.395C25.3764 114.684 26.4207 115.728 27.7088 115.728H73.0151M120.351 29.6319L116.558 22.5149C116.153 21.7544 115.362 21.2793 114.5 21.2793M114.5 21.2793H100.965M114.5 21.2793H114.774M100.965 21.2793H100.691M100.965 21.2793C100.103 21.2793 99.3119 21.7544 98.9067 22.5149L95.1143 29.6319M95.1143 130.369L98.9067 137.486C99.3119 138.246 100.103 138.721 100.965 138.721M100.965 138.721H114.5M100.965 138.721H100.691M114.5 138.721H114.774M114.5 138.721C115.362 138.721 116.153 138.246 116.558 137.486L120.351 130.369M130.822 47.2185V59.0363M130.822 65.2024V111.19M147.072 40.4586H68.3926C65.4029 40.4586 62.9793 38.035 62.9793 35.0452C62.9793 32.0555 65.4029 29.6319 68.3926 29.6319H147.072C150.062 29.6319 152.486 32.0555 152.486 35.0452C152.486 38.035 150.062 40.4586 147.072 40.4586ZM68.3926 119.542L147.072 119.542C150.062 119.542 152.486 121.966 152.486 124.956C152.486 127.945 150.062 130.369 147.072 130.369L68.3926 130.369C65.4029 130.369 62.9793 127.945 62.9793 124.956C62.9793 121.966 65.4029 119.542 68.3926 119.542ZM142.449 40.4587H73.0151V119.542H142.449V40.4587ZM65.1648 59.0419C66.3718 59.0419 67.3503 58.0634 67.3503 56.8564V53.3195C67.3503 52.1125 66.3718 51.134 65.1648 51.134C63.9578 51.134 62.9793 52.1125 62.9793 53.3195V56.8564C62.9793 58.0634 63.9578 59.0419 65.1648 59.0419ZM65.1648 111.64C66.3718 111.64 67.3503 110.662 67.3503 109.455V105.918C67.3503 104.711 66.3718 103.732 65.1648 103.732C63.9578 103.732 62.9793 104.711 62.9793 105.918V109.455C62.9793 110.662 63.9578 111.64 65.1648 111.64ZM50.1384 59.0419C51.3454 59.0419 52.3239 58.0634 52.3239 56.8564V53.3195C52.3239 52.1125 51.3454 51.134 50.1384 51.134C48.9313 51.134 47.9528 52.1125 47.9528 53.3195V56.8564C47.9528 58.0634 48.9313 59.0419 50.1384 59.0419ZM50.1384 111.64C51.3454 111.64 52.3239 110.662 52.3239 109.455V105.918C52.3239 104.711 51.3454 103.732 50.1384 103.732C48.9313 103.732 47.9528 104.711 47.9528 105.918V109.455C47.9528 110.662 48.9313 111.64 50.1384 111.64ZM35.1119 59.0419C36.3189 59.0419 37.2974 58.0634 37.2974 56.8564V53.3195C37.2974 52.1125 36.3189 51.134 35.1119 51.134C33.9049 51.134 32.9264 52.1125 32.9264 53.3195V56.8564C32.9264 58.0634 33.9049 59.0419 35.1119 59.0419ZM35.1119 111.64C36.3189 111.64 37.2974 110.662 37.2974 109.455V105.918C37.2974 104.711 36.3189 103.732 35.1119 103.732C33.9049 103.732 32.9264 104.711 32.9264 105.918V109.455C32.9264 110.662 33.9049 111.64 35.1119 111.64ZM20.0855 59.0419C21.2925 59.0419 22.271 58.0634 22.271 56.8564V53.3195C22.271 52.1125 21.2925 51.134 20.0855 51.134C18.8785 51.134 17.9 52.1125 17.9 53.3195V56.8564C17.9 58.0634 18.8785 59.0419 20.0855 59.0419Z" stroke="#EA6067" stroke-width="2" stroke-linecap="round" stroke-linejoin="round"/>
</svg>
