<svg width="160" height="160" viewBox="0 0 160 160" fill="none" xmlns="http://www.w3.org/2000/svg">
<path d="M56.3743 16.8013H44.0229C41.1155 16.8013 38.7586 19.1582 38.7586 22.0655L38.7585 33.3087M56.3743 16.8013H128.858C131.765 16.8013 134.122 19.1582 134.122 22.0655V137.934C134.122 140.841 131.765 143.198 128.858 143.198H56.3743M56.3743 16.8013V143.198M56.3743 143.198H44.0229C41.1155 143.198 38.7586 140.841 38.7586 137.934V125.993M38.7596 55.0374L38.7586 41.4208M38.7596 76.2912V62.5159M38.7596 97.6705V83.8952M38.7586 118.719V105.054M70.0516 93.2477L91.6525 76.0954C92.5132 75.4119 93.7548 75.5054 94.5035 76.31L104.165 86.6922M104.165 86.6922L125.35 111.799M104.165 86.6922L111.342 81.5851C112.134 81.0215 113.209 81.0734 113.944 81.7106L125.35 91.612M69.8737 124.638H110.544M29.6774 41.5434H44.4557C46.5535 41.5434 48.2542 39.8427 48.2542 37.7449C48.2542 35.6471 46.5535 33.9464 44.4557 33.9464H29.6774C27.5795 33.9464 25.8789 35.6471 25.8789 37.7449C25.8789 39.8427 27.5795 41.5434 29.6774 41.5434ZM29.6774 83.7982H44.4557C46.5535 83.7982 48.2542 82.0976 48.2542 79.9998C48.2542 77.9019 46.5535 76.2013 44.4557 76.2013H29.6774C27.5795 76.2013 25.8789 77.9019 25.8789 79.9998C25.8789 82.0976 27.5795 83.7982 29.6774 83.7982ZM29.6774 62.6709H44.4557C46.5535 62.6709 48.2542 60.9703 48.2542 58.8725C48.2542 56.7746 46.5535 55.074 44.4557 55.074H29.6774C27.5795 55.074 25.8789 56.7746 25.8789 58.8725C25.8789 60.9703 27.5795 62.6709 29.6774 62.6709ZM29.6774 104.926H44.4557C46.5535 104.926 48.2542 103.225 48.2542 101.127C48.2542 99.0295 46.5535 97.3288 44.4557 97.3288H29.6774C27.5795 97.3288 25.8789 99.0295 25.8789 101.127C25.8789 103.225 27.5795 104.926 29.6774 104.926ZM29.6774 126.053H44.4557C46.5535 126.053 48.2542 124.352 48.2542 122.255C48.2542 120.157 46.5535 118.456 44.4557 118.456H29.6774C27.5795 118.456 25.8789 120.157 25.8789 122.255C25.8789 124.352 27.5795 126.053 29.6774 126.053ZM71.7285 114.606H123.28C124.443 114.606 125.386 113.664 125.386 112.501V32.7455C125.386 31.5826 124.443 30.6398 123.28 30.6398H71.7285C70.5656 30.6398 69.6228 31.5826 69.6228 32.7455V112.501C69.6228 113.664 70.5656 114.606 71.7285 114.606ZM113.474 52.4701C113.474 56.006 110.607 58.8725 107.071 58.8725C103.535 58.8725 100.669 56.006 100.669 52.4701C100.669 48.9342 103.535 46.0678 107.071 46.0678C110.607 46.0678 113.474 48.9342 113.474 52.4701Z" stroke="#EA6067" stroke-width="2" stroke-linecap="round" stroke-linejoin="round"/>
</svg>
