<svg width="160" height="160" viewBox="0 0 160 160" fill="none" xmlns="http://www.w3.org/2000/svg">
<path d="M104.707 34.514L96.4705 29.7586M104.707 34.514C106.962 35.8157 107.457 39.1788 105.813 42.0256L99.6122 52.7663M104.707 34.514L112.71 20.7672C113.368 19.6285 113.17 18.2832 112.268 17.7625L107.232 14.855C106.33 14.3344 105.066 14.8354 104.408 15.9742L96.4705 29.7586M96.4705 29.7586C94.2159 28.4569 91.0557 29.7095 89.4121 32.5564L83.211 43.297M42.4132 132.899L41.7083 128.697C40.8249 123.366 40.3628 117.512 43.4705 112.129L48.8156 102.872M42.4132 132.899L46.4049 131.409C52.0731 128.688 56.764 126.981 59.8717 121.599L65.2168 112.341M42.4132 132.899L39.8582 137.325M83.211 43.297L48.8156 102.872M83.211 43.297L99.6122 52.7663M83.211 43.297L80.8179 41.9153C77.6614 40.093 73.2393 41.8479 70.9382 45.8335L55.1797 73.1281C54.0747 75.0421 52.4127 76.53 50.5595 77.2646L44.8764 79.5173M48.8156 102.872L65.2168 112.341M65.2168 112.341L99.6122 52.7663M21.5605 145.351C101.041 145.351 81.8227 131.931 138.44 130.095" stroke="white" stroke-width="2" stroke-linecap="round" stroke-linejoin="round"/>
</svg>
