<svg width="160" height="160" viewBox="0 0 160 160" fill="none" xmlns="http://www.w3.org/2000/svg">
<path d="M136.96 10.8439V5.77295C136.96 4.66838 136.065 3.77295 134.96 3.77295H18.5195C17.415 3.77295 16.5195 4.66838 16.5195 5.77295V147.276C16.5195 148.38 17.415 149.276 18.5195 149.276H23.7213M131.302 133.993V150.593M139.602 142.293H123.002M38.573 56.0832H61.4295M38.573 63.6868H61.4295M38.573 35.0431H61.4295M38.573 27.4395H61.4295M38.573 48.4795H61.4295M38.5732 122.128H61.4298M38.5732 129.731H61.4298M38.5732 101.087H61.4298M38.5732 93.4838H61.4298M38.5732 114.524H61.4298M87.5099 56.0832H110.366M87.5099 63.6868H110.366M87.5099 35.0431H110.366M87.5099 27.4395H110.366M87.5099 48.4795H110.366M87.5099 122.128H110.366M87.5099 129.731H110.366M87.5099 101.087H110.366M87.5099 93.4838H110.366M87.5099 114.524H110.366M133.408 19.6827V22.9532M133.409 28.0404V31.3109M133.408 36.3983V39.6688M133.408 44.7562V48.0268M133.408 61.4716V64.7421M133.408 69.8293V73.0998M133.409 53.114V56.3845M25.038 156.227H141.479C142.583 156.227 143.479 155.331 143.479 154.227V12.7241C143.479 11.6195 142.583 10.7241 141.479 10.7241H25.038C23.9335 10.7241 23.038 11.6195 23.038 12.7241V154.227C23.038 155.331 23.9335 156.227 25.038 156.227ZM137.092 142.293C137.092 145.49 134.499 148.083 131.302 148.083C128.104 148.083 125.511 145.49 125.511 142.293C125.511 139.095 128.104 136.503 131.302 136.503C134.499 136.503 137.092 139.095 137.092 142.293ZM33.8674 72.1007H66.1351C67.335 72.1007 68.3076 71.1281 68.3076 69.9283V21.4334C68.3076 20.2336 67.335 19.261 66.1351 19.261H33.8674C32.6676 19.261 31.6949 20.2336 31.6949 21.4334V69.9283C31.6949 71.1281 32.6676 72.1007 33.8674 72.1007ZM33.8676 138.145H66.1354C67.3352 138.145 68.3078 137.172 68.3078 135.973V87.4778C68.3078 86.278 67.3352 85.3053 66.1354 85.3053H33.8676C32.6678 85.3053 31.6951 86.278 31.6951 87.4778V135.973C31.6951 137.172 32.6678 138.145 33.8676 138.145ZM82.8043 72.1008H115.072C116.272 72.1008 117.245 71.1281 117.245 69.9283V21.4335C117.245 20.2336 116.272 19.261 115.072 19.261H82.8043C81.6045 19.261 80.6319 20.2336 80.6319 21.4335V69.9283C80.6319 71.1281 81.6045 72.1008 82.8043 72.1008ZM82.8043 138.145H115.072C116.272 138.145 117.245 137.172 117.245 135.973V87.4778C117.245 86.278 116.272 85.3053 115.072 85.3053H82.8043C81.6045 85.3053 80.6319 86.278 80.6319 87.4778V135.973C80.6319 137.172 81.6045 138.145 82.8043 138.145Z" stroke="white" stroke-width="2" stroke-linecap="round" stroke-linejoin="round"/>
</svg>
