<svg width="160" height="160" viewBox="0 0 160 160" fill="none" xmlns="http://www.w3.org/2000/svg">
<path d="M34.2856 59.4049H7.91897C6.18821 59.4049 4.78516 60.808 4.78516 62.5387V92.1552C4.78516 93.8859 6.18822 95.289 7.91898 95.289H143.163C144.894 95.289 146.297 93.8859 146.297 92.1552V62.5387C146.297 60.808 144.894 59.4049 143.163 59.4049H117.415M146.297 67.9956H152.079C153.809 67.9956 155.213 69.3987 155.213 71.1294V82.4059C155.213 84.1366 153.809 85.5397 152.079 85.5397H146.297M116.796 82.0549V16.1912C116.796 14.4604 115.393 13.0574 113.662 13.0574H37.4194C35.6887 13.0574 34.2856 14.4604 34.2856 16.1912V82.0549M129.836 82.0549H21.2454M101.596 26.8234H41.6585M88.7668 38.7831H41.6585M88.7668 49.6555H41.6585M88.601 62.5387H41.4928M127.665 96.0671V137.178C127.665 138.477 126.612 139.53 125.313 139.53H26.2426C24.9437 139.53 23.8907 138.477 23.8907 137.178V96.0671M134.93 95.3638V139.887C134.93 143.784 131.771 146.943 127.875 146.943H23.5457C19.6491 146.943 16.4902 143.784 16.4902 139.887V95.3638M47.231 108.873C47.231 112.042 44.6619 114.611 41.4928 114.611C38.3236 114.611 35.7546 112.042 35.7546 108.873C35.7546 105.704 38.3236 103.135 41.4928 103.135C44.6619 103.135 47.231 105.704 47.231 108.873ZM92.6285 108.873C92.6285 112.042 90.0594 114.611 86.8903 114.611C83.7212 114.611 81.1521 112.042 81.1521 108.873C81.1521 105.704 83.7212 103.135 86.8903 103.135C90.0594 103.135 92.6285 105.704 92.6285 108.873ZM80.3901 127.27C80.3901 130.439 77.821 133.008 74.6519 133.008C71.4828 133.008 68.9137 130.439 68.9137 127.27C68.9137 124.101 71.4828 121.532 74.6519 121.532C77.821 121.532 80.3901 124.101 80.3901 127.27ZM69.9297 108.873C69.9297 112.042 67.3606 114.611 64.1915 114.611C61.0224 114.611 58.4533 112.042 58.4533 108.873C58.4533 105.704 61.0224 103.135 64.1915 103.135C67.3606 103.135 69.9297 105.704 69.9297 108.873ZM57.6913 127.27C57.6913 130.439 55.1222 133.008 51.9531 133.008C48.784 133.008 46.2149 130.439 46.2149 127.27C46.2149 124.101 48.784 121.532 51.9531 121.532C55.1222 121.532 57.6913 124.101 57.6913 127.27ZM115.327 108.873C115.327 112.042 112.758 114.611 109.589 114.611C106.42 114.611 103.851 112.042 103.851 108.873C103.851 105.704 106.42 103.135 109.589 103.135C112.758 103.135 115.327 105.704 115.327 108.873ZM103.089 127.27C103.089 130.439 100.52 133.008 97.3506 133.008C94.1815 133.008 91.6124 130.439 91.6124 127.27C91.6124 124.101 94.1815 121.532 97.3506 121.532C100.52 121.532 103.089 124.101 103.089 127.27Z" stroke="white" stroke-width="2" stroke-linecap="round" stroke-linejoin="round"/>
</svg>
