<svg width="160" height="160" viewBox="0 0 160 160" fill="none" xmlns="http://www.w3.org/2000/svg">
<path d="M81.0099 69.7047H123.48M63.6326 45.3514H123.48M63.6326 34.1995H123.48M81.0099 87.4573H123.48M81.0099 105.21H123.48M34.6866 122.963L123.48 122.963M24.5467 18.2146V23.7336M24.5467 29.928L24.5467 35.4469M24.5467 41.6414L24.5467 47.1603M24.5467 53.3548L24.5467 58.8737M24.4647 88.4949L24.4647 94.0138M24.5467 65.0681L24.5467 70.5871M24.5467 100.208L24.5467 105.727M24.5467 111.922L24.5467 117.441M24.4647 123.635L24.4647 129.154M24.5467 135.347L24.5467 140.866M24.5467 76.7815L24.5467 82.3004M134.144 18.2151V23.734M134.144 29.9285V35.4474M134.144 41.6419V47.1608M134.144 53.3553V58.8742M134.062 88.4954V94.0143M134.144 65.0686V70.5876M134.144 100.209V105.728M134.144 111.922V117.441M134.062 123.636V129.154M134.144 135.347V140.866M134.144 76.782V82.3009M114.93 10.4837L109.411 10.4837M125.95 10.4837L120.431 10.4837M81.8718 10.4837L76.3529 10.4837M103.911 10.4837L98.392 10.4837M70.8523 10.4837L65.3334 10.4837M59.8328 10.4837L54.3138 10.4837M48.8132 10.4837L43.2943 10.4837M37.7937 10.4837L32.2748 10.4837M92.8913 10.4837L87.3724 10.4837M114.931 148.49H109.412M125.95 148.49H120.431M81.8722 148.49H76.3533M103.911 148.49H98.3923M70.8527 148.49H65.3337M59.8331 148.49H54.3142M48.8136 148.49H43.2947M37.7941 148.49H32.2751M92.8917 148.49H87.3728M138.256 148.489L128.72 139.232L128.81 152.522L132.792 148.771L138.256 148.489ZM21.7423 7.47733H27.1864V13.4085H21.7423V7.47733ZM131.124 7.47729H137.165V13.4085H131.124V7.47729ZM21.7422 145.469H27.1863V151.51H21.7422V145.469ZM34.6864 27.1542V34.728H39.2719V31.8621H43.325V44.5129H39.886V49.2621H51.6768V44.5129H48.2377V31.8621H52.2909V34.728H56.8763V27.1542H34.6864ZM37.1571 106.295H72.1406C72.6929 106.295 73.1406 105.848 73.1406 105.295V70.7047C73.1406 70.1524 72.6929 69.7047 72.1406 69.7047H37.1571C36.6048 69.7047 36.1571 70.1524 36.1571 70.7047V105.295C36.1571 105.848 36.6048 106.295 37.1571 106.295Z" stroke="white" stroke-width="2" stroke-linecap="round" stroke-linejoin="round"/>
</svg>
