<svg width="21" height="25" viewBox="0 0 21 25" fill="none" xmlns="http://www.w3.org/2000/svg">
<path d="M12.9583 0.5H3.80359C2.87512 0.5 2.12244 1.25268 2.12244 2.18115V13.5258M12.9583 0.5V4.8161C12.9583 5.74458 13.711 6.49725 14.6395 6.49725H19.7396M12.9583 0.5L19.7396 6.49725M19.7396 6.49725V22.145C19.7396 23.0735 18.9869 23.8262 18.0584 23.8262H3.80366C2.87518 23.8262 2.12251 23.0735 2.12251 22.145V21.563M3.79009 19.348L3.79005 17.6753M3.79005 17.6753L3.79009 15.5047H4.92002C5.5194 15.5047 6.0053 15.9906 6.0053 16.59C6.0053 17.1894 5.5194 17.6753 4.92002 17.6753H3.79005ZM14.0227 15.3088H12.1391L12.1391 17.4793M12.1391 19.1521L12.1391 17.4793M12.1391 17.4793H13.6008M7.84284 19.348C7.8428 19.309 7.84412 19.348 7.84412 19.348M7.84412 19.348C7.84412 19.348 7.84283 16.0802 7.84284 15.5047H8.75424C9.68249 15.5047 10.4351 16.257 10.4354 17.1853L10.4356 17.6663C10.4359 18.595 9.68311 19.348 8.75441 19.348H7.84412ZM0.500035 19.9032L0.5 15.2363C0.499993 14.3078 1.25267 13.5552 2.18115 13.5552H14.8911C15.8196 13.5552 16.5722 14.3078 16.5722 15.2363V19.9032C16.5722 20.8317 15.8196 21.5844 14.8911 21.5844H2.18118C1.25272 21.5844 0.500042 20.8317 0.500035 19.9032Z" stroke="#6BA0E5" stroke-linecap="round"/>
</svg>
