<svg width="160" height="160" viewBox="0 0 160 160" fill="none" xmlns="http://www.w3.org/2000/svg">
<g clip-path="url(#clip0_162_3444)">
<path d="M127.244 110.264L143.167 124.399C144.272 125.38 144.017 126.52 142.594 126.955L77.5472 146.842C76.1129 147.28 74.0327 146.839 72.8989 145.855L2.52043 84.8113C1.39591 83.836 1.62259 82.6912 3.02908 82.2424L17.0878 77.7571M11.5551 52.4171L21.9713 61.4718C23.1043 62.4567 22.859 63.6109 21.4233 64.0498L6.61847 68.5761M11.5551 52.4171L6.61847 68.5761M11.5551 52.4171L69.0749 38.2224C70.5189 37.866 72.4845 38.3257 73.5606 39.2713L145.397 102.401C146.516 103.384 146.266 104.531 144.837 104.968L76.1522 125.966C74.7166 126.405 72.6343 125.963 71.5013 124.978L6.61847 68.5761M39.9856 81.3537L87.7058 67.4149M49.8109 89.8946L95.8635 74.298M59.4008 98.2316L104.786 82.7107M88.2576 103.145L156.933 82.1487C158.369 81.7098 158.614 80.5555 157.481 79.5706L82.2202 14.1472C81.0724 13.1494 78.9547 12.7106 77.5217 13.1735L9.56806 35.126C8.16892 35.578 7.94881 36.7216 9.07368 37.6945L83.6128 102.162C84.7477 103.143 86.825 103.583 88.2576 103.145Z" stroke="white" stroke-width="2" stroke-linecap="round" stroke-linejoin="round"/>
</g>
<defs>
<clipPath id="clip0_162_3444">
<rect width="160" height="160" fill="white"/>
</clipPath>
</defs>
</svg>
