<svg width="160" height="160" viewBox="0 0 160 160" fill="none" xmlns="http://www.w3.org/2000/svg">
<path d="M126.794 73.0919L125.176 78.4277C124.946 79.0241 124.238 79.2741 123.684 78.9544L90.5185 59.8064C89.9801 59.4955 89.832 58.7853 90.2015 58.2852L93.7375 54.0064M139.664 38.1822L148.78 22.392C152.253 16.377 150.192 8.68561 144.177 5.21284C138.162 1.74007 130.471 3.80098 126.998 9.81599L117.882 25.6062M139.664 38.1822L122.247 57.5118M139.664 38.1822C130.011 34.6798 125.294 32.0354 117.882 25.6062M117.882 25.6062L109.851 50.3549M57.1349 129.3H102.776M57.1349 122.3H102.776M114.691 73.6417V142.743C114.691 143.731 113.89 144.532 112.902 144.532H47.01C46.0216 144.532 45.2204 143.731 45.2204 142.743V60.99C45.2204 60.0016 46.0216 59.2004 47.01 59.2004H89.8531M90.3154 51.3495H42.9C39.9349 51.3495 37.5312 53.7532 37.5312 56.7183V147.106C37.5312 150.071 39.9349 152.474 42.9 152.474H116.828C119.793 152.474 122.197 150.071 122.197 147.106V78.4341M91.1007 52.7128L129.58 74.9287C131.075 75.7917 132.986 75.2796 133.849 73.7848L136.325 69.4957C137.188 68.0009 136.676 66.0896 135.181 65.2265L96.7022 43.0106C95.2074 42.1476 93.296 42.6598 92.433 44.1546L89.9567 48.4436C89.0937 49.9384 89.6059 51.8498 91.1007 52.7128ZM77.7763 77.9258L70.0178 100.739C69.7941 101.382 69.5551 101.984 69.3035 102.543C69.052 103.102 68.7592 103.689 68.4238 104.304C68.3698 104.403 68.3075 104.502 68.2485 104.607L66.0746 105.059L66.2843 107.702C66.8994 107.674 67.5854 107.646 68.3402 107.618C69.1226 107.59 69.8631 107.563 70.5616 107.535C71.2606 107.507 71.7792 107.492 72.1147 107.492H76.2233L76.4329 104.766L73.7283 104.435C73.7352 104.377 73.7419 104.319 73.7496 104.263C73.8334 103.648 73.9587 103.061 74.1264 102.502L75.1306 99.2715H83.4461L84.1079 101.454C84.3594 102.152 84.5416 102.893 84.6534 103.675C84.6944 103.896 84.7345 104.15 84.7779 104.433L81.9701 105.059L82.1797 107.702C82.9904 107.674 83.9271 107.646 84.9892 107.618C86.0792 107.59 87.0714 107.563 87.9659 107.535C88.8879 107.507 89.5174 107.492 89.8531 107.492H93.6275L93.8372 104.766L91.2685 104.337C91.1887 104.176 91.1108 104.01 91.0276 103.844C90.6921 103.173 90.4126 102.501 90.1889 101.83L81.7178 77.4638L77.7763 77.9258ZM82.5057 96.1687H76.0938L79.3391 85.7252L82.5057 96.1687Z" stroke="white" stroke-width="2" stroke-linecap="round"/>
</svg>
