<svg width="160" height="160" viewBox="0 0 160 160" fill="none" xmlns="http://www.w3.org/2000/svg">
<path d="M35.3027 44.9898L35.3029 31.225C35.303 27.046 38.6907 23.6583 42.8697 23.6583H116.355C120.535 23.6583 123.922 27.0461 123.922 31.2251V44.9898M35.3027 44.9898H123.922M35.3027 44.9898L35.3029 100.396M123.922 44.9898V100.396M123.922 100.396H35.3029M123.922 100.396V123.536M35.3029 100.396L35.3029 123.536M35.3029 123.536L35.303 139.108C35.303 143.287 38.6908 146.675 42.8698 146.675H116.355C120.535 146.675 123.922 143.287 123.922 139.108V123.536M35.3029 123.536H123.922M65.9189 114.092H93.3064M46.0079 35.0092H73.3954M14.0216 67.4995H35.3027M14.0216 59.6561H35.3027M37.5976 25.7334L46.8644 14.8465C47.686 13.8813 48.8896 13.3252 50.157 13.3252H109.058C110.332 13.3252 111.541 13.887 112.363 14.8607L121.159 25.2859M65.9188 136.662H93.3063M125.372 96.0617H151.485C152.679 96.0617 153.647 95.0937 153.647 93.8997V71.4162M125.372 89.6937H146.546M125.372 83.2078H146.546M125.372 76.722H146.546M125.372 70.2361H146.546M125.372 63.7503H146.546M35.3027 74.9649H8.51644C7.32243 74.9649 6.35449 75.9328 6.35449 77.1268V85.1761C6.35449 86.3701 7.32243 87.338 8.51644 87.338H35.3027M90.4447 35.0091C90.4447 36.5707 89.1788 37.8366 87.6172 37.8366C86.0556 37.8366 84.7896 36.5707 84.7896 35.0091C84.7896 33.4475 86.0556 32.1815 87.6172 32.1815C89.1788 32.1815 90.4447 33.4475 90.4447 35.0091ZM101.475 35.0091C101.475 36.5707 100.209 37.8366 98.647 37.8366C97.0854 37.8366 95.8195 36.5707 95.8195 35.0091C95.8195 33.4475 97.0854 32.1815 98.647 32.1815C100.209 32.1815 101.475 33.4475 101.475 35.0091ZM112.504 35.0091C112.504 36.5707 111.238 37.8366 109.677 37.8366C108.115 37.8366 106.849 36.5707 106.849 35.0091C106.849 33.4475 108.115 32.1815 109.677 32.1815C111.238 32.1815 112.504 33.4475 112.504 35.0091Z" stroke="white" stroke-width="2" stroke-linecap="round"/>
</svg>
