<svg width="160" height="160" viewBox="0 0 160 160" fill="none" xmlns="http://www.w3.org/2000/svg">
<path d="M82.2918 128.468C87.8262 133.291 95.5749 138.272 98.6743 143.032M44.8672 41.371C48.1179 42.0213 78.6762 48.3061 95.3646 71.0628C112.053 93.8195 113.353 118.743 145.212 121.344M45.2544 31.9577H129.907C138.418 31.9577 145.317 38.8572 145.317 47.3682V137.087M44.4829 21.6625H30.6927C21.6144 21.6625 14.2549 29.022 14.2549 38.1003V110.168M60.058 31.2383C59.495 29.5485 47.8075 19.4108 53.1584 7.30143M48.3084 128.31C48.4194 131.705 48.7128 139.005 49.6865 143.255M123.897 31.4947C123.654 29.3049 117.571 14.7077 115.382 7.89588M44.4995 21.6043V94.8648H31.0545C21.8107 94.8648 14.3171 102.358 14.3171 111.602C14.3171 120.846 21.8107 128.34 31.0545 128.34H133.536C140.28 128.34 145.746 133.806 145.746 140.55C145.746 147.293 140.28 152.76 133.536 152.76H119.406V143.803M133.238 127.875V141.359C133.238 142.493 132.318 143.413 131.183 143.413H27.0368C25.902 143.413 24.982 142.493 24.982 141.359V127.875M133.238 32.5691V9.29497C133.238 8.16017 132.318 7.24023 131.183 7.24023H27.0369C25.902 7.24023 24.9821 8.16026 24.9822 9.29511L24.983 22.038M60.0188 31.3081L62.9624 35.2324M66.6405 40.3828C68.1375 42.9252 70.3085 46.942 70.3085 46.942M73.0455 53.6728C74.5425 56.2152 75.1576 60.4117 75.1576 60.4117M75.7973 67.322C75.7973 69.5711 75.1584 74.8991 75.1584 74.8991M74.3195 81.7836C73.8405 84.298 73.4628 89.4461 73.4628 89.4461M72.7821 96.5869C72.4242 98.9078 73.0568 103.999 73.0568 103.999M74.2374 111.199C74.4543 113.259 76.514 118.531 76.514 118.531M79.567 124.464C80.4482 126.162 82.4154 128.264 82.4154 128.264M48.7712 124.676C48.301 126.13 48.4069 127.882 48.4069 127.882M53.1066 112.198C51.7425 114.109 50.7478 116.867 50.3391 118.54M61.6693 101.531C59.6403 102.728 57.9205 104.653 56.7782 106.683M72.2487 93.88C70.0687 94.9154 68.4065 95.9236 66.1027 97.7047M84.589 89.2734C82.2713 89.6368 80.5444 90.3639 77.9636 91.3587M97.8371 86.6815C95.5194 87.0448 93.4973 87.3072 90.904 87.7001M111.165 81.3274C109.366 82.8689 106.861 84.025 104.264 85.0319M121.442 70.9223C119.892 73.4943 118.615 75.4182 116.725 77.1804M125.939 57.081C125.384 60.2277 124.89 62.7576 124.014 64.5974M125.866 42.5971C126.371 45.6293 126.371 48.2137 126.371 50.118V50.1365M124.014 32.0515C124.155 32.7737 124.605 34.1775 124.913 35.7497" stroke="white" stroke-width="2" stroke-linecap="round" stroke-linejoin="round"/>
</svg>
