<svg width="160" height="160" viewBox="0 0 160 160" fill="none" xmlns="http://www.w3.org/2000/svg">
<path d="M70.578 100.083L92.7818 74.1972C93.3993 73.4773 94.5224 73.5065 95.1015 74.2577L105.508 87.7548M105.508 87.7548L115.553 100.083M105.508 87.7548L112.644 81.6105C113.25 81.0888 114.159 81.1359 114.708 81.7176L130.85 98.8275M70.578 112.259L131.771 112.259M70.9163 125.005H130.85M70.9163 137.75H130.85M54.8818 44.1979L97.9099 19.3556C99.2351 18.5905 98.6923 16.5647 97.1621 16.5647H20.1129C17.6348 16.5647 15.626 18.5736 15.626 21.0516V113.831C15.626 116.309 17.6348 118.318 20.1129 118.318H54.8818M54.8818 44.1979V118.318M54.8818 44.1979H98.8321M54.8818 118.318V147.322C54.8818 149.8 56.8906 151.809 59.3687 151.809H139.887C142.365 151.809 144.374 149.8 144.374 147.322V48.6849C144.374 46.2068 142.365 44.1979 139.887 44.1979H98.8321M98.8321 44.1979V17.6633M70.367 100.016H130.275C131.101 100.016 131.771 99.3463 131.771 98.5203V58.6052C131.771 57.7792 131.101 57.1096 130.275 57.1096H70.367C69.5409 57.1096 68.8713 57.7792 68.8713 58.6052V98.5203C68.8713 99.3463 69.5409 100.016 70.367 100.016ZM112.587 70.233C112.587 73.291 110.108 75.7701 107.05 75.7701C103.992 75.7701 101.513 73.291 101.513 70.233C101.513 67.1749 103.992 64.6959 107.05 64.6959C110.108 64.6959 112.587 67.1749 112.587 70.233Z" stroke="white" stroke-width="2" stroke-linecap="round" stroke-linejoin="round"/>
</svg>
