<svg width="160" height="160" viewBox="0 0 160 160" fill="none" xmlns="http://www.w3.org/2000/svg">
<path d="M70.2126 72.8707H112.676M70.2126 82.4329H112.676M127.906 74.0299L155.579 84.4177C156.962 84.9367 157.662 86.4783 157.143 87.861L137.16 141.097C136.641 142.48 135.099 143.18 133.716 142.661L33.8449 105.172M127.865 95.5266L138.616 99.5624C139.999 100.081 141.541 99.3813 142.06 97.9986L142.776 96.0899C143.295 94.7072 142.595 93.1656 141.212 92.6465L127.865 87.6363M113.508 105.451L133.863 113.089M94.5531 107.646L130.799 121.252M49.1093 87.1829C46.7055 81.2027 40.8517 76.9807 34.0117 76.9807C27.1717 76.9807 21.3179 81.2027 18.9141 87.1829M5.36065 105.401H125.17C126.647 105.401 127.844 104.204 127.844 102.727V39.8419C127.844 38.365 126.647 37.1677 125.17 37.1677H5.36065C3.88377 37.1677 2.68652 38.365 2.68652 39.8419V102.727C2.68652 104.204 3.88377 105.401 5.36065 105.401ZM62.2494 59.2555H113.591C115.068 59.2555 116.265 58.0583 116.265 56.5814V53.8275C116.265 52.3506 115.068 51.1534 113.591 51.1534H62.2494C60.7726 51.1534 59.5753 52.3506 59.5753 53.8275V56.5814C59.5753 58.0583 60.7726 59.2555 62.2494 59.2555ZM55.9716 71.2856C55.9716 83.4143 46.1393 93.2466 34.0105 93.2466C21.8818 93.2466 12.0495 83.4143 12.0495 71.2856C12.0495 59.1568 21.8818 49.3245 34.0105 49.3245C46.1393 49.3245 55.9716 59.1568 55.9716 71.2856ZM41.7334 65.1492C41.7334 69.4136 38.2764 72.8706 34.012 72.8706C29.7476 72.8706 26.2906 69.4136 26.2906 65.1492C26.2906 60.8848 29.7476 57.4278 34.012 57.4278C38.2764 57.4278 41.7334 60.8848 41.7334 65.1492Z" stroke="white" stroke-width="2" stroke-linecap="round"/>
</svg>
