<svg width="160" height="160" viewBox="0 0 160 160" fill="none" xmlns="http://www.w3.org/2000/svg">
<path d="M46.1037 75.0548H127.796M46.1037 102.938H85.2559M46.1037 88.9964H85.2559M46.1037 116.88H85.2559M46.1037 130.821H85.2559M104.002 23.6144H127.796M21.5889 28.0154H35.8705M21.5889 74.7621H35.8705M21.5889 59.1798H35.8705M21.5889 105.927H35.8705M21.5889 121.505H35.8705M21.5889 43.5976H35.8705M21.5889 90.3443H35.8705M21.5889 137.084H35.8705M104.002 37.556H127.796M104.002 51.4976H127.796M34.2289 150.007H132.912C135.949 150.007 138.411 147.394 138.411 144.169V15.8307C138.411 12.6065 135.949 9.99268 132.912 9.99268H33.9578C31.0704 9.99268 28.7297 12.3334 28.7297 15.2208V144.169C28.7297 147.394 31.1917 150.007 34.2289 150.007ZM47.8464 54.0232H88.3705C89.333 54.0232 90.1132 53.243 90.1132 52.2805V25.3571C90.1132 24.3946 89.333 23.6144 88.3705 23.6144H47.8464C46.884 23.6144 46.1037 24.3946 46.1037 25.3571V52.2805C46.1037 53.243 46.884 54.0232 47.8464 54.0232ZM97.3869 90.3443V130.868C97.3869 131.831 98.1672 132.611 99.1297 132.611H126.053C127.016 132.611 127.796 131.831 127.796 130.868V90.3443C127.796 89.3818 127.016 88.6016 126.053 88.6016H99.1297C98.1672 88.6016 97.3869 89.3818 97.3869 90.3443Z" stroke="white" stroke-width="2" stroke-linecap="round"/>
</svg>
