<svg width="97" height="97" viewBox="0 0 97 97" fill="none" xmlns="http://www.w3.org/2000/svg">
<path d="M72.6117 43.2589V53.7419H66.0711L69.2589 43.2589H72.6117Z" fill="#EA4886"/>
<path fill-rule="evenodd" clip-rule="evenodd" d="M93.7268 31.0286C94.7063 31.0287 95.2649 31.799 94.9629 32.7324C92.4071 40.6106 87.2967 56.3683 84.7401 64.2458C84.3779 65.3625 83.5402 65.9714 82.3684 65.9714H2.8065C1.82661 65.9714 1.26826 65.2018 1.5704 64.2691C4.12619 56.3893 9.23653 40.6324 11.7932 32.7541C12.156 31.6383 12.9924 31.0287 14.164 31.0286H93.7268ZM66.8957 39.7643L62.3605 53.7411H60.5255L59.3938 57.2365H77.8448L78.9765 53.7411H76.1012V39.7643H66.8957ZM20.5234 39.7643L14.8566 57.2357H18.6363L21.9 46.4968H21.9507L25.5185 57.2357H28.9021L32.4706 46.4968H32.5205L35.7866 57.2357H39.5648L33.8979 39.7643H31.2675L27.2352 52.1939H27.1861L23.1538 39.7643H20.5234ZM41.3076 39.7643V57.2357H57.5574L58.6913 53.7411H55.8153V39.7643H52.3266V53.7411H44.7971V39.7643H41.3076Z" fill="#EA4886"/>
<path d="M34.9686 85.6191V75.1191H39.5586C40.6986 75.1191 41.6986 75.3391 42.5586 75.7791C43.4186 76.2191 44.0886 76.8291 44.5686 77.6091C45.0486 78.3891 45.2886 79.3091 45.2886 80.3691C45.2886 81.4191 45.0486 82.3391 44.5686 83.1291C44.0886 83.9091 43.4186 84.5191 42.5586 84.9591C41.6986 85.3991 40.6986 85.6191 39.5586 85.6191H34.9686ZM36.9186 83.9691H39.4686C40.2486 83.9691 40.9286 83.8191 41.5086 83.5191C42.0886 83.2191 42.5336 82.7991 42.8436 82.2591C43.1636 81.7191 43.3236 81.0891 43.3236 80.3691C43.3236 79.6391 43.1636 79.0091 42.8436 78.4791C42.5336 77.9391 42.0886 77.5191 41.5086 77.2191C40.9286 76.9191 40.2486 76.7691 39.4686 76.7691H36.9186V83.9691ZM46.3297 85.6191V84.3141L50.4997 80.3541C50.8497 80.0241 51.1097 79.7341 51.2797 79.4841C51.4497 79.2341 51.5597 79.0041 51.6097 78.7941C51.6697 78.5741 51.6997 78.3691 51.6997 78.1791C51.6997 77.6991 51.5347 77.3291 51.2047 77.0691C50.8747 76.7991 50.3897 76.6641 49.7497 76.6641C49.2397 76.6641 48.7747 76.7541 48.3547 76.9341C47.9447 77.1141 47.5897 77.3891 47.2897 77.7591L45.9247 76.7091C46.3347 76.1591 46.8847 75.7341 47.5747 75.4341C48.2747 75.1241 49.0547 74.9691 49.9147 74.9691C50.6747 74.9691 51.3347 75.0941 51.8947 75.3441C52.4647 75.5841 52.8997 75.9291 53.1997 76.3791C53.5097 76.8291 53.6647 77.3641 53.6647 77.9841C53.6647 78.3241 53.6197 78.6641 53.5297 79.0041C53.4397 79.3341 53.2697 79.6841 53.0197 80.0541C52.7697 80.4241 52.4047 80.8391 51.9247 81.2991L48.3397 84.7041L47.9347 83.9691H54.0697V85.6191H46.3297Z" fill="#EA4886"/>
</svg>
