<svg width="97" height="97" viewBox="0 0 97 97" fill="none" xmlns="http://www.w3.org/2000/svg">
<path d="M88.0308 82.0315C88.0308 85.3453 85.3445 88.0315 82.0308 88.0315H14.9678C11.6541 88.0315 8.96777 85.3453 8.96777 82.0315V72.6169H15.3239C15.0513 71.5339 14.9114 70.422 14.9113 69.2864C14.9113 67.4745 15.2667 65.7106 15.9698 64.0522C16.646 62.4497 17.615 61.0111 18.8482 59.7799C20.0826 58.5455 21.5217 57.5793 23.1221 56.8998C24.7803 56.2012 26.5383 55.8447 28.3531 55.8446V59.3665C22.8876 59.385 18.4622 63.8143 18.4622 69.2896C18.4623 74.7682 22.9049 79.2118 28.3813 79.2119C32.6963 79.2119 36.3621 76.4597 37.7317 72.6169H69.6886V65.6278H73.5564V57.8955H69.6886V36.1754L62.4003 28.8887H8.96777V14.9685C8.96777 11.6548 11.6541 8.96851 14.9678 8.96851H82.0308C85.3445 8.96851 88.0308 11.6548 88.0308 14.9685V82.0315Z" fill="#6BA0E5"/>
<path d="M28.2976 63.2689C31.6273 63.2689 34.3216 65.9653 34.3216 69.2896C34.3215 72.6096 31.6272 75.3088 28.2976 75.3088C24.9766 75.3088 22.285 72.6096 22.2849 69.2896C22.2849 65.9653 24.9766 63.2689 28.2976 63.2689Z" fill="#6BA0E5"/>
<path d="M52.433 65.6431H42.9144V36.1754H52.433V65.6431Z" fill="#6BA0E5"/>
<path d="M65.8193 65.6431H56.3015V36.1754H65.8193V65.6431Z" fill="#6BA0E5"/>
<path d="M8.96777 36.1754H12.5701V48.2258H8.96777V36.1754Z" fill="#6BA0E5"/>
<path d="M39.0467 48.225H16.437V36.1754H39.0467V48.225Z" fill="#6BA0E5"/>
</svg>
