<svg width="74" height="74" viewBox="0 0 74 74" fill="none" xmlns="http://www.w3.org/2000/svg">
<path d="M73.3575 67.3575C73.3575 70.6712 70.6712 73.3575 67.3575 73.3575H6C2.6863 73.3575 0 70.6712 0 67.3575V59.0552H5.89746C5.64452 58.0504 5.51467 57.0187 5.51464 55.9651C5.51464 54.2839 5.84436 52.6473 6.49668 51.1086C7.1241 49.6217 8.02317 48.2869 9.16744 47.1446C10.3128 45.9993 11.648 45.1028 13.1329 44.4724C14.6714 43.8242 16.3025 43.4934 17.9864 43.4933V46.7611C12.9153 46.7782 8.80925 50.8878 8.80925 55.968C8.80933 61.0512 12.9314 65.1742 18.0125 65.1743C22.0162 65.1743 25.4174 62.6207 26.6882 59.0552H56.3389V52.5705H59.9275V45.3962H56.3389V25.2435L49.5766 18.4826H0V6C0 2.68629 2.68629 0 6 0H67.3575C70.6712 0 73.3575 2.68629 73.3575 6V67.3575Z" fill="#6BA0E5"/>
<path d="M17.9349 50.3818C21.0243 50.3818 23.5242 52.8836 23.5242 55.968C23.5241 59.0484 21.0242 61.5528 17.9349 61.5528C14.8536 61.5528 12.3562 59.0484 12.3561 55.968C12.3561 52.8836 14.8535 50.3818 17.9349 50.3818Z" fill="#6BA0E5"/>
<path d="M40.3285 52.5846H31.4969V25.2435H40.3285V52.5846Z" fill="#6BA0E5"/>
<path d="M52.7488 52.5846H43.9179V25.2435H52.7488V52.5846Z" fill="#6BA0E5"/>
<path d="M0 25.2435H3.34237V36.4243H0V25.2435Z" fill="#6BA0E5"/>
<path d="M27.9083 36.4235H6.93024V25.2435H27.9083V36.4235Z" fill="#6BA0E5"/>
</svg>
