<svg width="23" height="28" viewBox="0 0 23 28" fill="none" xmlns="http://www.w3.org/2000/svg">
<path d="M6.26917 6.4702V19.1305C6.26917 19.9729 6.95206 20.6558 7.79445 20.6558H15.9847M6.26917 6.4702V2.42518C6.26917 1.58279 6.95206 0.899902 7.79445 0.899902H19.8282C20.6705 0.899902 21.3534 1.58279 21.3534 2.42518V19.1305C21.3534 19.9729 20.6705 20.6558 19.8282 20.6558H15.9847M6.26917 6.4702H2.42567C1.58328 6.4702 0.900391 7.15309 0.900391 7.99548V24.7008C0.900391 25.5432 1.58328 26.2261 2.42567 26.2261H14.4594C15.3018 26.2261 15.9847 25.5432 15.9847 24.7008V20.6558" stroke="#6BA0E5" stroke-width="1.8"/>
</svg>
