<svg width="105" height="40" viewBox="0 0 105 40" fill="none" xmlns="http://www.w3.org/2000/svg">
<path d="M79.8054 13.7233V25.4859H72.4664L76.0433 13.7233H79.8054Z" fill="#B2B2B2"/>
<path fill-rule="evenodd" clip-rule="evenodd" d="M103.498 0C104.597 0.00019628 105.224 0.864527 104.885 1.91186C102.017 10.7518 96.283 28.433 93.4143 37.2721C93.0079 38.525 92.068 39.2083 90.7532 39.2083H1.47914C0.379628 39.2083 -0.246884 38.3447 0.0921437 37.2982C2.95992 28.4565 8.69407 10.7761 11.5628 1.93622C11.9699 0.684116 12.9085 0.000146759 14.2231 0H103.498ZM73.3916 9.80207L68.3028 25.485H66.2439L64.9741 29.4071H85.6773L86.9471 25.485H83.7208V9.80207H73.3916ZM21.3588 9.80207L15.0001 29.4062H19.2412L22.9034 17.3564H22.9603L26.9636 29.4062H30.7602L34.7644 17.3564H34.8203L38.4851 29.4062H42.7245L36.3659 9.80207H33.4144L28.8899 23.749H28.8347L24.3102 9.80207H21.3588ZM44.68 9.80207V29.4062H62.9134L64.1858 25.485H60.9587V9.80207H57.0441V25.485H48.5955V9.80207H44.68Z" fill="#B2B2B2"/>
</svg>
