<svg width="160" height="160" viewBox="0 0 160 160" fill="none" xmlns="http://www.w3.org/2000/svg">
<path d="M61.2734 14.4529C61.3753 21.1813 64.6861 34.6863 79.9782 35.1757C95.2703 34.6863 98.6238 21.1813 98.7257 14.4529M56.5967 16.6481C56.6986 23.3765 61.7482 40.1048 79.9782 40.1048C98.2082 40.1048 103.301 23.3765 103.402 16.6481M43.1617 50.4828C43.4796 55.8875 43.8267 62.7302 44.1328 70.2525M44.1328 70.2525C45.122 94.5549 45.6843 125.951 43.4586 138.867C43.3057 139.754 43.7917 140.626 44.6513 140.893C50.9322 142.841 65.0593 145.615 81.0462 145.615C97.0332 145.615 109.067 142.841 115.348 140.893C116.207 140.626 116.693 139.754 116.541 138.867C114.315 125.951 114.877 94.5549 115.866 70.2525M44.1328 70.2525L35.1612 81.2447C34.7851 81.7055 34.2032 81.9513 33.6121 81.8844C24.8965 80.898 19.9 77.7386 12.0528 68.4659C11.5841 67.9121 11.502 67.1319 11.8447 66.4924C18.7629 53.5822 32.6785 28.9526 37.2665 25.863C41.7554 22.8402 53.9745 17.2888 60.3453 14.5306C60.9192 14.2821 61.5723 14.3597 62.1004 14.6947C65.3604 16.7625 72.4202 20.1282 79.7449 20.1282C87.5901 20.1282 94.6387 16.7625 97.8988 14.6947C98.4269 14.3597 99.0799 14.2821 99.6538 14.5306C106.025 17.2888 118.244 22.8402 122.733 25.863C127.321 28.9526 141.236 53.5822 148.154 66.4924C148.497 67.1319 148.415 67.9121 147.946 68.4659C140.099 77.7386 135.103 80.898 126.387 81.8844C125.796 81.9513 125.214 81.7055 124.838 81.2447L115.866 70.2525M116.837 50.4828C116.52 55.8875 116.172 62.7302 115.866 70.2525M80.2705 76.6237C77.5005 73.1609 70.3163 67.8252 63.7399 74.1847C57.1635 80.5442 59.5543 90.2039 61.5717 94.2388C64.1911 98.5748 71.598 108.06 80.2705 111.312C88.9429 108.06 96.35 98.5748 98.9694 94.2388C100.987 90.2039 103.378 80.5442 96.8013 74.1847C90.2249 67.8252 83.0405 73.1609 80.2705 76.6237Z" stroke="white" stroke-width="2" stroke-linecap="round" stroke-linejoin="round"/>
</svg>
