<svg width="160" height="160" viewBox="0 0 160 160" fill="none" xmlns="http://www.w3.org/2000/svg">
<path d="M73.5436 25.8524L25.9453 73.4506L25.9453 63.3592L68.4979 20.8067M86.457 25.8524L134.055 73.4506V63.3592L91.5027 20.8067M119.764 120.783H40.2355M119.764 120.783L111.631 111.72M119.764 120.783V58.8417M40.2355 120.783L48.369 111.72M40.2355 120.783V58.3248M111.631 111.72H48.369M111.631 111.72V51.2832M48.369 111.72V51.2832M48.369 24.0128L40.2355 14.95M48.369 24.0128V41.2238M48.369 24.0128H64.867M40.2355 14.95V48.6312M40.2355 14.95H68.1995M111.631 24.0128L119.764 14.95M111.631 24.0128V40.4829M111.631 24.0128H95.0917M119.764 14.95V48.6312M119.764 14.95H91.6043M85.1871 134.974H94.6496L97.2924 146.752L107.832 146.563L101.671 120.851M74.9614 134.974H65.3502L62.5553 146.752L52.1684 146.563L58.4796 120.517M74.9614 127.374L67.2698 127.374L68.8878 120.517M85.1526 127.374H92.7742L91.1515 120.851M85.1526 127.374H84.7359M85.1526 127.374L85.1871 120.517M85.1526 127.374L85.0112 155.551H74.9893V120.517M91.7714 16.1652C91.7714 22.6356 86.5261 27.881 80.0557 27.881C73.5852 27.881 68.3399 22.6356 68.3399 16.1652C68.3399 9.69478 73.5852 4.44946 80.0557 4.44946C86.5261 4.44946 91.7714 9.69478 91.7714 16.1652ZM85.9959 15.971C85.9959 19.2823 83.3116 21.9667 80.0003 21.9667C76.689 21.9667 74.0046 19.2823 74.0046 15.971C74.0046 12.6597 76.689 9.97536 80.0003 9.97536C83.3116 9.97536 85.9959 12.6597 85.9959 15.971Z" stroke="white" stroke-width="2" stroke-linecap="round" stroke-linejoin="round"/>
</svg>
