<svg width="160" height="160" viewBox="0 0 160 160" fill="none" xmlns="http://www.w3.org/2000/svg">
<path d="M19.3203 111.486L67.8125 72.7673C68.9041 71.9005 70.4787 72.0191 71.4283 73.0395L83.6814 86.207M83.6814 86.207L110.549 118.049M83.6814 86.207L92.7845 79.7297C93.7891 79.0149 95.1525 79.0807 96.0835 79.889L139.021 116.986M111.472 58.6183C111.472 63.1028 107.837 66.7382 103.353 66.7382C98.8681 66.7382 95.2327 63.1028 95.2327 58.6183C95.2327 54.1338 98.8681 50.4984 103.353 50.4984C107.837 50.4984 111.472 54.1338 111.472 58.6183ZM22.9151 118.05H137.148C139.099 118.05 140.68 116.468 140.68 114.517V45.4828C140.68 43.532 139.099 41.9504 137.148 41.9504H22.9151C20.9642 41.9504 19.3827 43.532 19.3827 45.4828V114.517C19.3827 116.468 20.9642 118.05 22.9151 118.05Z" stroke="white" stroke-width="2" stroke-linecap="round" stroke-linejoin="round"/>
</svg>
