<svg width="160" height="160" viewBox="0 0 160 160" fill="none" xmlns="http://www.w3.org/2000/svg">
<path d="M31.5352 59.3667V124.574C31.5352 127.311 33.754 129.53 36.4911 129.53H123.509C126.246 129.53 128.465 127.311 128.465 124.574V59.3667M31.5352 59.3667V39.4395C31.5352 36.7024 33.754 34.4835 36.4911 34.4835H123.509C126.246 34.4835 128.465 36.7024 128.465 39.4395V59.3667M31.5352 59.3667H128.465M47.7582 30.4697V46.7502M90.7477 30.4697V46.7502M112.242 30.4697V46.7502M69.2533 30.4697V46.7502M56.7699 82.1202L64.3093 74.5809C65.35 73.5402 67.1294 74.2773 67.1294 75.7491V109.4M98.9493 99.9338V76.3535C98.9493 74.7491 96.8929 74.0864 95.9562 75.389L80.1861 97.3173C79.4002 98.4102 80.1811 99.9338 81.5273 99.9338H98.9493ZM98.9493 99.9338V108.866M98.9493 99.9338H105.533M56.5464 109.4H77.7117M52.1422 47.2727C52.1422 49.6939 50.1794 51.6567 47.7582 51.6567C45.3369 51.6567 43.3741 49.6939 43.3741 47.2727C43.3741 44.8515 45.3369 42.8886 47.7582 42.8886C50.1794 42.8886 52.1422 44.8515 52.1422 47.2727ZM95.1317 47.2727C95.1317 49.6939 93.1689 51.6567 90.7477 51.6567C88.3264 51.6567 86.3636 49.6939 86.3636 47.2727C86.3636 44.8515 88.3264 42.8886 90.7477 42.8886C93.1689 42.8886 95.1317 44.8515 95.1317 47.2727ZM116.626 47.2727C116.626 49.6939 114.663 51.6567 112.242 51.6567C109.821 51.6567 107.858 49.6939 107.858 47.2727C107.858 44.8515 109.821 42.8886 112.242 42.8886C114.663 42.8886 116.626 44.8515 116.626 47.2727ZM73.6374 47.2727C73.6374 49.6939 71.6746 51.6567 69.2533 51.6567C66.8321 51.6567 64.8693 49.6939 64.8693 47.2727C64.8693 44.8515 66.8321 42.8886 69.2533 42.8886C71.6746 42.8886 73.6374 44.8515 73.6374 47.2727Z" stroke="white" stroke-width="2" stroke-linecap="round" stroke-linejoin="round"/>
</svg>
