<svg width="23" height="23" viewBox="0 0 23 23" fill="none" xmlns="http://www.w3.org/2000/svg">
<path d="M5.6724 15.2412V18.3643M16.5951 15.2412V21.4875C16.5951 22.0467 16.1418 22.5 15.5826 22.5H6.68494C6.12572 22.5 5.6724 22.0467 5.6724 21.4875V18.3643M4.12893 14.9549H18.1389M16.6927 18.3386H20.7552C21.3145 18.3386 21.7678 17.8853 21.7678 17.3261V13.5557C21.7678 12.9965 21.3145 12.5432 20.7552 12.5432H1.51254C0.95333 12.5432 0.5 12.9965 0.5 13.5557V17.3261C0.5 17.8853 0.953329 18.3386 1.51254 18.3386L5.6724 18.3643M20.1214 12.5432V1.51254C20.1214 0.95333 19.6681 0.5 19.1089 0.5H3.15841C2.5992 0.5 2.14587 0.953329 2.14587 1.51254V12.5432M11.4648 18.3386L12.2683 17.0159L13.9393 19.6613H12.3003M18.1842 3.17107C18.1842 3.70638 17.7503 4.14034 17.2149 4.14034C16.6796 4.14034 16.2457 3.70638 16.2457 3.17107C16.2457 2.63575 16.6796 2.20179 17.2149 2.20179C17.7503 2.20179 18.1842 2.63575 18.1842 3.17107ZM14.9883 7.05728C14.9883 9.186 13.2626 10.9117 11.1339 10.9117C9.00518 10.9117 7.27952 9.186 7.27952 7.05728C7.27952 4.92857 9.00518 3.20291 11.1339 3.20291C13.2626 3.20291 14.9883 4.92857 14.9883 7.05728ZM12.9637 7.05728C12.9637 8.06785 12.1445 8.88707 11.1339 8.88707C10.1233 8.88707 9.3041 8.06785 9.3041 7.05728C9.3041 6.04672 10.1233 5.22749 11.1339 5.22749C12.1445 5.22749 12.9637 6.04672 12.9637 7.05728ZM7.7801 20.1623L9.89396 16.6823L12.0921 20.1623H7.7801Z" stroke="#EA6067" stroke-linecap="round" stroke-linejoin="round"/>
</svg>
