<svg width="21" height="22" viewBox="0 0 21 22" fill="none" xmlns="http://www.w3.org/2000/svg">
<path d="M7.95169 12.8515L7.31522 11.7494M6.71932 14.4949L5.48994 14.1656M12.3988 12.8517L13.0353 11.7496M13.6312 14.495L14.8605 14.1658M7.95169 0.50044L5.81767 3.30819M11.5752 0.500364L9.30057 3.46257M14.9991 0.500133L12.7841 3.46257M13.7027 3.85736V7.84336C13.7027 7.91492 13.6447 7.97293 13.5732 7.97293H6.77731C6.70575 7.97293 6.64774 7.91492 6.64774 7.84336V3.85736M12.1018 8.16337L11.2806 10.4601C11.2621 10.5116 11.2133 10.546 11.1586 10.546H10.1359M8.24842 8.16337L8.99281 10.4565C9.01014 10.5099 9.0599 10.546 9.11605 10.546H10.1359M10.1359 10.546V16.4378M0.5 16.872V20.9134C0.5 21.0565 0.616023 21.1725 0.759145 21.1725H19.5906C19.7337 21.1725 19.8497 21.0565 19.8497 20.9134V16.8724C19.8497 16.7293 19.7337 16.6133 19.5906 16.6133L12.6001 16.6132C12.5262 16.6132 12.4558 16.6447 12.4066 16.6999L10.3639 18.9923C10.2624 19.1062 10.085 19.1083 9.98096 18.9968L7.83297 16.6953C7.78396 16.6428 7.71536 16.613 7.64353 16.613L0.759152 16.6128C0.616027 16.6128 0.5 16.7288 0.5 16.872ZM16.4429 0.629936V3.33299C16.4429 3.40455 16.3849 3.46257 16.3133 3.46257H4.03718C3.96562 3.46257 3.90761 3.40455 3.90761 3.33299V0.629936C3.90761 0.558375 3.96562 0.500364 4.03718 0.500364H16.3133C16.3849 0.500364 16.4429 0.558375 16.4429 0.629936Z" stroke="#34B2E8" stroke-linecap="round" stroke-linejoin="round"/>
</svg>
