<svg width="27" height="23" viewBox="0 0 27 23" fill="none" xmlns="http://www.w3.org/2000/svg">
<path d="M23.5018 18.015V1.57647C23.5018 0.981952 23.0198 0.5 22.4253 0.5H9.35792C8.7634 0.5 8.28145 0.981952 8.28145 1.57647V14.8082M11.2286 20.4411H12.8097M6.51873 13.8259C6.09246 13.5764 3.53598 6.0198 0.5 1.53077M6.51873 13.8259C5.07238 13.0075 4.17293 12.4701 2.7833 11.2702C2.35657 10.9017 2.04569 10.4162 1.88167 9.87679C0.933752 6.75931 0.707857 4.80494 0.5 1.53077M6.51873 13.8259C6.77746 12.1774 6.6807 10.7397 6.544 8.79275C6.50451 8.23034 6.32222 7.68406 5.99788 7.22289C4.17177 4.62646 2.93327 3.72601 0.5 1.53077M16.751 3.66821H21.4848M16.751 6.64585H21.4848M16.751 9.62349H21.4848M10.2985 12.6011L21.4848 12.6011M12.095 15.5788H21.4848M24.6535 22.4576H14.9627C13.7736 22.4576 12.8097 21.4937 12.8097 20.3047V20.2199C12.8097 19.0309 13.7736 18.067 14.9627 18.067H24.6535M24.6535 22.4576L25.8744 22.5M24.6535 22.4576V20.2623M25.8744 18.1093L24.6535 18.067M24.6535 18.067V20.2623M24.6535 20.2623L15.4187 20.3047M2.25389 22.2466H10.8909V20.2623C10.8909 19.0733 9.92699 18.1093 8.73795 18.1093H4.40684C3.2178 18.1093 2.25389 19.0732 2.25389 20.2623V22.2466ZM4.63285 16.7385H8.51193C8.95463 16.7385 9.31351 16.3796 9.31351 15.937C9.31351 15.4943 8.95463 15.1354 8.51193 15.1354H4.63285C4.19016 15.1354 3.83128 15.4943 3.83128 15.937C3.83128 16.3796 4.19016 16.7385 4.63285 16.7385ZM10.4062 9.60194H14.359C14.4185 9.60194 14.4667 9.55375 14.4667 9.4943V3.58243C14.4667 3.52298 14.4185 3.47478 14.359 3.47478H10.4062C10.3467 3.47478 10.2985 3.52298 10.2985 3.58243V9.4943C10.2985 9.55375 10.3467 9.60194 10.4062 9.60194Z" stroke="#45AA82" stroke-linecap="round" stroke-linejoin="round"/>
</svg>
