<svg width="23" height="23" viewBox="0 0 23 23" fill="none" xmlns="http://www.w3.org/2000/svg">
<path d="M16.7795 14.463C18.0934 13.7409 20.4743 11.3801 19.4872 7.71427C19.2359 6.94459 18.3427 5.95935 16.7795 8.17584M16.7795 17.127C18.9998 15.9067 22.8465 12.012 21.4069 6.50636C20.9823 5.20568 19.076 3.13203 16.7795 5.37016M2.84322 7.05397C4.32631 7.76553 6.39095 8.20684 8.67424 8.20684C11.2399 8.20684 13.5295 7.64963 15.0281 6.7779M15.1732 4.15786C15.1732 5.36279 12.3019 6.33958 8.75993 6.33958C5.21797 6.33958 2.34664 5.36279 2.34664 4.15786C2.34664 2.95293 5.21797 1.97614 8.75993 1.97614C12.3019 1.97614 15.1732 2.95293 15.1732 4.15786ZM0.5 4.35342C0.5 2.22524 4.15973 0.5 8.67424 0.5C13.1888 0.5 16.8485 2.22524 16.8485 4.35342L16.308 18.9013C16.308 20.8888 12.8901 22.5 8.67401 22.5C4.45788 22.5 1.04003 20.8888 1.04003 18.9013L0.5 4.35342ZM8.04301 19.5514C6.80128 18.76 4.30309 15.8339 3.76634 14.5681C3.22959 13.3023 3.49149 11.8077 4.55282 11.0431C5.61415 10.2785 7.07268 10.5502 7.81053 11.65L8.30378 12.3852L8.84887 11.6906C9.66456 10.6515 11.1387 10.4943 12.1414 11.3396C13.1442 12.1849 13.2967 13.6957 12.6695 14.916C12.0423 16.1363 9.33873 18.8591 8.04301 19.5514Z" stroke="#F3813A" stroke-linecap="round" stroke-linejoin="round"/>
</svg>
