<svg width="23" height="23" viewBox="0 0 23 23" fill="none" xmlns="http://www.w3.org/2000/svg">
<path d="M5.79199 1.70874H7.95801M10.3145 1.70874H12.4805M14.8369 1.70874H17.0029M21.1618 5.90234V8.06836M21.1618 10.4248V12.5908M21.1618 14.9473V17.1133M5.79199 21.3069H7.95801M10.3145 21.3069H12.4805M14.8369 21.3069H17.0029M1.56411 5.90234L1.56411 8.06836M1.56411 10.4248L1.56411 12.5908M1.56411 14.9473V17.1133M5.00865 6.21791V10.5556H7.63481V8.91423H9.95614V16.1596H7.98652V18.8796H14.7394V16.1596H12.7697V8.91423H15.0911V10.5556H17.7172V6.21791H5.00865ZM0.5 0.5H3.21343V3.21343H0.5V0.5ZM19.5823 0.5H22.2958V3.21343H19.5823V0.5ZM19.5822 19.7866H22.2957V22.5H19.5822V19.7866ZM0.5 19.7865H3.21343V22.4999H0.5V19.7865Z" stroke="#6BA0E5" stroke-linecap="round" stroke-linejoin="round"/>
</svg>
