<svg width="104" height="48" viewBox="0 0 104 48" fill="none" xmlns="http://www.w3.org/2000/svg">
<path d="M99.618 45.608V39.956L99.906 40.256H97.29V39.248H103.098V40.256H100.494L100.77 39.956V45.608H99.618Z" fill="white"/>
<path d="M93.9249 45.6805C93.2449 45.6805 92.6449 45.5405 92.1249 45.2605C91.6129 44.9805 91.2129 44.5965 90.9249 44.1085C90.6449 43.6205 90.5049 43.0605 90.5049 42.4285C90.5049 41.7965 90.6409 41.2365 90.9129 40.7485C91.1929 40.2605 91.5729 39.8805 92.0529 39.6085C92.5409 39.3285 93.0889 39.1885 93.6969 39.1885C94.3129 39.1885 94.8569 39.3245 95.3289 39.5965C95.8009 39.8685 96.1689 40.2525 96.4329 40.7485C96.7049 41.2365 96.8409 41.8085 96.8409 42.4645C96.8409 42.5125 96.8369 42.5685 96.8289 42.6325C96.8289 42.6965 96.8249 42.7565 96.8169 42.8125H91.4049V41.9845H96.2169L95.7489 42.2725C95.7569 41.8645 95.6729 41.5005 95.4969 41.1805C95.3209 40.8605 95.0769 40.6125 94.7649 40.4365C94.4609 40.2525 94.1049 40.1605 93.6969 40.1605C93.2969 40.1605 92.9409 40.2525 92.6289 40.4365C92.3169 40.6125 92.0729 40.8645 91.8969 41.1925C91.7209 41.5125 91.6329 41.8805 91.6329 42.2965V42.4885C91.6329 42.9125 91.7289 43.2925 91.9209 43.6285C92.1209 43.9565 92.3969 44.2125 92.7489 44.3965C93.1009 44.5805 93.5049 44.6725 93.9609 44.6725C94.3369 44.6725 94.6769 44.6085 94.9809 44.4805C95.2929 44.3525 95.5649 44.1605 95.7969 43.9045L96.4329 44.6485C96.1449 44.9845 95.7849 45.2405 95.3529 45.4165C94.9289 45.5925 94.4529 45.6805 93.9249 45.6805Z" fill="white"/>
<path d="M88.7164 45.608L86.2564 42.512L87.2044 41.936L90.0724 45.608H88.7164ZM84.1084 45.608V39.248H85.2604V45.608H84.1084ZM84.9124 42.92V41.936H87.0124V42.92H84.9124ZM87.3004 42.56L86.2324 42.416L88.6684 39.248H89.9044L87.3004 42.56Z" fill="white"/>
<path d="M80.942 45.6085V44.2645L80.882 44.0125V41.7205C80.882 41.2325 80.738 40.8565 80.45 40.5925C80.17 40.3205 79.746 40.1845 79.178 40.1845C78.802 40.1845 78.434 40.2485 78.074 40.3765C77.714 40.4965 77.41 40.6605 77.162 40.8685L76.682 40.0045C77.01 39.7405 77.402 39.5405 77.858 39.4045C78.322 39.2605 78.806 39.1885 79.31 39.1885C80.182 39.1885 80.854 39.4005 81.326 39.8245C81.798 40.2485 82.034 40.8965 82.034 41.7685V45.6085H80.942ZM78.854 45.6805C78.382 45.6805 77.966 45.6005 77.606 45.4405C77.254 45.2805 76.982 45.0605 76.79 44.7805C76.598 44.4925 76.502 44.1685 76.502 43.8085C76.502 43.4645 76.582 43.1525 76.742 42.8725C76.91 42.5925 77.178 42.3685 77.546 42.2005C77.922 42.0325 78.426 41.9485 79.058 41.9485H81.074V42.7765H79.106C78.53 42.7765 78.142 42.8725 77.942 43.0645C77.742 43.2565 77.642 43.4885 77.642 43.7605C77.642 44.0725 77.766 44.3245 78.014 44.5165C78.262 44.7005 78.606 44.7925 79.046 44.7925C79.478 44.7925 79.854 44.6965 80.174 44.5045C80.502 44.3125 80.738 44.0325 80.882 43.6645L81.11 44.4565C80.958 44.8325 80.69 45.1325 80.306 45.3565C79.922 45.5725 79.438 45.6805 78.854 45.6805Z" fill="white"/>
<path d="M67.4678 45.608V39.248H68.6558L71.3918 43.952H70.9118L73.7198 39.248H74.7998V45.608H73.7558V40.544L73.9478 40.652L71.3798 44.888H70.8758L68.2958 40.568L68.5238 40.52V45.608H67.4678Z" fill="white"/>
<path d="M60.1028 45.62L57.3428 45.608V39.248H58.4948V41.396L60.2828 41.408C61.0908 41.416 61.7068 41.6 62.1308 41.96C62.5548 42.32 62.7668 42.828 62.7668 43.484C62.7668 44.172 62.5348 44.704 62.0708 45.08C61.6068 45.448 60.9508 45.628 60.1028 45.62ZM60.0068 44.744C60.5268 44.752 60.9188 44.648 61.1828 44.432C61.4548 44.216 61.5908 43.896 61.5908 43.472C61.5908 43.056 61.4588 42.752 61.1948 42.56C60.9308 42.368 60.5348 42.268 60.0068 42.26L58.4948 42.236V44.732L60.0068 44.744Z" fill="white"/>
<path d="M52.6844 45.608V39.956L52.9724 40.256H50.3564V39.248H56.1644V40.256H53.5604L53.8364 39.956V45.608H52.6844Z" fill="white"/>
<path d="M43.0928 45.608V39.248H44.2448V43.88L48.1448 39.248H49.1888V45.608H48.0368V40.976L44.1488 45.608H43.0928Z" fill="white"/>
<path d="M38.4252 45.6925C37.9452 45.6925 37.4732 45.6325 37.0092 45.5125C36.5532 45.3845 36.1452 45.2045 35.7852 44.9725L36.1332 44.0965C36.4372 44.2885 36.7852 44.4405 37.1772 44.5525C37.5692 44.6565 37.9652 44.7085 38.3652 44.7085C38.7332 44.7085 39.0492 44.6645 39.3132 44.5765C39.5852 44.4885 39.7932 44.3685 39.9372 44.2165C40.0812 44.0565 40.1532 43.8725 40.1532 43.6645C40.1532 43.3685 40.0212 43.1405 39.7572 42.9805C39.4932 42.8205 39.1252 42.7405 38.6532 42.7405H37.2852V41.9125H38.5812C38.8612 41.9125 39.1052 41.8805 39.3132 41.8165C39.5212 41.7525 39.6812 41.6565 39.7932 41.5285C39.9132 41.3925 39.9732 41.2365 39.9732 41.0605C39.9732 40.8685 39.9052 40.7045 39.7692 40.5685C39.6332 40.4325 39.4412 40.3285 39.1932 40.2565C38.9532 40.1845 38.6692 40.1485 38.3412 40.1485C38.0212 40.1565 37.6932 40.2005 37.3572 40.2805C37.0292 40.3605 36.6932 40.4845 36.3492 40.6525L36.0372 39.7525C36.4212 39.5685 36.7972 39.4285 37.1652 39.3325C37.5412 39.2285 37.9132 39.1725 38.2812 39.1645C38.8332 39.1485 39.3252 39.2125 39.7572 39.3565C40.1892 39.4925 40.5292 39.6925 40.7772 39.9565C41.0332 40.2205 41.1612 40.5325 41.1612 40.8925C41.1612 41.1965 41.0652 41.4685 40.8732 41.7085C40.6812 41.9405 40.4252 42.1245 40.1052 42.2605C39.7852 42.3965 39.4172 42.4645 39.0012 42.4645L39.0492 42.1885C39.7612 42.1885 40.3212 42.3285 40.7292 42.6085C41.1372 42.8885 41.3412 43.2685 41.3412 43.7485C41.3412 44.1325 41.2132 44.4725 40.9572 44.7685C40.7012 45.0565 40.3532 45.2845 39.9132 45.4525C39.4812 45.6125 38.9852 45.6925 38.4252 45.6925Z" fill="white"/>
<path d="M30.0334 48.008C29.7294 48.008 29.4334 47.956 29.1454 47.852C28.8574 47.756 28.6094 47.612 28.4014 47.42L28.8934 46.556C29.0534 46.708 29.2294 46.824 29.4214 46.904C29.6134 46.984 29.8174 47.024 30.0334 47.024C30.3134 47.024 30.5454 46.952 30.7294 46.808C30.9134 46.664 31.0854 46.408 31.2454 46.04L31.6414 45.164L31.7614 45.02L34.2574 39.248H35.3854L32.3014 46.244C32.1174 46.692 31.9094 47.044 31.6774 47.3C31.4534 47.556 31.2054 47.736 30.9334 47.84C30.6614 47.952 30.3614 48.008 30.0334 48.008ZM31.5454 45.812L28.6414 39.248H29.8414L32.3134 44.912L31.5454 45.812Z" fill="white"/>
<path d="M24.996 45.6805C24.468 45.6805 23.984 45.5605 23.544 45.3205C23.112 45.0725 22.764 44.7085 22.5 44.2285C22.244 43.7485 22.116 43.1485 22.116 42.4285C22.116 41.7085 22.24 41.1085 22.488 40.6285C22.744 40.1485 23.088 39.7885 23.52 39.5485C23.96 39.3085 24.452 39.1885 24.996 39.1885C25.62 39.1885 26.172 39.3245 26.652 39.5965C27.132 39.8685 27.512 40.2485 27.792 40.7365C28.072 41.2165 28.212 41.7805 28.212 42.4285C28.212 43.0765 28.072 43.6445 27.792 44.1325C27.512 44.6205 27.132 45.0005 26.652 45.2725C26.172 45.5445 25.62 45.6805 24.996 45.6805ZM21.624 47.9365V39.2485H22.728V40.9645L22.656 42.4405L22.776 43.9165V47.9365H21.624ZM24.9 44.6725C25.308 44.6725 25.672 44.5805 25.992 44.3965C26.32 44.2125 26.576 43.9525 26.76 43.6165C26.952 43.2725 27.048 42.8765 27.048 42.4285C27.048 41.9725 26.952 41.5805 26.76 41.2525C26.576 40.9165 26.32 40.6565 25.992 40.4725C25.672 40.2885 25.308 40.1965 24.9 40.1965C24.5 40.1965 24.136 40.2885 23.808 40.4725C23.488 40.6565 23.232 40.9165 23.04 41.2525C22.856 41.5805 22.764 41.9725 22.764 42.4285C22.764 42.8765 22.856 43.2725 23.04 43.6165C23.232 43.9525 23.488 44.2125 23.808 44.3965C24.136 44.5805 24.5 44.6725 24.9 44.6725Z" fill="white"/>
<path d="M15.7646 45.608V39.248H20.4446V40.256H16.6406L16.9166 39.992V45.608H15.7646Z" fill="white"/>
<path d="M12.5982 45.6085V44.2645L12.5382 44.0125V41.7205C12.5382 41.2325 12.3942 40.8565 12.1062 40.5925C11.8262 40.3205 11.4022 40.1845 10.8342 40.1845C10.4582 40.1845 10.0902 40.2485 9.7302 40.3765C9.3702 40.4965 9.0662 40.6605 8.8182 40.8685L8.3382 40.0045C8.6662 39.7405 9.0582 39.5405 9.5142 39.4045C9.9782 39.2605 10.4622 39.1885 10.9662 39.1885C11.8382 39.1885 12.5102 39.4005 12.9822 39.8245C13.4542 40.2485 13.6902 40.8965 13.6902 41.7685V45.6085H12.5982ZM10.5102 45.6805C10.0382 45.6805 9.6222 45.6005 9.2622 45.4405C8.9102 45.2805 8.6382 45.0605 8.4462 44.7805C8.2542 44.4925 8.1582 44.1685 8.1582 43.8085C8.1582 43.4645 8.2382 43.1525 8.3982 42.8725C8.5662 42.5925 8.8342 42.3685 9.2022 42.2005C9.5782 42.0325 10.0822 41.9485 10.7142 41.9485H12.7302V42.7765H10.7622C10.1862 42.7765 9.7982 42.8725 9.5982 43.0645C9.3982 43.2565 9.2982 43.4885 9.2982 43.7605C9.2982 44.0725 9.4222 44.3245 9.6702 44.5165C9.9182 44.7005 10.2622 44.7925 10.7022 44.7925C11.1342 44.7925 11.5102 44.6965 11.8302 44.5045C12.1582 44.3125 12.3942 44.0325 12.5382 43.6645L12.7662 44.4565C12.6142 44.8325 12.3462 45.1325 11.9622 45.3565C11.5782 45.5725 11.0942 45.6805 10.5102 45.6805Z" fill="white"/>
<path d="M3.3 45.704C2.612 45.704 1.98 45.62 1.404 45.452C0.836 45.276 0.368 45.036 0 44.732L0.408 43.796C0.744 44.076 1.16 44.292 1.656 44.444C2.16 44.596 2.712 44.672 3.312 44.672C4.12 44.672 4.72 44.54 5.112 44.276C5.504 44.004 5.7 43.636 5.7 43.172C5.7 42.852 5.616 42.588 5.448 42.38C5.28 42.164 5.044 42.008 4.74 41.912C4.444 41.808 4.092 41.756 3.684 41.756H1.704V40.784H3.624C4.168 40.784 4.588 40.684 4.884 40.484C5.188 40.276 5.34 39.968 5.34 39.56C5.34 39.224 5.248 38.956 5.064 38.756C4.88 38.548 4.636 38.396 4.332 38.3C4.036 38.204 3.708 38.156 3.348 38.156C3.06 38.156 2.76 38.184 2.448 38.24C2.144 38.296 1.848 38.376 1.56 38.48C1.272 38.576 1.004 38.688 0.756 38.816L0.408 37.856C0.84 37.616 1.308 37.436 1.812 37.316C2.324 37.188 2.832 37.124 3.336 37.124C3.76 37.124 4.164 37.172 4.548 37.268C4.932 37.356 5.272 37.492 5.568 37.676C5.872 37.86 6.108 38.096 6.276 38.384C6.452 38.672 6.54 39.008 6.54 39.392C6.54 39.776 6.452 40.124 6.276 40.436C6.108 40.748 5.864 40.996 5.544 41.18C5.224 41.364 4.852 41.456 4.428 41.456L4.488 41.108C4.92 41.108 5.32 41.192 5.688 41.36C6.056 41.528 6.348 41.772 6.564 42.092C6.788 42.404 6.9 42.788 6.9 43.244C6.9 43.716 6.76 44.14 6.48 44.516C6.208 44.884 5.804 45.176 5.268 45.392C4.74 45.6 4.084 45.704 3.3 45.704Z" fill="white"/>
<path d="M45.7471 1.17578C46.6342 -0.391295 48.8648 -0.391291 49.752 1.17578L56.5889 13.252L60.4141 6.6084C61.3087 5.0542 63.5278 5.0627 64.4111 6.62305L71.4131 18.9922C72.2835 20.5298 71.2105 22.4959 69.4111 22.4961H61.8223L62.9336 24.459C63.8041 25.9966 62.7302 27.9629 60.9307 27.9629H34.5684C32.769 27.9627 31.696 25.9966 32.5664 24.459L45.7471 1.17578ZM48.4473 1.91406C48.1346 1.36178 47.3655 1.36189 47.0527 1.91406L33.8711 25.1982C33.542 25.7799 33.9684 26.4627 34.5684 26.4629H60.9307C61.5308 26.4629 61.9573 25.78 61.6279 25.1982L48.4473 1.91406ZM63.1055 7.36133C62.7939 6.81142 62.0289 6.8091 61.7139 7.35645L57.4473 14.7676L60.9727 20.9961H69.4111C70.011 20.9959 70.4373 20.3131 70.1084 19.7314L63.1055 7.36133ZM33.5088 5.32031C33.5088 3.21084 31.7989 1.50026 29.6895 1.5C27.5798 1.5 25.8691 3.21068 25.8691 5.32031C25.8694 7.42972 27.58 9.13965 29.6895 9.13965C31.7987 9.13938 33.5085 7.42956 33.5088 5.32031ZM35.0088 5.32031C35.0085 8.25798 32.6271 10.6394 29.6895 10.6396C26.7516 10.6396 24.3694 8.25815 24.3691 5.32031C24.3691 2.38225 26.7514 0 29.6895 0C32.6273 0.00026387 35.0088 2.38242 35.0088 5.32031Z" fill="white"/>
</svg>
