<svg width="160" height="160" viewBox="0 0 160 160" fill="none" xmlns="http://www.w3.org/2000/svg">
<path d="M61.2734 14.4531C61.3753 21.1815 64.6861 34.6865 79.9782 35.176C95.2703 34.6865 98.6238 21.1815 98.7257 14.4531M56.5967 16.6483C56.6986 23.3768 61.7482 40.105 79.9782 40.105C98.2082 40.105 103.301 23.3768 103.402 16.6483M43.1617 50.4831C43.4796 55.8878 43.8267 62.7304 44.1328 70.2527M44.1328 70.2527C45.122 94.5552 45.6843 125.951 43.4586 138.867C43.3057 139.754 43.7917 140.626 44.6513 140.893C50.9322 142.841 65.0593 145.616 81.0462 145.616C97.0332 145.616 109.067 142.841 115.348 140.893C116.207 140.626 116.693 139.754 116.541 138.867C114.315 125.951 114.877 94.5552 115.866 70.2527M44.1328 70.2527L35.1612 81.2449C34.7851 81.7057 34.2032 81.9516 33.6121 81.8847C24.8965 80.8983 19.9 77.7388 12.0528 68.4662C11.5841 67.9124 11.502 67.1322 11.8447 66.4927C18.7629 53.5825 32.6785 28.9528 37.2665 25.8633C41.7554 22.8404 53.9745 17.289 60.3453 14.5308C60.9192 14.2824 61.5723 14.3599 62.1004 14.6949C65.3604 16.7628 72.4202 20.1285 79.7449 20.1285C87.5901 20.1285 94.6387 16.7628 97.8988 14.6949C98.4269 14.3599 99.0799 14.2824 99.6538 14.5308C106.025 17.289 118.244 22.8404 122.733 25.8633C127.321 28.9528 141.236 53.5825 148.154 66.4927C148.497 67.1322 148.415 67.9124 147.946 68.4662C140.099 77.7388 135.103 80.8983 126.387 81.8847C125.796 81.9516 125.214 81.7057 124.838 81.2449L115.866 70.2527M116.837 50.4831C116.52 55.8878 116.172 62.7304 115.866 70.2527M80.2705 76.6239C77.5005 73.1611 70.3163 67.8255 63.7399 74.1849C57.1635 80.5444 59.5543 90.2041 61.5717 94.2391C64.1911 98.5751 71.598 108.06 80.2705 111.312C88.9429 108.06 96.35 98.5751 98.9694 94.2391C100.987 90.2041 103.378 80.5444 96.8013 74.1849C90.2249 67.8255 83.0405 73.1611 80.2705 76.6239Z" stroke="#F3813A" stroke-width="2" stroke-linecap="round" stroke-linejoin="round"/>
</svg>
