<svg width="160" height="160" viewBox="0 0 160 160" fill="none" xmlns="http://www.w3.org/2000/svg">
<path d="M111.325 96.3734C118.585 92.3829 131.742 79.3376 126.288 59.0801C124.899 54.8269 119.963 49.3825 111.325 61.6307M111.325 111.095C123.594 104.351 144.851 82.8294 136.896 52.4053C134.55 45.2178 124.016 33.7588 111.325 46.1267M21.3652 40.5082C21.3652 28.7479 41.5888 19.2144 66.5358 19.2144C91.4828 19.2144 111.706 28.7479 111.706 40.5082M21.3652 40.5082L24.3494 120.899C24.3494 131.882 43.2363 140.785 66.5345 140.785C89.8327 140.785 108.72 131.882 108.72 120.899L111.706 40.5082M21.3652 40.5082C21.6871 49.1788 37.0966 59.0801 67.5008 59.0801C88.7719 59.0801 110.145 51.8168 111.706 40.5082M63.0476 124.492C56.1858 120.118 42.381 103.949 39.4149 96.954C36.4488 89.9593 37.8961 81.7002 43.761 77.4749C49.6258 73.2497 57.6856 74.7513 61.7629 80.8289L64.4886 84.8917L67.5008 81.0531C72.0082 75.311 80.1542 74.4427 85.6954 79.1136C91.2365 83.7845 92.0794 92.1331 88.6134 98.8765C85.1475 105.62 70.2077 120.666 63.0476 124.492ZM28.2964 39.0577C28.2964 30.1793 45.4256 22.982 66.5556 22.982C87.6855 22.982 104.815 30.1793 104.815 39.0577C104.122 47.4962 85.3894 53.0785 67.3729 53.0785C41.6207 53.0785 28.5691 45.6036 28.2964 39.0577Z" stroke="#F3813A" stroke-width="2" stroke-linecap="round" stroke-linejoin="round"/>
</svg>
