<svg width="160" height="160" viewBox="0 0 160 160" fill="none" xmlns="http://www.w3.org/2000/svg">
<path d="M73.5436 25.8521L25.9453 73.4503L25.9453 63.359L68.4979 20.8064M86.457 25.8521L134.055 73.4503V63.359L91.5027 20.8064M119.764 120.782H40.2355M119.764 120.782L111.631 111.72M119.764 120.782V58.8415M40.2355 120.782L48.369 111.72M40.2355 120.782V58.3245M111.631 111.72H48.369M111.631 111.72V51.283M48.369 111.72V51.283M48.369 24.0126L40.2355 14.9498M48.369 24.0126V41.2236M48.369 24.0126H64.867M40.2355 14.9498V48.631M40.2355 14.9498H68.1995M111.631 24.0126L119.764 14.9498M111.631 24.0126V40.4827M111.631 24.0126H95.0917M119.764 14.9498V48.631M119.764 14.9498H91.6043M85.1871 134.974H94.6496L97.2924 146.752L107.832 146.563L101.671 120.85M74.9614 134.974H65.3502L62.5553 146.752L52.1684 146.563L58.4796 120.516M74.9614 127.374L67.2698 127.374L68.8878 120.516M85.1526 127.374H92.7742L91.1515 120.85M85.1526 127.374H84.7359M85.1526 127.374L85.1871 120.516M85.1526 127.374L85.0112 155.55H74.9893V120.516M91.7714 16.165C91.7714 22.6354 86.5261 27.8807 80.0557 27.8807C73.5852 27.8807 68.3399 22.6354 68.3399 16.165C68.3399 9.69454 73.5852 4.44922 80.0557 4.44922C86.5261 4.44922 91.7714 9.69454 91.7714 16.165ZM85.9959 15.9708C85.9959 19.2821 83.3116 21.9664 80.0003 21.9664C76.689 21.9664 74.0046 19.2821 74.0046 15.9708C74.0046 12.6595 76.689 9.97511 80.0003 9.97511C83.3116 9.97511 85.9959 12.6595 85.9959 15.9708Z" stroke="#F3813A" stroke-width="2" stroke-linecap="round" stroke-linejoin="round"/>
</svg>
