<svg width="160" height="160" viewBox="0 0 160 160" fill="none" xmlns="http://www.w3.org/2000/svg">
<path d="M19.3203 111.486L67.8125 72.7671C68.9041 71.9003 70.4787 72.0188 71.4283 73.0392L83.6814 86.2067M83.6814 86.2067L110.549 118.049M83.6814 86.2067L92.7845 79.7295C93.7891 79.0147 95.1525 79.0805 96.0835 79.8887L139.021 116.986M111.472 58.6181C111.472 63.1025 107.837 66.7379 103.353 66.7379C98.8681 66.7379 95.2327 63.1025 95.2327 58.6181C95.2327 54.1336 98.8681 50.4982 103.353 50.4982C107.837 50.4982 111.472 54.1336 111.472 58.6181ZM22.9151 118.049H137.148C139.099 118.049 140.68 116.468 140.68 114.517V45.4826C140.68 43.5317 139.099 41.9502 137.148 41.9502H22.9151C20.9642 41.9502 19.3827 43.5317 19.3827 45.4826V114.517C19.3827 116.468 20.9642 118.049 22.9151 118.049Z" stroke="#F3813A" stroke-width="2" stroke-linecap="round" stroke-linejoin="round"/>
</svg>
