<svg width="160" height="160" viewBox="0 0 160 160" fill="none" xmlns="http://www.w3.org/2000/svg">
<path d="M135.145 41.0144C156.676 71.4712 149.44 113.616 118.984 135.147C88.5269 156.678 46.3824 149.442 24.8513 118.986C3.32013 88.5288 10.5558 46.3843 41.0125 24.8532C71.4692 3.32208 113.614 10.5577 135.145 41.0144Z" stroke="#0093D2" stroke-width="2"/>
<path d="M31.6802 114.046C50.4833 140.644 87.2881 146.962 113.886 128.159C131.547 115.674 140.267 95.2522 138.628 75.1516C92.6536 108.672 73.6989 40.2139 21.1723 86.1523C22.1835 95.8803 25.6324 105.491 31.6802 114.046Z" stroke="#0093D2" stroke-width="2"/>
<path d="M120.172 66.4803C117.38 66.4135 114.894 65.291 112.716 63.1129C110.538 60.9349 109.416 58.4494 109.349 55.6567C109.295 52.8505 110.304 50.4119 112.375 48.3407C114.446 46.2695 116.878 45.2673 119.671 45.3341C122.477 45.3876 124.969 46.5034 127.148 48.6814C129.326 50.8595 130.448 53.345 130.515 56.1377C130.582 58.9305 129.573 61.3691 127.488 63.4537C125.404 65.5382 122.965 66.5471 120.172 66.4803ZM112.856 55.9172C112.87 57.7746 113.585 59.4115 115.001 60.828C116.417 62.2444 118.054 62.9593 119.912 62.9726C121.783 62.9726 123.433 62.2577 124.863 60.828C126.292 59.3982 127.001 57.7546 126.987 55.8972C126.987 54.0264 126.279 52.3829 124.863 50.9664C123.446 49.55 121.803 48.8418 119.932 48.8418C118.074 48.8284 116.431 49.5366 115.001 50.9664C113.571 52.3962 112.856 54.0465 112.856 55.9172Z" stroke="#0093D2" stroke-width="2"/>
<path d="M109.293 37.5285L112.537 39.217L103.374 56.8173L100.684 55.4168L97.1829 38.4466L90.9788 50.3645L87.7353 48.6761L96.8974 31.0757L99.5878 32.4762L103.089 49.4465L109.293 37.5285Z" stroke="#0093D2" stroke-width="2"/>
<path d="M79.9839 48.1146L82.6631 28.454L86.3143 28.9516L83.6352 48.6122L79.9839 48.1146Z" stroke="#0093D2" stroke-width="2"/>
<path d="M69.4227 49.6769L67.1649 33.1058L60.6488 33.9936L60.2279 30.9041L76.9113 28.6309L77.3323 31.7205L70.8162 32.6083L73.074 49.1794L69.4227 49.6769Z" stroke="#0093D2" stroke-width="2"/>
<path d="M61.0837 52.9155L51.9214 35.3153L55.19 33.6137L64.3524 51.2139L61.0837 52.9155Z" stroke="#0093D2" stroke-width="2"/>
<path d="M58.8622 53.6288L56.3968 56.0942L47.0765 46.8139L50.1632 59.1208L49.0007 60.2833L36.8141 57.3169L45.9941 66.4969L43.5087 68.9823L29.4781 54.9517L31.6227 52.807L46.4952 56.5352L42.6668 41.7629L44.8115 39.6182L58.8622 53.6288Z" stroke="#0093D2" stroke-width="2"/>
<path d="M114.267 109.375V92.213H107.519V89.0133H124.797V92.213H118.049V109.375H114.267Z" stroke="#0093D2" stroke-width="2"/>
<path d="M100.928 89.0133H104.68V109.375H101.568L90.3396 95.5873V109.375H86.5872V89.0133H89.6996L100.928 102.801V89.0133Z" stroke="#0093D2" stroke-width="2"/>
<path d="M77.2981 109.375V89.0133H81.0797V109.375H77.2981Z" stroke="#0093D2" stroke-width="2"/>
<path d="M73.4159 109.375H69.3435L65.1838 103.412C65.0093 103.432 64.7475 103.441 64.3984 103.441H59.8024V109.375H56.0209V89.0133H64.3984C67.0746 89.0133 69.1883 89.6629 70.7397 90.9622C72.2911 92.2421 73.0668 94.0068 73.0668 96.2563C73.0668 97.7883 72.6887 99.107 71.9324 100.212C71.1954 101.318 70.1289 102.142 68.7326 102.685L73.4159 109.375ZM67.9763 99.2815C68.8296 98.564 69.2562 97.5556 69.2562 96.2563C69.2562 94.957 68.8296 93.9583 67.9763 93.2602C67.123 92.5621 65.8722 92.213 64.2239 92.213H59.8024V100.329H64.2239C65.8722 100.329 67.123 99.9797 67.9763 99.2815Z" stroke="#0093D2" stroke-width="2"/>
<path d="M43.5763 89.0131C46.2525 89.0131 48.3662 89.6628 49.9176 90.962C51.469 92.2419 52.2447 94.0066 52.2447 96.2562C52.2447 98.4863 51.469 100.251 49.9176 101.55C48.3662 102.85 46.2525 103.499 43.5763 103.499H38.9803V109.375H35.1988V89.0131H43.5763ZM43.4018 100.299C45.0501 100.299 46.301 99.9504 47.1542 99.2523C48.0075 98.5542 48.4341 97.5555 48.4341 96.2562C48.4341 94.9569 48.0075 93.9582 47.1542 93.26C46.301 92.5619 45.0501 92.2129 43.4018 92.2129H38.9803V100.299H43.4018Z" stroke="#0093D2" stroke-width="2"/>
</svg>
