<svg width="160" height="160" viewBox="0 0 160 160" fill="none" xmlns="http://www.w3.org/2000/svg">
<path d="M104.707 34.5142L96.4705 29.7588M104.707 34.5142C106.962 35.8159 107.457 39.179 105.813 42.0259L99.6122 52.7665M104.707 34.5142L112.71 20.7675C113.368 19.6287 113.17 18.2835 112.268 17.7628L107.232 14.8553C106.33 14.3346 105.066 14.8356 104.408 15.9744L96.4705 29.7588M96.4705 29.7588C94.2159 28.4571 91.0557 29.7097 89.4121 32.5566L83.211 43.2972M42.4132 132.899L41.7083 128.697C40.8249 123.366 40.3628 117.512 43.4705 112.13L48.8156 102.872M42.4132 132.899L46.4049 131.409C52.0731 128.688 56.764 126.982 59.8717 121.599L65.2168 112.341M42.4132 132.899L39.8582 137.325M83.211 43.2972L48.8156 102.872M83.211 43.2972L99.6122 52.7665M83.211 43.2972L80.8179 41.9156C77.6614 40.0932 73.2393 41.8481 70.9382 45.8338L55.1797 73.1283C54.0747 75.0423 52.4127 76.5302 50.5595 77.2648L44.8764 79.5175M48.8156 102.872L65.2168 112.341M65.2168 112.341L99.6122 52.7665M21.5605 145.351C101.041 145.351 81.8227 131.931 138.44 130.095" stroke="#45AA82" stroke-width="2" stroke-linecap="round" stroke-linejoin="round"/>
</svg>
