<svg width="160" height="160" viewBox="0 0 160 160" fill="none" xmlns="http://www.w3.org/2000/svg">
<path d="M156.911 139.57H126.084V136.465H134.251L125.623 114.379H102.733L94.4508 136.465H100.892C101.352 136.465 101.774 136.503 102.158 136.58C103.155 136.733 103.653 137.73 103.653 139.57H82.4878V136.465H89.8496L115.041 70.5533H123.553L150.7 136.465H154.15C154.611 136.465 155.032 136.503 155.416 136.58C156.413 136.733 156.911 137.73 156.911 139.57ZM124.243 110.928L114.006 84.4717L104.113 110.928H124.243Z" stroke="#45AA82" stroke-width="2" stroke-linejoin="round"/>
<path d="M22.0289 80.934C18.5651 80.934 15.5203 80.5708 12.8946 79.8446C10.2688 79.1183 8.39724 78.3082 7.27989 77.4143C4.48653 75.2355 3.08984 72.7215 3.08984 69.8722C3.08984 67.4699 4.12339 65.0677 6.19048 62.6654C8.31344 60.2072 11.5258 57.9725 15.8276 55.9613C20.1294 53.8942 25.5485 52.274 32.085 51.1008C34.8783 50.598 37.6996 50.207 40.5489 49.9276C43.454 49.6483 46.3591 49.5086 49.2642 49.5086C51.7223 49.5086 54.1805 49.6203 56.6386 49.8438C59.1527 50.0673 61.6108 50.4304 64.0131 50.9332C64.7953 51.1008 65.6891 51.3243 66.6948 51.6036C67.7004 51.8271 68.7339 52.1064 69.7954 52.4416C74.4324 47.6929 78.9576 42.9721 83.3712 38.2793C87.7847 33.5864 92.0585 29.6199 96.1927 26.3796C99.0978 24.089 101.807 22.5247 104.321 21.6867C106.835 20.8487 109.07 20.4297 111.025 20.4297C113.316 20.4297 115.188 20.7928 116.64 21.5191C118.149 22.1895 119.126 22.7482 119.573 23.1951C119.741 23.3627 119.741 23.5303 119.573 23.6979C119.406 23.8655 119.238 23.8655 119.07 23.6979C118.791 23.3627 118.121 22.9996 117.059 22.6085C115.998 22.2174 114.629 22.0219 112.953 22.0219C110.886 22.0219 108.456 22.4968 105.662 23.4465C102.869 24.3963 99.7682 26.184 96.3603 28.8098C92.1702 32.106 88.0081 35.9049 83.8739 40.2067C79.7956 44.4526 75.6335 48.7265 71.3876 53.0282C73.5664 53.8104 75.5497 54.8719 77.3375 56.2127C79.1811 57.5535 80.2426 59.2016 80.5219 61.1569V61.4922C80.5219 61.7156 80.466 61.8274 80.3543 61.8274C80.1867 61.8274 80.0191 61.6597 79.8515 61.3245C79.628 60.71 78.9856 60.1793 77.9241 59.7323C76.9185 59.2854 75.7453 58.9223 74.4044 58.6429C73.0636 58.3636 71.7787 58.1401 70.5496 57.9725C69.3205 57.8049 68.3987 57.6932 67.7842 57.6373L66.8624 57.5535C62.2254 62.0229 57.4208 66.1571 52.4486 69.956C47.5323 73.6992 42.3087 76.5205 36.7778 78.4199C34.1521 79.3138 31.5822 79.9563 29.0681 80.3474C26.61 80.7384 24.2635 80.934 22.0289 80.934ZM86.807 85.0402C84.2929 83.2525 82.4493 81.1016 81.2761 78.5875C80.1029 76.0735 79.5163 73.3639 79.5163 70.4588C79.5163 67.5537 80.0191 64.6487 81.0247 61.7436C82.0303 58.7826 83.4829 55.7099 85.3824 52.5254C87.3377 49.341 89.4607 46.2404 91.7512 43.2235C94.0418 40.1508 96.2486 37.3575 98.3715 34.8434C100.55 32.2736 102.366 30.1506 103.819 28.4746C105.327 26.7986 106.221 25.765 106.5 25.3739C106.835 24.927 107.087 24.7035 107.254 24.7035C107.478 24.7035 107.645 24.8991 107.757 25.2901C107.869 25.6253 107.925 26.0164 107.925 26.4634C107.925 27.3572 107.785 27.9997 107.506 28.3908C106.053 30.2344 104.321 32.5808 102.31 35.4301C100.299 38.2793 98.2598 41.4637 96.1927 44.9834C94.1256 48.4471 92.1982 52.0226 90.4104 55.7099C88.6227 59.3971 87.1701 63.0006 86.0528 66.5202C84.9913 70.0398 84.4606 73.2522 84.4606 76.1573C84.4606 77.8333 84.684 79.3697 85.131 80.7664C85.5779 82.1631 86.3042 83.3921 87.3098 84.4536C87.3657 84.5095 87.3936 84.5933 87.3936 84.705C87.3936 84.8167 87.3377 84.9285 87.226 85.0402C87.1143 85.1519 86.9746 85.1519 86.807 85.0402ZM22.2803 79.5094C24.3473 79.5094 26.582 79.3138 28.9843 78.9227C31.3866 78.5875 33.8727 78.0289 36.4426 77.2467C41.2472 75.7383 46.0239 73.1684 50.7726 69.537C55.5213 65.9057 60.1862 61.8553 64.7673 57.3859C64.0411 57.33 63.3148 57.3021 62.5885 57.3021C61.8622 57.3021 61.108 57.3021 60.3259 57.3021C56.4152 57.3021 52.3369 57.4976 48.091 57.8887C43.9009 58.2798 39.9064 58.8385 36.1074 59.5647C29.962 60.6262 24.934 61.967 21.0232 63.5872C17.1684 65.1515 14.3192 66.7995 12.4755 68.5314C10.6878 70.2633 9.79392 71.9114 9.79392 73.4757C9.79392 74.9841 10.5481 76.297 12.0565 77.4143C12.8387 77.973 14.1236 78.4479 15.9114 78.8389C17.6991 79.2859 19.8221 79.5094 22.2803 79.5094Z" stroke="#45AA82" stroke-width="2" stroke-linejoin="round"/>
</svg>
