<svg width="100" height="100" viewBox="0 0 100 100" fill="none" xmlns="http://www.w3.org/2000/svg">
<path d="M26.2109 93.4135V24.6659C26.2109 24.3409 26.3689 24.0362 26.6344 23.8488L49.7137 7.56561C50.3692 7.10318 51.2749 7.56188 51.2895 8.36389C51.3154 9.7879 51.3418 11.2865 51.3683 12.8454M26.2109 93.4135C41.5391 93.495 72.4167 93.6091 73.3011 93.4135M26.2109 93.4135C31.2431 89.7459 39.5763 83.691 45.2476 79.6181M73.3011 93.4135C74.1768 93.2198 73.6797 44.3692 73.3121 19.2417C73.3055 18.791 72.9984 18.4157 72.5619 18.3033L51.3683 12.8454M73.3011 93.4135L45.9976 86.3625C45.5561 86.2485 45.2476 85.8503 45.2476 85.3943V79.6181M51.3683 12.8454C51.7741 36.7647 52.1931 74.8737 51.2546 75.3903C50.88 75.5965 48.5021 77.281 45.2476 79.6181" stroke="#6BA0E5" stroke-width="2"/>
</svg>
