<svg width="101" height="100" viewBox="0 0 101 100" fill="none" xmlns="http://www.w3.org/2000/svg">
<g clip-path="url(#clip0_87_3101)">
<path d="M31.5625 13.1047V86.7682C31.5625 87.196 31.8347 87.5765 32.2396 87.7146L63.6021 98.4145C64.2509 98.6358 64.925 98.1536 64.925 97.468V87.4836M31.5625 13.1047L64.2773 25.4211C64.667 25.5678 64.925 25.9406 64.925 26.357V87.4836M31.5625 13.1047H41.9638M69.4387 13.1047L43.3633 1.74353C42.7028 1.45574 41.9638 1.93979 41.9638 2.66029V13.1047M69.4387 13.1047H41.9638M69.4387 13.1047V86.4836C69.4387 87.0359 68.991 87.4836 68.4387 87.4836H64.925" stroke="#6BA0E5" stroke-width="2" stroke-linejoin="round"/>
</g>
<defs>
<clipPath id="clip0_87_3101">
<rect width="101" height="100" fill="white"/>
</clipPath>
</defs>
</svg>
