<svg width="101" height="100" viewBox="0 0 101 100" fill="none" xmlns="http://www.w3.org/2000/svg">
<g clip-path="url(#clip0_87_3102)">
<path d="M27.8174 13.1047V86.7682C27.8174 87.196 28.0896 87.5765 28.4945 87.7146L59.857 98.4145C60.5058 98.6358 61.1799 98.1536 61.1799 97.468V87.4836M27.8174 13.1047L60.5322 25.4211C60.9219 25.5678 61.1799 25.9406 61.1799 26.357V87.4836M27.8174 13.1047H38.2187M65.6936 13.1047L38.2187 1.13379M65.6936 13.1047H38.2187M65.6936 13.1047V76.2435M38.2187 1.13379V13.1047M38.2187 1.13379H72.1821C72.7344 1.13379 73.1821 1.5815 73.1821 2.13379V75.2435C73.1821 75.7958 72.7344 76.2435 72.1821 76.2435H65.6936M61.1799 87.4836H64.6936C65.2459 87.4836 65.6936 87.0359 65.6936 86.4836V76.2435" stroke="#6BA0E5" stroke-width="2" stroke-linejoin="round"/>
</g>
<defs>
<clipPath id="clip0_87_3102">
<rect width="101" height="100" fill="white"/>
</clipPath>
</defs>
</svg>
