<svg width="100" height="100" viewBox="0 0 100 100" fill="none" xmlns="http://www.w3.org/2000/svg">
<path d="M27.3174 11.8607V85.5241C27.3174 85.952 27.5896 86.3324 27.9945 86.4706L59.357 97.1704C60.0058 97.3918 60.6799 96.9095 60.6799 96.224V86.2396M27.3174 11.8607L60.0322 24.177C60.4219 24.3237 60.6799 24.6965 60.6799 25.1129V86.2396M27.3174 11.8607H36.274M65.1936 11.8607L36.274 7.98935M65.1936 11.8607H36.274M65.1936 11.8607V74.9995M36.274 7.98935V11.8607M36.274 7.98935L41.2937 7.98935M60.6799 86.2396H64.1936C64.7459 86.2396 65.1936 85.7918 65.1936 85.2396V74.9995M72.0656 7.98936L72.6729 73.9903C72.678 74.5461 72.2288 74.9995 71.6729 74.9995H65.1936M72.0656 7.98936L42.4731 2.59393C41.8591 2.48199 41.2937 2.95361 41.2937 3.57771V7.98935M72.0656 7.98936L41.2937 7.98935" stroke="#6BA0E5" stroke-width="2" stroke-linejoin="round"/>
</svg>
